<svg width="35" height="28" viewBox="0 0 35 28" fill="none" xmlns="http://www.w3.org/2000/svg">
<path d="M4.11172 1.02925C4.12787 0.477199 3.69344 0.0165843 3.14139 0.000436127C2.58934 -0.015712 2.12873 0.418721 2.11258 0.97077L3.11215 1.00001L4.11172 1.02925ZM3.10923 1.09997L2.10965 1.07073C2.10908 1.0902 2.10908 1.10969 2.10965 1.12917L3.10923 1.09997ZM2.88011 8.44688L1.8824 8.51454L2.88011 8.44688ZM1.59806 22.0336L0.628135 22.277C0.644376 22.3417 0.667054 22.4046 0.695829 22.4648L1.59806 22.0336ZM1.67395 22.1923L2.66776 22.3034C2.68852 22.1176 2.65679 21.9297 2.57618 21.7611L1.67395 22.1923ZM0.669027 22.1807C0.607697 22.7295 1.00293 23.2242 1.5518 23.2855C2.10066 23.3468 2.59533 22.9516 2.65666 22.4027L1.66284 22.2917L0.669027 22.1807ZM3.11215 1.00001L2.11258 0.97077L2.10965 1.07073L3.10923 1.09997L4.1088 1.1292L4.11172 1.02925L3.11215 1.00001ZM3.10923 1.09997L2.10965 1.12917C2.16535 3.03556 2.12202 4.42356 1.99566 5.32827L2.98605 5.46659L3.97644 5.60491C4.12658 4.52992 4.16536 3.00684 4.1088 1.07076L3.10923 1.09997ZM2.98605 5.46659L1.99566 5.32827C1.84789 6.38634 1.81012 7.44879 1.8824 8.51454L2.88011 8.44688L3.87781 8.37922C3.81486 7.45095 3.84772 6.52655 3.97644 5.60491L2.98605 5.46659ZM2.88011 8.44688L1.8824 8.51454C1.94696 9.46652 1.94682 10.4157 1.88208 11.3624L2.87975 11.4306L3.87742 11.4988C3.94838 10.4612 3.94848 9.42125 3.87781 8.37922L2.88011 8.44688ZM2.87975 11.4306L1.88208 11.3624C1.81822 12.2962 1.67308 13.2227 1.44625 14.1426L2.41716 14.382L3.38808 14.6214C3.64233 13.5904 3.80559 12.5493 3.87742 11.4988L2.87975 11.4306ZM2.41716 14.382L1.44625 14.1426C1.17746 15.2326 1.10405 16.3428 1.22495 17.4678L2.21923 17.361L3.2135 17.2541C3.11722 16.3582 3.17577 15.4824 3.38808 14.6214L2.41716 14.382ZM2.21923 17.361L1.22495 17.4678C1.31968 18.3493 1.24376 19.2058 0.997998 20.045L1.9577 20.3261L2.91739 20.6071C3.23753 19.5139 3.33596 18.3937 3.2135 17.2541L2.21923 17.361ZM1.9577 20.3261L0.997998 20.045C0.853683 20.5378 0.74476 20.95 0.677046 21.2715C0.643393 21.4313 0.616125 21.5863 0.601552 21.7271C0.590204 21.8368 0.572025 22.0534 0.628135 22.277L1.59806 22.0336L2.56798 21.7901C2.6025 21.9277 2.58311 22.0086 2.59093 21.9329C2.59553 21.8885 2.60782 21.8085 2.63411 21.6837C2.68627 21.436 2.77876 21.0805 2.91739 20.6071L1.9577 20.3261ZM1.59806 22.0336L0.695829 22.4648L0.771717 22.6236L1.67395 22.1923L2.57618 21.7611L2.50029 21.6023L1.59806 22.0336ZM1.67395 22.1923L0.680131 22.0813L0.669027 22.1807L1.66284 22.2917L2.65666 22.4027L2.66776 22.3034L1.67395 22.1923Z" fill="#1F724B"/>
<path d="M4.23313 0.603471C3.68087 0.608946 3.23762 1.06108 3.24309 1.61334C3.24857 2.16559 3.7007 2.60885 4.25296 2.60337L4.24304 1.60342L4.23313 0.603471ZM4.34304 1.60243L4.35295 2.60238C4.39211 2.60199 4.43122 2.5993 4.47007 2.59433L4.34304 1.60243ZM8.70988 1.41539L8.58935 2.4081L8.70988 1.41539ZM14.6727 1.64517L14.601 0.647748L14.6727 1.64517ZM20.6328 1.5414L20.5824 0.54267L20.6328 1.5414ZM26.5914 1.38479L26.3486 2.35486L26.5914 1.38479ZM31.2345 1.41536L31.6667 2.31714C31.788 2.25902 31.8963 2.17705 31.9851 2.07613L31.2345 1.41536ZM31.306 1.33418L31.296 0.334227C31.0122 0.337055 30.743 0.460361 30.5554 0.673404L31.306 1.33418ZM31.416 2.33313C31.9682 2.32763 32.4115 1.87547 32.406 1.32322C32.4005 0.770959 31.9483 0.327727 31.396 0.33323L31.406 1.33318L31.416 2.33313ZM4.24304 1.60342L4.25296 2.60337L4.35295 2.60238L4.34304 1.60243L4.33312 0.60248L4.23313 0.603471L4.24304 1.60342ZM4.34304 1.60243L4.47007 2.59433C6.36553 2.35158 7.72133 2.30271 8.58935 2.4081L8.70988 1.41539L8.83041 0.422683C7.7092 0.286551 6.15377 0.36237 4.21601 0.610531L4.34304 1.60243ZM8.70988 1.41539L8.58935 2.4081C9.60652 2.5316 10.6234 2.61993 11.64 2.67306L11.6922 1.67442L11.7443 0.675781C10.7738 0.625061 9.80248 0.540707 8.83041 0.422683L8.70988 1.41539ZM11.6922 1.67442L11.64 2.67306C12.6749 2.72714 13.7098 2.71698 14.7444 2.6426L14.6727 1.64517L14.601 0.647748C13.6487 0.716206 12.6966 0.725544 11.7443 0.675781L11.6922 1.67442ZM14.6727 1.64517L14.7444 2.6426C15.7053 2.57352 16.666 2.55164 17.6267 2.57693L17.653 1.57728L17.6793 0.577624C16.6531 0.550607 15.6269 0.57399 14.601 0.647748L14.6727 1.64517ZM17.653 1.57728L17.6267 2.57693C18.6458 2.60376 19.6646 2.59149 20.6831 2.54013L20.6328 1.5414L20.5824 0.54267C19.6149 0.591455 18.6472 0.603105 17.6793 0.577624L17.653 1.57728ZM20.6328 1.5414L20.6831 2.54013C21.7103 2.48834 22.7363 2.38393 23.7612 2.22701L23.6098 1.23853L23.4584 0.250055C22.5 0.396815 21.5413 0.494319 20.5824 0.54267L20.6328 1.5414ZM23.6098 1.23853L23.7612 2.22701C24.6184 2.09576 25.4783 2.137 26.3486 2.35486L26.5914 1.38479L26.8342 0.414725C25.7124 0.133898 24.5845 0.0776305 23.4584 0.250055L23.6098 1.23853ZM26.5914 1.38479L26.3486 2.35486C27.4492 2.63037 28.555 2.72145 29.6617 2.62434L29.5743 1.62817L29.4869 0.632C28.6085 0.709076 27.7258 0.637906 26.8342 0.414725L26.5914 1.38479ZM29.5743 1.62817L29.6617 2.62434C30.1627 2.58038 30.5646 2.53952 30.8609 2.50153C31.0081 2.48267 31.1406 2.46308 31.2515 2.44221C31.3235 2.42864 31.5037 2.39528 31.6667 2.31714L31.2345 1.41536L30.8024 0.513577C30.8437 0.493757 30.8757 0.48251 30.8897 0.477817C30.9055 0.472507 30.9155 0.469866 30.9172 0.469427C30.9198 0.468756 30.9096 0.471434 30.8814 0.476741C30.8254 0.487296 30.7362 0.501158 30.6066 0.517764C30.3495 0.550718 29.9784 0.588868 29.4869 0.632L29.5743 1.62817ZM31.2345 1.41536L31.9851 2.07613L32.0566 1.99495L31.306 1.33418L30.5554 0.673404L30.484 0.754584L31.2345 1.41536ZM31.306 1.33418L31.316 2.33413L31.416 2.33313L31.406 1.33318L31.396 0.33323L31.296 0.334227L31.306 1.33418Z" fill="#1F724B"/>
<path d="M34.0421 1.7953C34.052 1.24311 33.6124 0.787455 33.0602 0.777573C32.508 0.767692 32.0523 1.20733 32.0424 1.75952L33.0423 1.77741L34.0421 1.7953ZM33.0405 1.8774L34.0382 1.94423C34.0393 1.92794 34.04 1.91162 34.0403 1.89529L33.0405 1.8774ZM32.7897 12.2028L31.8083 12.3952L32.7897 12.2028ZM32.2952 26.0525L31.3559 26.3958C31.3668 26.4255 31.379 26.4547 31.3927 26.4832L32.2952 26.0525ZM32.4641 26.4064L33.4636 26.4363C33.4684 26.2772 33.4351 26.1193 33.3665 25.9757L32.4641 26.4064ZM31.4615 26.4764C31.445 27.0285 31.8791 27.4894 32.4312 27.5059C32.9832 27.5224 33.4441 27.0883 33.4606 26.5363L32.4611 26.5064L31.4615 26.4764ZM33.0423 1.77741L32.0424 1.75952L32.0406 1.85951L33.0405 1.8774L34.0403 1.89529L34.0421 1.7953L33.0423 1.77741ZM33.0405 1.8774L32.0427 1.81056C31.9141 3.73125 31.8351 5.20203 31.8072 6.21497L32.8068 6.24252L33.8064 6.27007C33.8332 5.29738 33.91 3.85808 34.0382 1.94423L33.0405 1.8774ZM32.8068 6.24252L31.8072 6.21497C31.7804 7.18681 31.723 8.15802 31.6351 9.12863L32.631 9.21887L33.6269 9.30912C33.7186 8.2969 33.7785 7.28387 33.8064 6.27007L32.8068 6.24252ZM32.631 9.21887L31.6351 9.12863C31.5365 10.2165 31.5949 11.3063 31.8083 12.3952L32.7897 12.2028L33.771 12.0105C33.5932 11.1036 33.5458 10.2041 33.6269 9.30912L32.631 9.21887ZM32.7897 12.2028L31.8083 12.3952C31.9882 13.3127 32.0512 14.2239 31.9989 15.1307L32.9972 15.1883L33.9956 15.2459C34.0577 14.1679 33.9824 13.0887 33.771 12.0105L32.7897 12.2028ZM32.9972 15.1883L31.9989 15.1307C31.9415 16.1261 31.8886 17.1216 31.8402 18.1172L32.839 18.1658L33.8378 18.2143C33.8859 17.2247 33.9385 16.2353 33.9956 15.2459L32.9972 15.1883ZM32.839 18.1658L31.8402 18.1172C31.7909 19.1301 31.7725 20.1438 31.7849 21.1584L32.7848 21.1462L33.7847 21.134C33.7728 20.1599 33.7905 19.1867 33.8378 18.2143L32.839 18.1658ZM32.7848 21.1462L31.7849 21.1584C31.796 22.0726 31.6985 22.9847 31.4911 23.8963L32.4661 24.1182L33.4412 24.34C33.6829 23.2777 33.7978 22.2085 33.7847 21.134L32.7848 21.1462ZM32.4661 24.1182L31.4911 23.8963C31.3736 24.4123 31.2929 24.8688 31.2588 25.2539C31.2279 25.6041 31.2211 26.027 31.3559 26.3958L32.2952 26.0525L33.2344 25.7092C33.2586 25.7754 33.225 25.7246 33.2511 25.43C33.274 25.1704 33.334 24.811 33.4412 24.34L32.4661 24.1182ZM32.2952 26.0525L31.3927 26.4832L31.5616 26.8371L32.4641 26.4064L33.3665 25.9757L33.1977 25.6218L32.2952 26.0525ZM32.4641 26.4064L31.4645 26.3765L31.4615 26.4764L32.4611 26.5064L33.4606 26.5363L33.4636 26.4363L32.4641 26.4064Z" fill="#1F724B"/>
<path d="M1.16498 21.1666C0.620249 21.0755 0.104872 21.4433 0.013856 21.9881C-0.0771601 22.5328 0.29065 23.0482 0.835384 23.1392L1.00018 22.1529L1.16498 21.1666ZM1.09882 22.1694L0.934017 23.1557C0.946477 23.1578 0.958975 23.1596 0.971505 23.1612L1.09882 22.1694ZM14.2511 24.1897L14.4773 23.2156L14.2511 24.1897ZM29.0537 25.4877L28.984 26.4853L29.0537 25.4877ZM31.0997 25.5444L31.1826 26.541C31.1886 26.5405 31.1946 26.54 31.2006 26.5393L31.0997 25.5444ZM31.5633 25.4974L31.5648 24.4974C31.5306 24.4974 31.4964 24.4991 31.4624 24.5025L31.5633 25.4974ZM31.6619 26.4976C32.2142 26.4984 32.6625 26.0513 32.6633 25.499C32.6641 24.9467 32.2171 24.4984 31.6648 24.4976L31.6633 25.4976L31.6619 26.4976ZM1.00018 22.1529L0.835384 23.1392L0.934017 23.1557L1.09882 22.1694L1.26362 21.183L1.16498 21.1666L1.00018 22.1529ZM1.09882 22.1694L0.971505 23.1612C2.87443 23.4055 4.30433 23.6049 5.26769 23.7597L5.42636 22.7724L5.58504 21.785C4.58963 21.6251 3.1345 21.4224 1.22613 21.1775L1.09882 22.1694ZM5.42636 22.7724L5.26769 23.7597C6.21758 23.9123 7.16171 24.1077 8.10017 24.3457L8.34605 23.3764L8.59192 22.4071C7.59622 22.1545 6.5939 21.9472 5.58504 21.785L5.42636 22.7724ZM8.34605 23.3764L8.10017 24.3457C9.13621 24.6085 10.19 24.7591 11.2604 24.7974L11.2961 23.798L11.3319 22.7986C10.403 22.7654 9.49003 22.6349 8.59192 22.4071L8.34605 23.3764ZM11.2961 23.798L11.2604 24.7974C12.1962 24.8308 13.1173 24.953 14.0248 25.1638L14.2511 24.1897L14.4773 23.2156C13.4442 22.9756 12.3954 22.8367 11.3319 22.7986L11.2961 23.798ZM14.2511 24.1897L14.0248 25.1638C14.9764 25.3848 15.9265 25.6344 16.8752 25.9125L17.1566 24.9529L17.4379 23.9933C16.4532 23.7046 15.4663 23.4454 14.4773 23.2156L14.2511 24.1897ZM17.1566 24.9529L16.8752 25.9125C17.9478 26.2269 19.0442 26.3592 20.16 26.3085L20.1146 25.3095L20.0693 24.3106C19.1744 24.3512 18.2987 24.2456 17.4379 23.9933L17.1566 24.9529ZM20.1146 25.3095L20.16 26.3085C21.08 26.2667 21.9876 26.342 22.8849 26.5343L23.0945 25.5565L23.3041 24.5787C22.2389 24.3504 21.1599 24.261 20.0693 24.3106L20.1146 25.3095ZM23.0945 25.5565L22.8849 26.5343C23.9892 26.771 25.1061 26.7975 26.2292 26.6151L26.0689 25.628L25.9086 24.641C25.0283 24.7839 24.1623 24.7627 23.3041 24.5787L23.0945 25.5565ZM26.0689 25.628L26.2292 26.6151C27.1567 26.4645 28.0744 26.4217 28.984 26.4853L29.0537 25.4877L29.1235 24.4901C28.0565 24.4156 26.9844 24.4663 25.9086 24.641L26.0689 25.628ZM29.0537 25.4877L28.984 26.4853C29.967 26.554 30.7206 26.5794 31.1826 26.541L31.0997 25.5444L31.0169 24.5479C30.7274 24.572 30.1169 24.5596 29.1235 24.4901L29.0537 25.4877ZM31.0997 25.5444L31.2006 26.5393L31.6642 26.4923L31.5633 25.4974L31.4624 24.5025L30.9988 24.5496L31.0997 25.5444ZM31.5633 25.4974L31.5619 26.4974L31.6619 26.4976L31.6633 25.4976L31.6648 24.4976L31.5648 24.4974L31.5633 25.4974Z" fill="#1F724B"/>
<path d="M10.6573 7.75545C10.6896 7.20412 10.269 6.73092 9.71762 6.69853C9.16629 6.66615 8.69309 7.08684 8.6607 7.63817L9.65898 7.69681L10.6573 7.75545ZM9.65312 7.79664L10.6382 7.9685C10.6448 7.93104 10.6492 7.89324 10.6514 7.85528L9.65312 7.79664ZM8.9737 16.9748L7.97474 17.0203C7.97538 17.0344 7.97632 17.0485 7.97756 17.0625L8.9737 16.9748ZM8.99794 17.2499L9.99538 17.3214C9.99918 17.2684 9.99875 17.2151 9.99408 17.1621L8.99794 17.2499ZM7.99335 17.2781C7.95384 17.829 8.36838 18.3075 8.91925 18.3471C9.47012 18.3866 9.94872 17.972 9.98822 17.4211L8.99078 17.3496L7.99335 17.2781ZM9.65898 7.69681L8.6607 7.63817L8.65484 7.738L9.65312 7.79664L10.6514 7.85528L10.6573 7.75545L9.65898 7.69681ZM9.65312 7.79664L8.668 7.62478C8.33316 9.54418 8.15674 11.0645 8.16215 12.1503L9.16214 12.1453L10.1621 12.1403C10.1576 11.2373 10.3085 9.85851 10.6382 7.9685L9.65312 7.79664ZM9.16214 12.1453L8.16215 12.1503C8.16698 13.1192 8.13481 14.0847 8.06567 15.0467L9.0631 15.1184L10.0605 15.1901C10.1334 14.1768 10.1672 13.1602 10.1621 12.1403L9.16214 12.1453ZM9.0631 15.1184L8.06567 15.0467C7.99623 16.0129 7.96008 16.6985 7.97474 17.0203L8.9737 16.9748L9.97267 16.9292C9.96455 16.7512 9.98799 16.1993 10.0605 15.1901L9.0631 15.1184ZM8.9737 16.9748L7.97756 17.0625L8.00179 17.3376L8.99794 17.2499L9.99408 17.1621L9.96984 16.887L8.9737 16.9748ZM8.99794 17.2499L8.0005 17.1783L7.99335 17.2781L8.99078 17.3496L9.98822 17.4211L9.99538 17.3214L8.99794 17.2499Z" fill="#1F724B"/>
<path d="M15.1135 8.7895C14.6927 8.43184 14.0616 8.48305 13.704 8.90388C13.3463 9.32471 13.3975 9.9558 13.8183 10.3135L14.4659 9.55148L15.1135 8.7895ZM14.5421 9.61624L13.8945 10.3782C14.2143 10.65 14.6697 10.6932 15.0348 10.4864L14.5421 9.61624ZM17.8537 11.8249L16.9202 11.4663L17.8537 11.8249ZM17.9369 18.5266L17.3634 19.3459C17.8121 19.6599 18.43 19.5546 18.7493 19.1097L17.9369 18.5266ZM17.8869 18.4917L18.4603 17.6724C18.15 17.4552 17.7435 17.432 17.4104 17.6125C17.0773 17.793 16.8749 18.1463 16.8875 18.5249L17.8869 18.4917ZM16.8908 18.6249C16.9092 19.1769 17.3715 19.6094 17.9235 19.5911C18.4755 19.5727 18.9081 19.1103 18.8897 18.5584L17.8902 18.5916L16.8908 18.6249ZM14.4659 9.55148L13.8183 10.3135L13.8945 10.3782L14.5421 9.61624L15.1897 8.85426L15.1135 8.7895L14.4659 9.55148ZM14.5421 9.61624L15.0348 10.4864C15.7659 10.0725 16.2614 9.91446 16.561 9.89055C16.7974 9.87168 16.8033 9.93225 16.8113 9.94366L17.6302 9.36979L18.4492 8.79591C17.9548 8.09042 17.1948 7.83361 16.4019 7.89689C15.6721 7.95514 14.8747 8.27878 14.0494 8.74605L14.5421 9.61624ZM17.6302 9.36979L16.8113 9.94366C17.0963 10.3504 17.1718 10.8113 16.9202 11.4663L17.8537 11.8249L18.7872 12.1835C19.2423 10.9988 19.1689 9.82298 18.4492 8.79591L17.6302 9.36979ZM17.8537 11.8249L16.9202 11.4663C16.6157 12.2589 16.1713 12.9491 15.5835 13.5452L16.2956 14.2473L17.0076 14.9494C17.7906 14.1554 18.3849 13.2307 18.7872 12.1835L17.8537 11.8249ZM16.2956 14.2473L15.5835 13.5452C15.1305 14.0046 14.8053 14.5493 14.6857 15.179C14.566 15.8088 14.6689 16.4346 14.9222 17.0279L15.8419 16.6353L16.7616 16.2426C16.632 15.939 16.619 15.7184 16.6505 15.5522C16.6821 15.386 16.7753 15.1851 17.0076 14.9494L16.2956 14.2473ZM15.8419 16.6353L14.9222 17.0279C15.3354 17.9956 15.9458 18.8823 16.9065 19.1771L17.1999 18.2211L17.4933 17.2652C17.4092 17.2393 17.1143 17.0687 16.7616 16.2426L15.8419 16.6353ZM17.1999 18.2211L16.9065 19.1771C17.162 19.2555 17.3163 19.3097 17.393 19.3416C17.4429 19.3622 17.409 19.3527 17.348 19.3115C17.3304 19.2996 17.2059 19.2182 17.1 19.057C17.0411 18.9674 16.957 18.8065 16.9418 18.5869C16.9251 18.3453 16.998 18.1197 17.1244 17.9436L17.9369 18.5266L18.7493 19.1097C18.8796 18.9282 18.9542 18.6966 18.9371 18.4488C18.9214 18.2228 18.8348 18.0551 18.7711 17.9583C18.6556 17.7826 18.513 17.6849 18.4686 17.6549C18.354 17.5773 18.2318 17.5242 18.1589 17.494C17.99 17.424 17.7603 17.3471 17.4933 17.2652L17.1999 18.2211ZM17.9369 18.5266L18.5103 17.7074L18.4603 17.6724L17.8869 18.4917L17.3135 19.3109L17.3634 19.3459L17.9369 18.5266ZM17.8869 18.4917L16.8875 18.5249L16.8908 18.6249L17.8902 18.5916L18.8897 18.5584L18.8864 18.4584L17.8869 18.4917Z" fill="#1F724B"/>
<path d="M23.4626 6.73248C22.9566 6.51118 22.367 6.74197 22.1457 7.24798C21.9244 7.75398 22.1552 8.34359 22.6612 8.56489L23.0619 7.64869L23.4626 6.73248ZM23.1535 7.68876L22.7528 8.60496C22.8739 8.65794 23.0043 8.68637 23.1365 8.68861L23.1535 7.68876ZM26.8418 11.6506L26.2612 10.8364L26.8418 11.6506ZM26.5931 13.606L26.5133 14.6028L26.5931 13.606ZM28.1569 15.1832L27.1574 15.2171L28.1569 15.1832ZM27.2895 17.7869L28.0709 18.411L27.2895 17.7869ZM25.5695 18.7768L25.3767 19.7581L25.5695 18.7768ZM24.784 18.7534L23.7927 18.8845C23.8289 19.1585 23.9769 19.4053 24.2016 19.5663L24.784 18.7534ZM24.8474 18.7988L25.7374 19.2548C25.9632 18.814 25.8324 18.2743 25.4298 17.9859L24.8474 18.7988ZM23.9119 18.4317C23.66 18.9232 23.8542 19.5258 24.3457 19.7777C24.8372 20.0296 25.4399 19.8353 25.6917 19.3438L24.8018 18.8878L23.9119 18.4317ZM23.0619 7.64869L22.6612 8.56489L22.7528 8.60496L23.1535 7.68876L23.5542 6.77255L23.4626 6.73248L23.0619 7.64869ZM23.1535 7.68876L23.1365 8.68861C25.0566 8.72122 26.4475 8.78637 27.3309 8.87995L27.4362 7.88551L27.5415 6.89108C26.5657 6.78771 25.1015 6.7217 23.1705 6.6889L23.1535 7.68876ZM27.4362 7.88551L27.3309 8.87995C27.4844 8.89621 27.559 8.92457 27.5835 8.93647C27.6001 8.94456 27.5686 8.93194 27.5374 8.88323C27.5073 8.83612 27.5126 8.81009 27.514 8.84517C27.5156 8.88703 27.5093 8.98139 27.462 9.14246L28.4213 9.42466L29.3807 9.70687C29.5514 9.12634 29.6143 8.41816 29.2219 7.80508C28.8221 7.18029 28.1444 6.95494 27.5415 6.89108L27.4362 7.88551ZM28.4213 9.42466L27.462 9.14246C27.2516 9.85751 26.8573 10.4113 26.2612 10.8364L26.8418 11.6506L27.4224 12.4648C28.3866 11.7772 29.0453 10.8471 29.3807 9.70687L28.4213 9.42466ZM26.8418 11.6506L26.2612 10.8364C25.4877 11.388 24.8326 11.9394 24.5151 12.4748L25.3752 12.9849L26.2354 13.4949C26.3131 13.3638 26.6357 13.0257 27.4224 12.4648L26.8418 11.6506ZM25.3752 12.9849L24.5151 12.4748C24.3661 12.726 24.2363 13.1278 24.4072 13.571C24.5607 13.9691 24.8763 14.1785 25.0772 14.2809C25.4705 14.4815 25.9989 14.5616 26.5133 14.6028L26.5931 13.606L26.6729 12.6092C26.4461 12.591 26.2738 12.5673 26.1484 12.5418C26.0149 12.5146 25.9739 12.4932 25.9858 12.4993C25.9946 12.5037 26.037 12.5261 26.0907 12.5762C26.1465 12.6285 26.2219 12.7183 26.2732 12.8513C26.392 13.1594 26.2855 13.4104 26.2354 13.4949L25.3752 12.9849ZM26.5931 13.606L26.5133 14.6028C26.8676 14.6312 26.9919 14.7255 27.0311 14.765C27.0646 14.7988 27.1468 14.903 27.1574 15.2171L28.1569 15.1832L29.1563 15.1493C29.134 14.4928 28.9391 13.8488 28.4514 13.3568C27.9693 12.8706 27.3282 12.6616 26.6729 12.6092L26.5931 13.606ZM28.1569 15.1832L27.1574 15.2171C27.1822 15.9473 26.9719 16.5823 26.5082 17.1628L27.2895 17.7869L28.0709 18.411C28.8295 17.4612 29.1974 16.3604 29.1563 15.1493L28.1569 15.1832ZM27.2895 17.7869L26.5082 17.1628C26.2467 17.4902 26.0415 17.6615 25.9024 17.7416C25.8369 17.7792 25.7966 17.7906 25.7796 17.7941C25.7712 17.7958 25.7668 17.7959 25.7656 17.7959C25.7645 17.7959 25.7637 17.7959 25.7624 17.7956L25.5695 18.7768L25.3767 19.7581C26.5016 19.9791 27.4158 19.2312 28.0709 18.411L27.2895 17.7869ZM25.5695 18.7768L25.7624 17.7956C25.4855 17.7412 25.2189 17.699 25.0014 17.6925C24.9115 17.6898 24.7187 17.6875 24.5155 17.754C24.4108 17.7883 24.2092 17.8705 24.0369 18.0693C23.8326 18.3048 23.7556 18.6046 23.7927 18.8845L24.784 18.7534L25.7754 18.6223C25.8094 18.8798 25.7381 19.1601 25.548 19.3794C25.3898 19.5619 25.2109 19.6308 25.1374 19.6549C24.9967 19.7009 24.9006 19.6904 24.9417 19.6916C24.986 19.6929 25.1181 19.7072 25.3767 19.7581L25.5695 18.7768ZM24.784 18.7534L24.2016 19.5663L24.265 19.6117L24.8474 18.7988L25.4298 17.9859L25.3664 17.9405L24.784 18.7534ZM24.8474 18.7988L23.9575 18.3427L23.9119 18.4317L24.8018 18.8878L25.6917 19.3438L25.7374 19.2548L24.8474 18.7988Z" fill="#1F724B"/>
</svg>
