<svg width="67" height="65" viewBox="0 0 67 65" fill="none" xmlns="http://www.w3.org/2000/svg">
<path d="M19.8356 36.6176C20.2139 36.2152 20.1943 35.5823 19.7919 35.2041C19.3894 34.8258 18.7566 34.8454 18.3783 35.2478L19.107 35.9327L19.8356 36.6176ZM19.0385 36.0056L18.3098 35.3207C18.2835 35.3487 18.2588 35.3782 18.2359 35.409L19.0385 36.0056ZM12.1107 43.6533L12.8957 44.2728L12.1107 43.6533ZM10.4498 46.1005L9.5841 45.6L10.4498 46.1005ZM15.356 62.5404L15.2915 63.5383L15.356 62.5404ZM18.3095 62.9623L18.526 61.986L18.3095 62.9623ZM30.2126 63.3118L30.0675 62.3223L30.2126 63.3118ZM33.1992 63.41L33.4065 62.4317L33.1992 63.41ZM36.1561 63.3234L35.89 62.3595L36.1561 63.3234ZM39.0871 62.7439L39.2061 63.7368L39.0871 62.7439ZM46.4791 58.7262L45.5514 58.3529L46.4791 58.7262ZM47.5802 53.0301L46.5889 52.898L47.5802 53.0301ZM47.7791 50.0542L46.7791 50.0534L47.7791 50.0542ZM47.3868 47.1064L46.4215 47.3675L47.3868 47.1064ZM46.6659 44.2196L47.6408 43.9968L46.6659 44.2196ZM45.8919 41.3901L46.8444 41.0857L45.8919 41.3901ZM44.8847 38.6216L43.9591 39.0001L44.8847 38.6216ZM39.2686 32.1623L39.6881 31.2546L39.2686 32.1623ZM24.7417 32.7496L25.052 33.7002L24.7417 32.7496ZM19.9658 34.3861L19.6459 33.4387L19.6393 33.441L19.9658 34.3861ZM19.5171 34.5412L19.8053 35.4988C19.8181 35.4949 19.8309 35.4908 19.8436 35.4864L19.5171 34.5412ZM19.1331 33.6124C18.6043 33.7716 18.3046 34.3294 18.4637 34.8582C18.6229 35.3871 19.1807 35.6868 19.7095 35.5276L19.4213 34.57L19.1331 33.6124ZM19.107 35.9327L18.3783 35.2478L18.3098 35.3207L19.0385 36.0056L19.7671 36.6905L19.8356 36.6176L19.107 35.9327ZM19.0385 36.0056L18.2359 35.409C17.1004 36.9366 16.1845 37.8929 15.4865 38.3741L16.0541 39.1974L16.6216 40.0207C17.5967 39.3486 18.6705 38.1769 19.841 36.6022L19.0385 36.0056ZM16.0541 39.1974L15.4865 38.3741C14.5586 39.0137 13.7639 39.7851 13.1068 40.686L13.9148 41.2752L14.7228 41.8645C15.245 41.1484 15.8764 40.5345 16.6216 40.0207L16.0541 39.1974ZM13.9148 41.2752L13.1068 40.686C12.5246 41.4844 11.9309 42.267 11.3258 43.0337L12.1107 43.6533L12.8957 44.2728C13.5167 43.4859 14.1258 42.6831 14.7228 41.8645L13.9148 41.2752ZM12.1107 43.6533L11.3258 43.0337C10.683 43.8481 10.1024 44.7036 9.5841 45.6L10.4498 46.1005L11.3155 46.6011C11.7856 45.788 12.3123 45.012 12.8957 44.2728L12.1107 43.6533ZM10.4498 46.1005L9.5841 45.6C9.10025 46.4368 8.58551 47.2674 8.03979 48.0916L8.87359 48.6436L9.70739 49.1957C10.2749 48.3385 10.811 47.4737 11.3155 46.6011L10.4498 46.1005ZM8.87359 48.6436L8.03979 48.0916C7.42741 49.0165 6.96717 50.0111 6.66102 51.0726L7.62185 51.3497L8.58269 51.6269C8.83224 50.7616 9.20649 49.9522 9.70739 49.1957L8.87359 48.6436ZM7.62185 51.3497L6.66102 51.0726C6.36648 52.0938 6.16621 53.1326 6.06043 54.1882L7.05544 54.2879L8.05046 54.3876C8.14418 53.4524 8.32152 52.5324 8.58269 51.6269L7.62185 51.3497ZM7.05544 54.2879L6.06043 54.1882C5.96123 55.1781 5.85478 56.1568 5.74109 57.1243L6.73425 57.241L7.72742 57.3577C7.84247 56.3786 7.95015 55.3886 8.05046 54.3876L7.05544 54.2879ZM6.73425 57.241L5.74109 57.1243C5.60115 58.3151 5.83976 59.4464 6.44598 60.4864L7.30992 59.9828L8.17387 59.4793C7.78377 58.81 7.6386 58.1135 7.72742 57.3577L6.73425 57.241ZM7.30992 59.9828L6.44598 60.4864C7.05982 61.5395 7.95525 62.2985 9.09838 62.7447L9.46201 61.8132L9.82564 60.8816C9.09562 60.5967 8.55633 60.1354 8.17387 59.4793L7.30992 59.9828ZM9.46201 61.8132L9.09838 62.7447C10.1419 63.152 11.2247 63.3718 12.3419 63.4026L12.3695 62.403L12.3971 61.4034C11.5108 61.3789 10.6553 61.2055 9.82564 60.8816L9.46201 61.8132ZM12.3695 62.403L12.3419 63.4026C13.3315 63.4299 14.3147 63.4751 15.2915 63.5383L15.356 62.5404L15.4206 61.5425C14.4189 61.4777 13.411 61.4313 12.3971 61.4034L12.3695 62.403ZM15.356 62.5404L15.2915 63.5383C16.229 63.5989 17.1627 63.7322 18.0929 63.9386L18.3095 62.9623L18.526 61.986C17.4969 61.7578 16.4616 61.6098 15.4206 61.5425L15.356 62.5404ZM18.3095 62.9623L18.0929 63.9386C19.1237 64.1672 20.1623 64.3131 21.208 64.3758L21.2679 63.3776L21.3278 62.3794C20.3884 62.323 19.4547 62.192 18.526 61.986L18.3095 62.9623ZM21.2679 63.3776L21.208 64.3758C22.2721 64.4396 23.3385 64.3897 24.4062 64.2269L24.2555 63.2383L24.1048 62.2498C23.1741 62.3917 22.2488 62.4346 21.3278 62.3794L21.2679 63.3776ZM24.2555 63.2383L24.4062 64.2269C25.2988 64.0908 26.1837 64.1004 27.0651 64.2551L27.2379 63.2701L27.4107 62.2852C26.314 62.0927 25.2106 62.0812 24.1048 62.2498L24.2555 63.2383ZM27.2379 63.2701L27.0651 64.2551C28.1593 64.4471 29.2582 64.4624 30.3577 64.3012L30.2126 63.3118L30.0675 62.3223C29.1789 62.4527 28.2947 62.4403 27.4107 62.2852L27.2379 63.2701ZM30.2126 63.3118L30.3577 64.3012C31.2328 64.1728 32.109 64.2012 32.9919 64.3882L33.1992 63.41L33.4065 62.4317C32.2953 62.1962 31.1804 62.1591 30.0675 62.3223L30.2126 63.3118ZM33.1992 63.41L32.9919 64.3882C34.1443 64.6324 35.2923 64.5993 36.4223 64.2873L36.1561 63.3234L35.89 62.3595C35.0715 62.5854 34.2483 62.61 33.4065 62.4317L33.1992 63.41ZM36.1561 63.3234L36.4223 64.2873C37.3494 64.0314 38.2772 63.8481 39.2061 63.7368L39.0871 62.7439L38.9682 61.751C37.9375 61.8745 36.9113 62.0775 35.89 62.3595L36.1561 63.3234ZM39.0871 62.7439L39.2061 63.7368C40.2642 63.6101 41.2915 63.3612 42.2861 62.9902L41.9366 62.0533L41.5871 61.1163C40.742 61.4315 39.8696 61.6431 38.9682 61.751L39.0871 62.7439ZM41.9366 62.0533L42.2861 62.9902C43.2539 62.6292 44.1959 62.1935 45.1117 61.6836L44.6252 60.8099L44.1387 59.9362C43.3094 60.398 42.459 60.7912 41.5871 61.1163L41.9366 62.0533ZM44.6252 60.8099L45.1117 61.6836C46.1786 61.0894 46.9556 60.221 47.4068 59.0994L46.4791 58.7262L45.5514 58.3529C45.2758 59.0379 44.8168 59.5586 44.1387 59.9362L44.6252 60.8099ZM46.4791 58.7262L47.4068 59.0994C47.8019 58.1174 48.0653 57.1058 48.1956 56.0665L47.2034 55.9422L46.2111 55.8178C46.1026 56.6839 45.8831 57.5283 45.5514 58.3529L46.4791 58.7262ZM47.2034 55.9422L48.1956 56.0665C48.3147 55.1165 48.4399 54.1484 48.5714 53.1623L47.5802 53.0301L46.5889 52.898C46.4568 53.8891 46.3309 54.8624 46.2111 55.8178L47.2034 55.9422ZM47.5802 53.0301L48.5714 53.1623C48.709 52.1302 48.7782 51.0944 48.7791 50.055L47.7791 50.0542L46.7791 50.0534C46.7783 51.0047 46.7149 51.9528 46.5889 52.898L47.5802 53.0301ZM47.7791 50.0542L48.7791 50.055C48.78 48.9704 48.6373 47.8997 48.3521 46.8453L47.3868 47.1064L46.4215 47.3675C46.6609 48.2528 46.7798 49.1473 46.7791 50.0534L47.7791 50.0542ZM47.3868 47.1064L48.3521 46.8453C48.0931 45.8878 47.856 44.9383 47.6408 43.9968L46.6659 44.2196L45.6911 44.4425C45.9123 45.4103 46.1558 46.3853 46.4215 47.3675L47.3868 47.1064ZM46.6659 44.2196L47.6408 43.9968C47.4163 43.0147 47.1508 42.0443 46.8444 41.0857L45.8919 41.3901L44.9394 41.6945C45.2286 42.5993 45.4791 43.5153 45.6911 44.4425L46.6659 44.2196ZM45.8919 41.3901L46.8444 41.0857C46.5386 40.1287 46.1938 39.1812 45.8103 38.2431L44.8847 38.6216L43.9591 39.0001C44.3229 39.89 44.6497 40.7881 44.9394 41.6945L45.8919 41.3901ZM44.8847 38.6216L45.8103 38.2431C45.4218 37.2931 44.9776 36.3647 44.4777 35.4582L43.602 35.941L42.7263 36.4238C43.1892 37.2634 43.6001 38.1222 43.9591 39.0001L44.8847 38.6216ZM43.602 35.941L44.4777 35.4582C43.9359 34.4754 43.235 33.6307 42.3772 32.9318L41.7456 33.7071L41.1139 34.4824C41.7686 35.0158 42.3054 35.6604 42.7263 36.4238L43.602 35.941ZM41.7456 33.7071L42.3772 32.9318C41.5554 32.2623 40.6584 31.703 39.6881 31.2546L39.2686 32.1623L38.849 33.07C39.669 33.449 40.4233 33.9197 41.1139 34.4824L41.7456 33.7071ZM39.2686 32.1623L39.6881 31.2546C38.7035 30.7994 37.6691 30.4956 36.5883 30.3433L36.4487 31.3335L36.3092 32.3237C37.1979 32.449 38.0435 32.6977 38.849 33.07L39.2686 32.1623ZM36.4487 31.3335L36.5883 30.3433C35.5625 30.1987 34.5347 30.1186 33.5052 30.103L33.49 31.1029L33.4749 32.1028C34.4206 32.1171 35.3653 32.1907 36.3092 32.3237L36.4487 31.3335ZM33.49 31.1029L33.5052 30.103C32.4726 30.0873 31.4381 30.1411 30.4019 30.264L30.5197 31.257L30.6375 32.2501C31.5865 32.1375 32.5322 32.0885 33.4749 32.1028L33.49 31.1029ZM30.5197 31.257L30.4019 30.264C29.3529 30.3884 28.3228 30.6008 27.3123 30.901L27.597 31.8596L27.8818 32.8182C28.7829 32.5505 29.7013 32.3611 30.6375 32.2501L30.5197 31.257ZM27.597 31.8596L27.3123 30.901C26.3479 31.1874 25.3876 31.4868 24.4313 31.7989L24.7417 32.7496L25.052 33.7002C25.9913 33.3936 26.9345 33.0996 27.8818 32.8182L27.597 31.8596ZM24.7417 32.7496L24.4313 31.7989C23.4764 32.1107 22.527 32.4326 21.5833 32.7646L21.9152 33.708L22.2471 34.6513C23.1765 34.3243 24.1114 34.0072 25.052 33.7002L24.7417 32.7496ZM21.9152 33.708L21.5833 32.7646C20.6464 33.0943 20.0022 33.3184 19.6459 33.4387L19.9658 34.3861L20.2858 35.3336C20.6555 35.2087 21.3109 34.9807 22.2471 34.6513L21.9152 33.708ZM19.9658 34.3861L19.6393 33.441L19.1905 33.596L19.5171 34.5412L19.8436 35.4864L20.2924 35.3313L19.9658 34.3861ZM19.5171 34.5412L19.2289 33.5836L19.1331 33.6124L19.4213 34.57L19.7095 35.5276L19.8053 35.4988L19.5171 34.5412Z" fill="#1F724B"/>
<path d="M18.9982 35.6203C19.49 35.3691 19.6851 34.7668 19.4339 34.2749C19.1827 33.7831 18.5804 33.588 18.0885 33.8392L18.5433 34.7298L18.9982 35.6203ZM18.4543 34.7752L18.7081 35.7425C18.7777 35.7242 18.8451 35.6985 18.9091 35.6658L18.4543 34.7752ZM12.3197 43.945L12.1683 42.9565L12.3197 43.945ZM15.3496 37.7554L15.0541 38.7107L15.3496 37.7554ZM13.6627 37.4446L13.7687 38.439L13.6627 37.4446ZM13.1255 37.6561L12.1431 37.4692C12.1169 37.6069 12.12 37.7485 12.152 37.8848L13.1255 37.6561ZM13.1763 37.8724L12.5868 38.6802C12.9247 38.9268 13.3804 38.937 13.729 38.7059C14.0776 38.4747 14.2455 38.0509 14.1498 37.6437L13.1763 37.8724ZM13.6851 37.0057C13.239 36.6802 12.6134 36.7779 12.2878 37.224C11.9622 37.6701 12.0599 38.2957 12.506 38.6213L13.0956 37.8135L13.6851 37.0057ZM18.5433 34.7298L18.0885 33.8392L17.9994 33.8847L18.4543 34.7752L18.9091 35.6658L18.9982 35.6203L18.5433 34.7298ZM18.4543 34.7752L18.2004 33.808C16.2944 34.3082 14.7999 34.8908 13.8325 35.6034L14.4255 36.4086L15.0186 37.2137C15.6711 36.7331 16.8625 36.2268 18.7081 35.7425L18.4543 34.7752ZM14.4255 36.4086L13.8325 35.6034C13.058 36.1739 12.2426 36.6957 11.3859 37.1689L11.8694 38.0443L12.3528 38.9196C13.2844 38.4051 14.1732 37.8365 15.0186 37.2137L14.4255 36.4086ZM11.8694 38.0443L11.3859 37.1689C10.2447 37.7992 9.50315 38.7771 9.20734 40.0455L10.1812 40.2726L11.1551 40.4997C11.3218 39.7848 11.7057 39.2771 12.3528 38.9196L11.8694 38.0443ZM10.1812 40.2726L9.20734 40.0455C8.93523 41.2123 8.99454 42.3345 9.44838 43.3649L10.3636 42.9618L11.2787 42.5588C11.0269 41.987 10.9646 41.3163 11.1551 40.4997L10.1812 40.2726ZM10.3636 42.9618L9.44838 43.3649C9.69901 43.9339 10.0951 44.4139 10.6681 44.7019C11.2306 44.9847 11.855 45.0278 12.471 44.9335L12.3197 43.945L12.1683 42.9565C11.8331 43.0079 11.6559 42.96 11.5663 42.915C11.4873 42.8753 11.3809 42.7908 11.2787 42.5588L10.3636 42.9618ZM12.3197 43.945L12.471 44.9335C13.4462 44.7842 14.4375 44.596 15.4447 44.3693L15.2251 43.3937L15.0055 42.4182C14.0412 42.6352 13.0955 42.8146 12.1683 42.9565L12.3197 43.945ZM15.2251 43.3937L15.4447 44.3693C16.6358 44.1012 17.6483 43.5016 18.4558 42.586L17.7058 41.9246L16.9558 41.2631C16.427 41.8627 15.7858 42.2425 15.0055 42.4182L15.2251 43.3937ZM17.7058 41.9246L18.4558 42.586C19.143 41.8068 19.7915 41.0038 20.4012 40.1769L19.5963 39.5835L18.7914 38.99C18.2167 39.7694 17.6049 40.5271 16.9558 41.2631L17.7058 41.9246ZM19.5963 39.5835L20.4012 40.1769C21.1276 39.1916 21.4754 38.0666 21.4376 36.8384L20.438 36.8692L19.4385 36.9C19.4627 37.6846 19.2493 38.369 18.7914 38.99L19.5963 39.5835ZM20.438 36.8692L21.4376 36.8384C21.4034 35.7284 21.182 34.7352 20.6937 33.9347L19.84 34.4554L18.9863 34.9761C19.2334 35.3812 19.4107 35.9973 19.4385 36.9L20.438 36.8692ZM19.84 34.4554L20.6937 33.9347C20.0414 32.8651 18.8789 32.5904 17.684 32.7231L17.7944 33.717L17.9047 34.7109C18.7019 34.6224 18.9032 34.84 18.9863 34.9761L19.84 34.4554ZM17.7944 33.717L17.684 32.7231C16.6091 32.8425 15.5599 33.0871 14.5379 33.4564L14.8778 34.3969L15.2176 35.3374C16.0923 35.0213 16.9874 34.8127 17.9047 34.7109L17.7944 33.717ZM14.8778 34.3969L14.5379 33.4564C13.4382 33.8539 12.4934 34.4844 11.7184 35.3438L12.461 36.0135L13.2037 36.6832C13.7544 36.0725 14.4208 35.6254 15.2176 35.3374L14.8778 34.3969ZM12.461 36.0135L11.7184 35.3438C10.8954 36.2564 10.4743 37.3331 10.5205 38.5343L11.5198 38.4959L12.5191 38.4574C12.4945 37.8188 12.7009 37.2407 13.2037 36.6832L12.461 36.0135ZM11.5198 38.4959L10.5205 38.5343C10.5449 39.167 10.7514 39.8455 11.3568 40.282C11.9304 40.6955 12.6337 40.7215 13.2561 40.6239L13.1011 39.636L12.9462 38.6481C12.76 38.6773 12.6396 38.6745 12.5703 38.6646C12.5052 38.6554 12.503 38.6428 12.5265 38.6597C12.554 38.6795 12.5616 38.6998 12.5563 38.6874C12.5474 38.6668 12.5245 38.599 12.5191 38.4574L11.5198 38.4959ZM13.1011 39.636L13.2561 40.6239C14.371 40.4491 15.3478 40.1184 16.1369 39.5883L15.5793 38.7582L15.0216 37.9281C14.5442 38.2488 13.8689 38.5034 12.9462 38.6481L13.1011 39.636ZM15.5793 38.7582L16.1369 39.5883C16.3394 39.4523 16.5604 39.2757 16.7277 39.0474C16.9019 38.8097 17.0771 38.4262 16.9715 37.9652C16.8722 37.5315 16.5759 37.2667 16.3624 37.1238C16.1413 36.9758 15.8868 36.8748 15.645 36.8L15.3496 37.7554L15.0541 38.7107C15.2056 38.7576 15.2554 38.7895 15.2501 38.7859C15.2443 38.782 15.2059 38.7559 15.1598 38.6994C15.1111 38.6396 15.0522 38.5434 15.022 38.4117C14.9547 38.1179 15.0795 37.913 15.1145 37.8652C15.1426 37.8268 15.1358 37.8515 15.0216 37.9281L15.5793 38.7582ZM15.3496 37.7554L15.645 36.8C14.8626 36.558 14.1214 36.3901 13.5568 36.4503L13.6627 37.4446L13.7687 38.439C13.8804 38.4271 14.2638 38.4663 15.0541 38.7107L15.3496 37.7554ZM13.6627 37.4446L13.5568 36.4503C13.3555 36.4717 13.122 36.51 12.9085 36.594C12.7518 36.6557 12.2553 36.8796 12.1431 37.4692L13.1255 37.6561L14.1079 37.843C14.0622 38.0834 13.9321 38.2454 13.8315 38.3341C13.7395 38.4151 13.6599 38.4476 13.641 38.455C13.6067 38.4686 13.6318 38.4536 13.7687 38.439L13.6627 37.4446ZM13.1255 37.6561L12.152 37.8848L12.2028 38.1012L13.1763 37.8724L14.1498 37.6437L14.099 37.4274L13.1255 37.6561ZM13.1763 37.8724L13.7659 37.0647L13.6851 37.0057L13.0956 37.8135L12.506 38.6213L12.5868 38.6802L13.1763 37.8724Z" fill="#1F724B"/>
<path d="M43.0538 32.6107C42.9087 32.0779 42.3591 31.7635 41.8262 31.9087C41.2933 32.0538 40.979 32.6034 41.1241 33.1363L42.089 32.8735L43.0538 32.6107ZM42.1153 32.97L43.1153 32.9748C43.1157 32.8844 43.1039 32.7944 43.0801 32.7072L42.1153 32.97ZM44.0316 39.842L43.2864 40.5088L44.0316 39.842ZM48.5178 41.4532L47.7815 40.7766L48.5178 41.4532ZM49.8831 39.0134L48.9263 38.7228L49.8831 39.0134ZM49.9947 36.1198L49.0178 36.3335L49.9947 36.1198ZM49.0472 33.3388L48.1447 33.7694L49.0472 33.3388ZM44.6357 33.4909L43.8354 32.8914L44.6357 33.4909ZM47.1672 36.5093L46.1921 36.2873L47.1672 36.5093ZM47.0048 34.1443L46.7042 33.1905L47.0048 34.1443ZM46.0817 36.0319L45.105 36.2464L46.0817 36.0319ZM49.2806 38.4836L48.4517 37.9242L49.2806 38.4836ZM48.9502 37.1036L49.457 36.2416L48.9502 37.1036ZM48.156 36.4103L48.9858 36.9683C49.0471 36.8772 49.093 36.7766 49.1215 36.6706L48.156 36.4103ZM48.184 36.3064L47.5996 35.4949C47.413 35.6294 47.2784 35.824 47.2185 36.046L48.184 36.3064ZM48.8496 37.0594C49.2978 36.7366 49.3994 36.1117 49.0766 35.6635C48.7538 35.2154 48.1289 35.1137 47.6807 35.4365L48.2652 36.2479L48.8496 37.0594ZM42.089 32.8735L41.1241 33.1363L41.1504 33.2328L42.1153 32.97L43.0801 32.7072L43.0538 32.6107L42.089 32.8735ZM42.1153 32.97L41.1153 32.9652C41.1058 34.9409 41.2591 36.5273 41.6328 37.6427L42.581 37.3251L43.5292 37.0074C43.2632 36.2133 43.106 34.8964 43.1153 32.9748L42.1153 32.97ZM42.581 37.3251L41.6328 37.6427C41.9942 38.7215 42.5451 39.6804 43.2864 40.5088L44.0316 39.842L44.7768 39.1751C44.2237 38.5571 43.8075 37.8381 43.5292 37.0074L42.581 37.3251ZM44.0316 39.842L43.2864 40.5088C44.0033 41.3099 44.8365 41.9923 45.7815 42.5561L46.2939 41.6974L46.8063 40.8386C46.0293 40.375 45.3543 39.8205 44.7768 39.1751L44.0316 39.842ZM46.2939 41.6974L45.7815 42.5561C46.3351 42.8865 46.9539 43.0871 47.6047 43.0157C48.2683 42.9428 48.8191 42.6033 49.2541 42.1299L48.5178 41.4532L47.7815 40.7766C47.5949 40.9797 47.4642 41.0191 47.3865 41.0276C47.2959 41.0376 47.1136 41.022 46.8063 40.8386L46.2939 41.6974ZM48.5178 41.4532L49.2541 42.1299C49.9854 41.3342 50.5114 40.3859 50.84 39.304L49.8831 39.0134L48.9263 38.7228C48.6778 39.5411 48.2936 40.2194 47.7815 40.7766L48.5178 41.4532ZM49.8831 39.0134L50.84 39.304C51.1787 38.1888 51.2219 37.0505 50.9716 35.9061L49.9947 36.1198L49.0178 36.3335C49.1958 37.1471 49.1646 37.938 48.9263 38.7228L49.8831 39.0134ZM49.9947 36.1198L50.9716 35.9061C50.7415 34.8546 50.4013 33.8546 49.9498 32.9082L49.0472 33.3388L48.1447 33.7694C48.528 34.5728 48.8194 35.4268 49.0178 36.3335L49.9947 36.1198ZM49.0472 33.3388L49.9498 32.9082C49.6705 32.3229 49.2601 31.8304 48.6886 31.5188C48.1188 31.2081 47.4816 31.1278 46.8362 31.202L46.9503 32.1954L47.0645 33.1889C47.3995 33.1504 47.6021 33.2043 47.7312 33.2747C47.8587 33.3443 48.0065 33.4798 48.1447 33.7694L49.0472 33.3388ZM46.9503 32.1954L46.8362 31.202C45.5984 31.3442 44.5721 31.9078 43.8354 32.8914L44.6357 33.4909L45.4361 34.0905C45.8245 33.572 46.3413 33.272 47.0645 33.1889L46.9503 32.1954ZM44.6357 33.4909L43.8354 32.8914C43.1126 33.8563 42.8238 34.9803 42.9489 36.203L43.9437 36.1012L44.9385 35.9993C44.8612 35.2438 45.0337 34.6277 45.4361 34.0905L44.6357 33.4909ZM43.9437 36.1012L42.9489 36.203C43.0146 36.8441 43.2287 37.4659 43.6983 37.9375C44.1757 38.4168 44.7982 38.6222 45.4414 38.6552L45.4927 37.6565L45.5439 36.6578C45.2558 36.6431 45.1544 36.5653 45.1155 36.5262C45.0688 36.4793 44.9742 36.3473 44.9385 35.9993L43.9437 36.1012ZM45.4927 37.6565L45.4414 38.6552C46.0446 38.6862 46.6576 38.585 47.175 38.2305C47.7072 37.8659 48.0075 37.3233 48.1422 36.7312L47.1672 36.5093L46.1921 36.2873C46.1419 36.5079 46.0706 36.5628 46.0446 36.5806C46.0038 36.6086 45.8721 36.6747 45.5439 36.6578L45.4927 37.6565ZM47.1672 36.5093L48.1422 36.7312C48.2392 36.3053 48.3076 35.9273 48.3368 35.6112C48.3605 35.3548 48.3831 34.9388 48.2193 34.5757L47.3078 34.987L46.3962 35.3982C46.3486 35.2925 46.3503 35.2264 46.3523 35.2583C46.3535 35.2788 46.3541 35.3317 46.3453 35.4273C46.3276 35.6187 46.2801 35.9006 46.1921 36.2873L47.1672 36.5093ZM47.3078 34.987L48.2193 34.5757C48.2089 34.5526 48.1199 34.3365 47.913 34.1661C47.789 34.0639 47.4881 33.872 47.0753 33.9515C46.6824 34.0272 46.4798 34.2955 46.4092 34.4069C46.2789 34.6124 46.253 34.8218 46.2484 34.853C46.2366 34.9319 46.2317 35.0094 46.2292 35.0726C46.2195 35.3164 46.2352 35.6924 46.2661 36.1604L47.2639 36.0946L48.2618 36.0288C48.2306 35.5561 48.2226 35.2772 48.2276 35.1517C48.2287 35.1227 48.2298 35.1257 48.2265 35.1481C48.2248 35.1594 48.2198 35.1911 48.2077 35.2342C48.1984 35.2675 48.1695 35.3655 48.0982 35.4779C48.0342 35.5789 47.8389 35.8412 47.4537 35.9154C47.0488 35.9934 46.7563 35.8045 46.6413 35.7097C46.5257 35.6145 46.4633 35.5173 46.4433 35.4853C46.4169 35.443 46.4017 35.4103 46.3962 35.3982L47.3078 34.987ZM47.2639 36.0946L46.2661 36.1604C46.347 37.3873 46.8933 38.4169 47.8551 39.1961L48.4846 38.4191L49.114 37.6421C48.5724 37.2033 48.3049 36.6833 48.2618 36.0288L47.2639 36.0946ZM48.4846 38.4191L47.8551 39.1961C48.0913 39.3874 48.3654 39.5675 48.6707 39.6706C48.9898 39.7783 49.3964 39.8167 49.8014 39.6289C50.1942 39.4469 50.426 39.1254 50.56 38.8417C50.693 38.5599 50.765 38.2439 50.8061 37.9338L49.8148 37.8025L48.8234 37.6712C48.8108 37.7666 48.7961 37.8403 48.7818 37.8953C48.7673 37.951 48.7554 37.9794 48.7513 37.9879C48.7407 38.0105 48.7893 37.8937 48.9604 37.8144C49.044 37.7756 49.1271 37.7608 49.1965 37.7606C49.2619 37.7603 49.3022 37.7729 49.3104 37.7756C49.3181 37.7782 49.3042 37.7744 49.267 37.7521C49.2305 37.7301 49.1796 37.6952 49.114 37.6421L48.4846 38.4191ZM49.8148 37.8025L50.8061 37.9338C50.9739 36.6669 50.6874 35.4852 49.9566 34.4386L49.1367 35.0112L48.3168 35.5837C48.7603 36.2189 48.9258 36.898 48.8234 37.6712L49.8148 37.8025ZM49.1367 35.0112L49.9566 34.4386C49.5888 33.912 49.125 33.4753 48.54 33.2375C47.9391 32.9931 47.3104 32.9994 46.7042 33.1905L47.0048 34.1443L47.3055 35.098C47.5333 35.0262 47.677 35.0455 47.7867 35.0901C47.9123 35.1412 48.0974 35.2694 48.3168 35.5837L49.1367 35.0112ZM47.0048 34.1443L46.7042 33.1905C46.0951 33.3826 45.5529 33.755 45.2502 34.3741C44.9608 34.9658 44.9686 35.6253 45.105 36.2464L46.0817 36.0319L47.0584 35.8174C46.9762 35.443 47.0285 35.2902 47.0468 35.2527C47.0518 35.2425 47.0806 35.1689 47.3055 35.098L47.0048 34.1443ZM46.0817 36.0319L45.105 36.2464C45.3709 37.457 45.9836 38.4622 46.9405 39.2148L47.5587 38.4288L48.1769 37.6428C47.6018 37.1905 47.2299 36.5978 47.0584 35.8174L46.0817 36.0319ZM47.5587 38.4288L46.9405 39.2148C47.3859 39.5651 47.9283 39.8746 48.5319 39.8938C49.2317 39.9161 49.7686 39.5481 50.1095 39.043L49.2806 38.4836L48.4517 37.9242C48.4217 37.9686 48.4198 37.9544 48.461 37.9308C48.5092 37.9032 48.5621 37.8938 48.5955 37.8948C48.6188 37.8956 48.5964 37.9003 48.5175 37.8637C48.4387 37.8272 48.3255 37.7597 48.1769 37.6428L47.5587 38.4288ZM49.2806 38.4836L50.1095 39.043C50.3865 38.6325 50.6018 38.0863 50.4569 37.4813C50.3137 36.883 49.8806 36.4906 49.457 36.2416L48.9502 37.1036L48.4434 37.9657C48.484 37.9896 48.5123 38.0096 48.5311 38.0245C48.5403 38.0318 48.5468 38.0376 48.551 38.0416C48.5553 38.0456 48.5571 38.0476 48.557 38.0476C48.5568 38.0473 48.5492 38.0385 48.5394 38.0203C48.5293 38.0016 48.519 37.9767 48.5119 37.947C48.5048 37.9172 48.5024 37.8891 48.503 37.8651C48.5036 37.8418 48.507 37.8271 48.5081 37.8229C48.5091 37.8191 48.5077 37.8258 48.4992 37.8436C48.4906 37.8615 48.4759 37.8883 48.4517 37.9242L49.2806 38.4836ZM48.9502 37.1036L49.457 36.2416C49.1679 36.0716 49.0172 35.9635 48.9577 35.9115C48.9197 35.8783 48.9756 35.9169 49.0351 36.0221C49.0677 36.0798 49.1267 36.2015 49.1411 36.3734C49.1571 36.5657 49.1127 36.7797 48.9858 36.9683L48.156 36.4103L47.3262 35.8522C47.0008 36.336 47.187 36.8172 47.2943 37.0068C47.4019 37.1969 47.5479 37.3356 47.6423 37.418C47.8474 37.5972 48.1302 37.7816 48.4434 37.9657L48.9502 37.1036ZM48.156 36.4103L49.1215 36.6706L49.1495 36.5667L48.184 36.3064L47.2185 36.046L47.1905 36.1499L48.156 36.4103ZM48.184 36.3064L48.7685 37.1178L48.8496 37.0594L48.2652 36.2479L47.6807 35.4365L47.5996 35.4949L48.184 36.3064Z" fill="#1F724B"/>
<path d="M24.9392 39.1093C24.4095 39.2656 24.1068 39.8218 24.2632 40.3515C24.4195 40.8812 24.9756 41.1838 25.5053 41.0275L25.2223 40.0684L24.9392 39.1093ZM25.3182 40.0401L26.2998 39.8493C26.2461 39.5728 26.0782 39.3317 25.8374 39.1855C25.5966 39.0392 25.3053 39.0013 25.0351 39.081L25.3182 40.0401ZM25.8512 40.7629L25.0916 40.1125L25.8512 40.7629ZM26.0331 39.8498L25.9138 38.857C25.8886 38.86 25.8634 38.864 25.8385 38.869L26.0331 39.8498ZM25.8188 39.8924L25.5357 38.9333C25.023 39.0846 24.7199 39.6124 24.8478 40.1315C24.9756 40.6506 25.489 40.9773 26.0134 40.8733L25.8188 39.8924ZM26.1977 40.8232C26.7274 40.6669 27.0301 40.1107 26.8738 39.581C26.7175 39.0513 26.1613 38.7486 25.6316 38.905L25.9147 39.8641L26.1977 40.8232ZM25.2223 40.0684L25.5053 41.0275L25.6012 40.9992L25.3182 40.0401L25.0351 39.081L24.9392 39.1093L25.2223 40.0684ZM25.3182 40.0401L24.3365 40.2309C24.3768 40.4381 24.424 40.6341 24.4815 40.8089C24.5346 40.9705 24.6166 41.1773 24.7531 41.3625C24.884 41.54 25.1997 41.8684 25.7188 41.8576C26.196 41.8476 26.4926 41.5513 26.6108 41.4133L25.8512 40.7629L25.0916 40.1125C25.1032 40.099 25.2976 39.8659 25.6771 39.858C26.0984 39.8492 26.3208 40.1185 26.3628 40.1755C26.4105 40.2402 26.4081 40.2654 26.3813 40.1839C26.3589 40.1158 26.3306 40.0076 26.2998 39.8493L25.3182 40.0401ZM25.8512 40.7629L26.6108 41.4133C26.8723 41.1079 27.1808 40.6456 27.1607 40.0772L26.1614 40.1124L25.162 40.1476C25.1581 40.0382 25.1887 39.9776 25.1861 39.983C25.1854 39.9845 25.1793 39.9967 25.1635 40.02C25.1478 40.0431 25.1246 40.0739 25.0916 40.1125L25.8512 40.7629ZM26.1614 40.1124L27.1607 40.0772C27.1562 39.9481 27.1391 39.7073 27.023 39.4696C26.9589 39.3384 26.8395 39.1564 26.6253 39.0191C26.3946 38.8712 26.1394 38.8299 25.9138 38.857L26.0331 39.8498L26.1525 40.8427C25.9664 40.8651 25.7461 40.8311 25.5458 40.7027C25.362 40.5849 25.2685 40.4346 25.2258 40.3471C25.1525 40.197 25.16 40.0922 25.162 40.1476L26.1614 40.1124ZM26.0331 39.8498L25.8385 38.869L25.6241 38.9115L25.8188 39.8924L26.0134 40.8733L26.2278 40.8307L26.0331 39.8498ZM25.8188 39.8924L26.1018 40.8515L26.1977 40.8232L25.9147 39.8641L25.6316 38.905L25.5357 38.9333L25.8188 39.8924Z" fill="#1F724B"/>
<path d="M35.5558 39.0868C35.2569 38.6224 34.6381 38.4882 34.1737 38.7871C33.7093 39.0861 33.5752 39.7049 33.8741 40.1693L34.7149 39.628L35.5558 39.0868ZM34.7691 39.7121L35.444 40.4499C35.8036 40.121 35.8737 39.5807 35.6099 39.1708L34.7691 39.7121ZM35.3579 40.5485L36.3562 40.4903C36.3508 40.3982 36.3327 40.3074 36.3025 40.2203L35.3579 40.5485ZM35.3629 40.6347L34.3646 40.6929C34.3746 40.8648 34.4289 41.0312 34.522 41.1759L35.3629 40.6347ZM34.5762 41.26C34.8751 41.7244 35.4939 41.8585 35.9583 41.5596C36.4227 41.2607 36.5568 40.6419 36.2579 40.1775L35.417 40.7188L34.5762 41.26ZM34.7149 39.628L33.8741 40.1693L33.9282 40.2533L34.7691 39.7121L35.6099 39.1708L35.5558 39.0868L34.7149 39.628ZM34.7691 39.7121L34.0941 38.9743C33.9453 39.1104 33.8055 39.2528 33.6884 39.3997C33.5785 39.5377 33.4476 39.73 33.3729 39.9662C33.2923 40.2209 33.2605 40.596 33.4783 40.96C33.679 41.2955 33.9877 41.4431 34.1864 41.509L34.501 40.5597L34.8155 39.6105C34.8531 39.623 35.0522 39.6952 35.1946 39.9334C35.3542 40.2001 35.3156 40.4558 35.2798 40.5693C35.2497 40.6642 35.215 40.6933 35.2526 40.6461C35.2831 40.6078 35.3424 40.5429 35.444 40.4499L34.7691 39.7121ZM34.501 40.5597L34.1864 41.509C34.399 41.5794 34.6539 41.6415 34.9194 41.6371C35.193 41.6325 35.5778 41.5518 35.8774 41.2263L35.1415 40.5491L34.4057 39.872C34.6005 39.6603 34.8262 39.6383 34.8862 39.6373C34.9382 39.6365 34.9252 39.6469 34.8155 39.6105L34.501 40.5597ZM35.1415 40.5491L35.8774 41.2263C35.8704 41.2339 35.83 41.2777 35.7559 41.3254C35.6871 41.3699 35.5191 41.4629 35.277 41.4636C34.9973 41.4643 34.763 41.3422 34.6096 41.1864C34.48 41.0547 34.4295 40.9234 34.4133 40.8768L35.3579 40.5485L36.3025 40.2203C36.2486 40.0654 35.986 39.4616 35.2715 39.4636C34.9933 39.4643 34.7852 39.5717 34.6721 39.6446C34.5538 39.7209 34.4651 39.8074 34.4057 39.872L35.1415 40.5491ZM35.3579 40.5485L34.3596 40.6068L34.3646 40.6929L35.3629 40.6347L36.3612 40.5764L36.3562 40.4903L35.3579 40.5485ZM35.3629 40.6347L34.522 41.1759L34.5762 41.26L35.417 40.7188L36.2579 40.1775L36.2038 40.0934L35.3629 40.6347Z" fill="#1F724B"/>
<path d="M24.7406 48.4013C24.9364 47.8849 24.6766 47.3076 24.1602 47.1117C23.6438 46.9159 23.0664 47.1758 22.8706 47.6922L23.8056 48.0468L24.7406 48.4013ZM23.7701 48.1403L24.6554 48.6054C24.6742 48.5696 24.6908 48.5327 24.7052 48.4948L23.7701 48.1403ZM28.0183 57.2855L27.826 56.3041L28.0183 57.2855ZM30.3621 55.8323L29.5741 55.2167L30.3621 55.8323ZM31.739 53.2347L30.7874 52.9272L31.739 53.2347ZM38.7199 48.645L39.4601 47.9726C39.2332 47.7228 38.8955 47.6043 38.5621 47.6575L38.7199 48.645ZM38.7906 48.7228L38.0503 49.3952C38.2874 49.6562 38.6445 49.7731 38.9901 49.7027C39.3356 49.6324 39.6186 49.3852 39.7347 49.0523L38.7906 48.7228ZM39.7677 48.9579C39.9496 48.4364 39.6744 47.8662 39.153 47.6842C38.6315 47.5023 38.0613 47.7775 37.8793 48.299L38.8235 48.6284L39.7677 48.9579ZM23.8056 48.0468L22.8706 47.6922L22.8351 47.7857L23.7701 48.1403L24.7052 48.4948L24.7406 48.4013L23.8056 48.0468ZM23.7701 48.1403L22.8849 47.6751C22.0031 49.3534 21.2921 50.5833 20.7479 51.3862L21.5757 51.9472L22.4034 52.5083C23.0109 51.612 23.7629 50.3039 24.6554 48.6054L23.7701 48.1403ZM21.5757 51.9472L20.7479 51.3862C20.0257 52.4517 19.7693 53.651 19.9805 54.9283L20.9671 54.7652L21.9537 54.6021C21.8246 53.8213 21.9739 53.142 22.4034 52.5083L21.5757 51.9472ZM20.9671 54.7652L19.9805 54.9283C20.1958 56.2308 20.8686 57.2566 22.0021 57.8897L22.4897 57.0166L22.9773 56.1435C22.4209 55.8328 22.0786 55.3577 21.9537 54.6021L20.9671 54.7652ZM22.4897 57.0166L22.0021 57.8897C23.0087 58.4518 24.0915 58.7072 25.2302 58.6433L25.1741 57.6448L25.118 56.6464C24.3673 56.6886 23.6605 56.5251 22.9773 56.1435L22.4897 57.0166ZM25.1741 57.6448L25.2302 58.6433C26.2218 58.5876 27.2154 58.4619 28.2107 58.2668L28.0183 57.2855L27.826 56.3041C26.9184 56.4821 26.0159 56.596 25.118 56.6464L25.1741 57.6448ZM28.0183 57.2855L28.2107 58.2668C29.4044 58.0328 30.3949 57.4148 31.1502 56.4478L30.3621 55.8323L29.5741 55.2167C29.1072 55.8143 28.5352 56.1651 27.826 56.3041L28.0183 57.2855ZM30.3621 55.8323L31.1502 56.4478C31.8338 55.5728 32.3479 54.6025 32.6905 53.5422L31.739 53.2347L30.7874 52.9272C30.5164 53.7657 30.1126 54.5272 29.5741 55.2167L30.3621 55.8323ZM31.739 53.2347L32.6905 53.5422C33.0122 52.5468 33.2621 51.5277 33.4403 50.4855L32.4546 50.317L31.4689 50.1485C31.3066 51.0977 31.0794 52.0238 30.7874 52.9272L31.739 53.2347ZM32.4546 50.317L33.4403 50.4855C33.5343 49.9356 33.5644 49.3286 33.3494 48.8082C33.2322 48.5244 33.0377 48.2575 32.7465 48.066C32.4599 47.8775 32.1463 47.8056 31.8573 47.7966L31.8263 48.7961L31.7954 49.7956C31.8009 49.7958 31.7343 49.7941 31.6474 49.7369C31.5558 49.6766 31.5135 49.6022 31.5009 49.5718C31.4928 49.5522 31.5086 49.5801 31.5114 49.688C31.5141 49.7928 31.5039 49.9435 31.4689 50.1485L32.4546 50.317ZM31.8263 48.7961L31.8573 47.7966C31.2504 47.7778 30.7188 48.0243 30.3295 48.471C29.975 48.8776 29.7711 49.4092 29.6463 49.9563L30.6213 50.1786L31.5963 50.4009C31.6858 50.0081 31.7899 49.8393 31.8371 49.7851C31.8543 49.7654 31.8521 49.7743 31.8276 49.7853C31.8019 49.7967 31.7858 49.7953 31.7954 49.7956L31.8263 48.7961ZM30.6213 50.1786L29.6463 49.9563C29.3897 51.0817 29.4627 52.1741 29.9001 53.1965L30.8195 52.8032L31.7389 52.4099C31.4834 51.8127 31.4242 51.1554 31.5963 50.4009L30.6213 50.1786ZM30.8195 52.8032L29.9001 53.1965C30.3406 54.2262 31.091 55.0258 32.0986 55.5927L32.5889 54.7212L33.0793 53.8496C32.4204 53.4789 31.9913 52.9999 31.7389 52.4099L30.8195 52.8032ZM32.5889 54.7212L32.0986 55.5927C33.0873 56.149 34.1527 56.4154 35.2765 56.3816L35.2465 55.382L35.2164 54.3825C34.4633 54.4051 33.7569 54.2309 33.0793 53.8496L32.5889 54.7212ZM35.2465 55.382L35.2765 56.3816C36.4963 56.3449 37.5306 55.8482 38.3015 54.9096L37.5287 54.2749L36.7559 53.6403C36.3608 54.1213 35.8736 54.3627 35.2164 54.3825L35.2465 55.382ZM37.5287 54.2749L38.3015 54.9096C39.0176 54.0376 39.4305 53.0046 39.5535 51.8448L38.559 51.7393L37.5646 51.6339C37.4797 52.4351 37.2056 53.0926 36.7559 53.6403L37.5287 54.2749ZM38.559 51.7393L39.5535 51.8448C39.6593 50.8465 39.7018 50.023 39.6637 49.4036L38.6656 49.465L37.6675 49.5264C37.6953 49.9783 37.6667 50.671 37.5646 51.6339L38.559 51.7393ZM38.6656 49.465L39.6637 49.4036C39.6479 49.1462 39.6476 48.9954 39.6523 48.9243C39.6552 48.8801 39.6569 48.9197 39.6337 48.9956C39.6226 49.0318 39.5881 49.1367 39.5019 49.2539C39.4105 49.3782 39.2103 49.5793 38.8776 49.6325L38.7199 48.645L38.5621 47.6575C38.2122 47.7134 37.9963 47.9255 37.8908 48.0689C37.7904 48.2053 37.7435 48.3376 37.7215 48.4093C37.6764 48.5563 37.6628 48.6998 37.6566 48.7922C37.6433 48.9944 37.6504 49.2482 37.6675 49.5264L38.6656 49.465ZM38.7199 48.645L37.9796 49.3173L38.0503 49.3952L38.7906 48.7228L39.5308 48.0505L39.4601 47.9726L38.7199 48.645ZM38.7906 48.7228L39.7347 49.0523L39.7677 48.9579L38.8235 48.6284L37.8793 48.299L37.8464 48.3934L38.7906 48.7228Z" fill="#1F724B"/>
<path d="M17.1749 48.1065C16.8852 47.6363 16.2691 47.4901 15.799 47.7798C15.3288 48.0696 15.1825 48.6856 15.4723 49.1558L16.3236 48.6311L17.1749 48.1065ZM16.3761 48.7163L17.278 49.1481C17.4249 48.8414 17.4058 48.4811 17.2274 48.1916L16.3761 48.7163ZM16.8953 49.5545L16.1241 50.1911C16.4554 50.5925 17.0392 50.6726 17.4664 50.3754C17.8936 50.0782 18.0214 49.503 17.7603 49.0529L16.8953 49.5545ZM16.8849 49.5419L17.656 48.9053C17.3215 48.5 16.7302 48.4229 16.3029 48.7287C15.8755 49.0346 15.7578 49.6191 16.0336 50.0666L16.8849 49.5419ZM16.086 50.1517C16.3758 50.6219 16.9918 50.7681 17.462 50.4784C17.9322 50.1886 18.0784 49.5726 17.7887 49.1024L16.9373 49.6271L16.086 50.1517ZM16.3236 48.6311L15.4723 49.1558L15.5247 49.2409L16.3761 48.7163L17.2274 48.1916L17.1749 48.1065L16.3236 48.6311ZM16.3761 48.7163L15.4741 48.2845C15.3513 48.5409 15.2338 48.8193 15.1819 49.0737C15.159 49.1857 15.1188 49.4258 15.1947 49.6936C15.2376 49.8446 15.3252 50.0311 15.4966 50.1914C15.6724 50.3561 15.8779 50.4383 16.0636 50.4678L16.2202 49.4801L16.3768 48.4924C16.53 48.5167 16.7087 48.5865 16.8634 48.7314C17.0136 48.872 17.0858 49.0313 17.1189 49.148C17.1505 49.2594 17.1516 49.348 17.1502 49.3912C17.1486 49.4374 17.1428 49.467 17.1415 49.4737C17.1392 49.4847 17.1429 49.4632 17.1681 49.3979C17.1916 49.3366 17.2272 49.2542 17.278 49.1481L16.3761 48.7163ZM16.2202 49.4801L16.0636 50.4678C16.2749 50.5013 16.4881 50.5084 16.7003 50.4943L16.6342 49.4965L16.5681 48.4987C16.4883 48.504 16.4255 48.5002 16.3768 48.4924L16.2202 49.4801ZM16.6342 49.4965L16.7003 50.4943C16.7309 50.4923 16.6816 50.4998 16.5921 50.4799C16.5211 50.4642 16.2211 50.3854 16.0302 50.0562L16.8953 49.5545L17.7603 49.0529C17.5414 48.6753 17.1838 48.5627 17.0259 48.5276C16.8493 48.4883 16.6835 48.491 16.5681 48.4987L16.6342 49.4965ZM16.8953 49.5545L17.6664 48.9179L17.656 48.9053L16.8849 49.5419L16.1137 50.1785L16.1241 50.1911L16.8953 49.5545ZM16.8849 49.5419L16.0336 50.0666L16.086 50.1517L16.9373 49.6271L17.7887 49.1024L17.7362 49.0173L16.8849 49.5419Z" fill="#1F724B"/>
<path d="M45.2172 47.3082C45.2935 46.7612 44.9119 46.2559 44.365 46.1796C43.818 46.1033 43.3127 46.4849 43.2364 47.0318L44.2268 47.17L45.2172 47.3082ZM44.213 47.269L45.1111 47.7089C45.1576 47.6138 45.1888 47.512 45.2034 47.4072L44.213 47.269ZM44.2337 48.5194L43.2812 48.2151L44.2337 48.5194ZM44.1047 48.6518L43.2578 49.1836C43.4155 49.4346 43.6764 49.6028 43.9702 49.6427L44.1047 48.6518ZM44.0355 48.5415L44.8824 48.0098C44.659 47.6539 44.2369 47.4757 43.826 47.5637C43.4152 47.6517 43.1031 47.9872 43.0451 48.4034L44.0355 48.5415ZM43.0313 48.5024C42.955 49.0494 43.3365 49.5547 43.8835 49.631C44.4305 49.7073 44.9358 49.3257 45.0121 48.7787L44.0217 48.6405L43.0313 48.5024ZM44.2268 47.17L43.2364 47.0318L43.2226 47.1309L44.213 47.269L45.2034 47.4072L45.2172 47.3082L44.2268 47.17ZM44.213 47.269L43.3149 46.8292C43.0948 47.2786 42.9488 47.878 43.224 48.4746L44.132 48.0557L45.0401 47.6369C45.056 47.6714 45.0659 47.7062 45.0706 47.738C45.0753 47.7692 45.0742 47.7914 45.0732 47.8014C45.0722 47.8109 45.0714 47.8082 45.0766 47.7918C45.0818 47.7753 45.092 47.7478 45.1111 47.7089L44.213 47.269ZM44.132 48.0557L43.224 48.4746C43.256 48.5441 43.2585 48.5642 43.2545 48.5459C43.2521 48.5349 43.2454 48.5011 43.2447 48.4497C43.244 48.3986 43.2492 48.3153 43.2812 48.2151L44.2337 48.5194L45.1863 48.8238C45.2775 48.5383 45.2431 48.2771 45.208 48.1174C45.1701 47.9446 45.1064 47.7808 45.0401 47.6369L44.132 48.0557ZM44.2337 48.5194L43.2812 48.2151C43.2867 48.1979 43.328 48.0644 43.4623 47.9266C43.537 47.8499 43.6467 47.7658 43.7952 47.7106C43.9472 47.654 44.101 47.6421 44.2393 47.6609L44.1047 48.6518L43.9702 49.6427C44.3473 49.694 44.6783 49.5444 44.8948 49.3222C45.0721 49.1403 45.1502 48.9368 45.1863 48.8238L44.2337 48.5194ZM44.1047 48.6518L44.9517 48.1201L44.8824 48.0098L44.0355 48.5415L43.1886 49.0732L43.2578 49.1836L44.1047 48.6518ZM44.0355 48.5415L43.0451 48.4034L43.0313 48.5024L44.0217 48.6405L45.0121 48.7787L45.0259 48.6797L44.0355 48.5415Z" fill="#1F724B"/>
<path d="M17.8816 33.4783C18.2381 33.9001 18.8691 33.9529 19.2908 33.5963C19.7126 33.2397 19.7654 32.6087 19.4088 32.187L18.6452 32.8327L17.8816 33.4783ZM18.5806 32.7563L17.7581 33.325C17.7764 33.3516 17.7961 33.3773 17.817 33.402L18.5806 32.7563ZM15.8222 29.377L15.1534 30.1205L15.8222 29.377ZM1.00042 19.9772L0.000449121 19.9698C-0.00227559 20.3374 0.196906 20.6769 0.519138 20.8538L1.00042 19.9772ZM1.09608 20.0297L0.810346 20.988C1.30029 21.1341 1.82153 20.8871 2.01871 20.4154C2.21589 19.9437 2.02551 19.3992 1.57736 19.1532L1.09608 20.0297ZM1.28597 19.0428C0.756713 18.885 0.199737 19.1862 0.0419337 19.7154C-0.11587 20.2447 0.185255 20.8017 0.714515 20.9595L1.00024 20.0012L1.28597 19.0428ZM18.6452 32.8327L19.4088 32.187L19.3442 32.1106L18.5806 32.7563L17.817 33.402L17.8816 33.4783L18.6452 32.8327ZM18.5806 32.7563L19.4032 32.1876C18.2969 30.5876 17.3243 29.3832 16.491 28.6336L15.8222 29.377L15.1534 30.1205C15.8088 30.71 16.675 31.7585 17.7581 33.325L18.5806 32.7563ZM15.8222 29.377L16.491 28.6336C15.7743 27.9889 15.1 27.3101 14.4678 26.5972L13.7196 27.2607L12.9714 27.9241C13.654 28.6939 14.3814 29.426 15.1534 30.1205L15.8222 29.377ZM13.7196 27.2607L14.4678 26.5972C13.7908 25.8337 13.0808 25.1013 12.3381 24.4001L11.6516 25.1272L10.9651 25.8543C11.6649 26.515 12.3336 27.2049 12.9714 27.9241L13.7196 27.2607ZM11.6516 25.1272L12.3381 24.4001C11.63 23.7315 10.9348 23.0388 10.2525 22.3221L9.52819 23.0115L8.80387 23.701C9.5103 24.4431 10.2307 25.1609 10.9651 25.8543L11.6516 25.1272ZM9.52819 23.0115L10.2525 22.3221C9.45226 21.4814 8.5027 20.8585 7.41376 20.4607L7.07057 21.3999L6.72738 22.3392C7.52658 22.6312 8.21544 23.0828 8.80387 23.701L9.52819 23.0115ZM7.07057 21.3999L7.41376 20.4607C6.47418 20.1174 5.53373 19.7661 4.59239 19.4069L4.23586 20.3412L3.87932 21.2754C4.82947 21.638 5.77882 21.9926 6.72738 22.3392L7.07057 21.3999ZM4.23586 20.3412L4.59239 19.4069C3.58808 19.0236 2.64789 18.8105 1.82474 18.8801L1.90892 19.8765L1.9931 20.873C2.38106 20.8402 2.99216 20.9369 3.87932 21.2754L4.23586 20.3412ZM1.90892 19.8765L1.82474 18.8801C1.52001 18.9058 1.28234 18.9279 1.11749 18.9462C1.03783 18.955 0.960177 18.9645 0.895937 18.975C0.868825 18.9795 0.814568 18.9887 0.755201 19.0046C0.732649 19.0107 0.658574 19.0307 0.572342 19.072C0.533107 19.0907 0.43596 19.1395 0.333875 19.231C0.246696 19.3091 0.00351226 19.5565 0.000449121 19.9698L1.00042 19.9772L2.00039 19.9846C1.99734 20.3969 1.75475 20.6433 1.66876 20.7203C1.56787 20.8108 1.4725 20.8584 1.43564 20.8761C1.35415 20.915 1.28719 20.9326 1.27411 20.9362C1.23369 20.947 1.20784 20.9506 1.2186 20.9488C1.2301 20.947 1.26602 20.9419 1.33778 20.934C1.47577 20.9187 1.69228 20.8984 1.9931 20.873L1.90892 19.8765ZM1.00042 19.9772L0.519138 20.8538L0.614792 20.9063L1.09608 20.0297L1.57736 19.1532L1.48171 19.1006L1.00042 19.9772ZM1.09608 20.0297L1.3818 19.0714L1.28597 19.0428L1.00024 20.0012L0.714515 20.9595L0.810346 20.988L1.09608 20.0297Z" fill="#1F724B"/>
<path d="M1.71868 17.7918C1.16695 17.7671 0.699681 18.1944 0.675009 18.7461C0.650338 19.2978 1.07761 19.7651 1.62934 19.7898L1.67401 18.7908L1.71868 17.7918ZM1.77391 18.7952L1.72924 19.7943L1.73772 19.7946L1.77391 18.7952ZM21.7189 24.7479L21.4797 25.7189C21.4974 25.7232 21.5152 25.7271 21.533 25.7305L21.7189 24.7479ZM22.1536 24.8301L22.6202 23.9457C22.5321 23.8992 22.4374 23.8661 22.3395 23.8476L22.1536 24.8301ZM21.7754 25.7612C22.2639 26.019 22.8688 25.8319 23.1265 25.3434C23.3842 24.8549 23.1971 24.25 22.7087 23.9923L22.242 24.8768L21.7754 25.7612ZM1.67401 18.7908L1.62934 19.7898L1.72924 19.7942L1.77391 18.7952L1.81858 17.7962L1.71868 17.7918L1.67401 18.7908ZM1.77391 18.7952L1.73772 19.7946C3.66117 19.8642 5.14319 19.8866 6.17114 19.8591L6.14438 18.8594L6.11762 17.8598C5.15402 17.8856 3.7224 17.8651 1.81011 17.7959L1.77391 18.7952ZM6.14438 18.8594L6.17114 19.8591C7.10468 19.8341 8.03275 19.8959 8.95616 20.0445L9.11512 19.0573L9.27407 18.07C8.22804 17.9016 7.17563 17.8315 6.11762 17.8598L6.14438 18.8594ZM9.11512 19.0573L8.95616 20.0445C9.88597 20.1943 10.7954 20.4198 11.685 20.7213L12.006 19.7742L12.3269 18.8271C11.3315 18.4898 10.3137 18.2374 9.27407 18.07L9.11512 19.0573ZM12.006 19.7742L11.685 20.7213C12.6031 21.0324 13.5074 21.3785 14.398 21.7595L14.7913 20.8401L15.1846 19.9207C14.2465 19.5194 13.2939 19.1548 12.3269 18.8271L12.006 19.7742ZM14.7913 20.8401L14.398 21.7595C15.2959 22.1436 16.1834 22.5516 17.0603 22.9834L17.5021 22.0863L17.9439 21.1892C17.0351 20.7417 16.1153 20.3188 15.1846 19.9207L14.7913 20.8401ZM17.5021 22.0863L17.0603 22.9834C17.8885 23.3913 18.6667 23.8848 19.396 24.465L20.0186 23.6824L20.6412 22.8999C19.8008 22.2313 18.9014 21.6607 17.9439 21.1892L17.5021 22.0863ZM20.0186 23.6824L19.396 24.465C19.8048 24.7902 20.1747 25.0598 20.5013 25.2645C20.8112 25.4586 21.1483 25.6372 21.4797 25.7189L21.7189 24.7479L21.9582 23.7769C21.9594 23.7772 21.9261 23.7685 21.8505 23.7321C21.7778 23.6971 21.6828 23.6446 21.5633 23.5697C21.323 23.4192 21.0172 23.199 20.6412 22.8999L20.0186 23.6824ZM21.7189 24.7479L21.533 25.7305L21.9677 25.8127L22.1536 24.8301L22.3395 23.8476L21.9048 23.7653L21.7189 24.7479ZM22.1536 24.8301L21.687 25.7146L21.7754 25.7612L22.242 24.8768L22.7087 23.9923L22.6202 23.9457L22.1536 24.8301Z" fill="#1F724B"/>
<path d="M21.7571 24.7525C21.6965 25.3015 22.0924 25.7956 22.6413 25.8562C23.1902 25.9169 23.6844 25.521 23.745 24.972L22.751 24.8623L21.7571 24.7525ZM22.762 24.7629L21.7882 24.5353C21.7792 24.5742 21.7724 24.6135 21.7681 24.6532L22.762 24.7629ZM23.7811 14.4954L22.8046 14.28L23.7811 14.4954ZM24.1981 8.5469L23.2454 8.24308L24.1981 8.5469ZM27.1612 6.43422L26.3223 6.97855L27.1612 6.43422ZM28.537 9.05879L29.4618 8.67844L28.537 9.05879ZM31.0306 14.3948L32.0199 14.2489L31.0306 14.3948ZM31.2543 17.356L32.2543 17.3516L31.2543 17.356ZM31.2742 21.8619L31.0649 22.8398C31.258 22.8811 31.459 22.8643 31.6426 22.7915L31.2742 21.8619ZM31.436 21.7977L32.4347 21.7471C32.4184 21.4252 32.2479 21.1309 31.9768 20.9566C31.7057 20.7823 31.3672 20.7493 31.0676 20.8681L31.436 21.7977ZM30.4424 21.9483C30.4703 22.4998 30.9401 22.9243 31.4917 22.8963C32.0433 22.8684 32.4678 22.3986 32.4398 21.847L31.4411 21.8976L30.4424 21.9483ZM22.751 24.8623L23.745 24.972L23.756 24.8726L22.762 24.7629L21.7681 24.6532L21.7571 24.7525L22.751 24.8623ZM22.762 24.7629L23.7358 24.9905C24.1786 23.0956 24.4308 21.5793 24.4611 20.4798L23.4615 20.4523L22.4619 20.4248C22.4373 21.3167 22.2232 22.674 21.7882 24.5353L22.762 24.7629ZM23.4615 20.4523L24.4611 20.4798C24.4889 19.4699 24.4951 18.4591 24.4795 17.4474L23.4796 17.4628L22.4798 17.4781C22.4949 18.4612 22.4889 19.4434 22.4619 20.4248L23.4615 20.4523ZM23.4796 17.4628L24.4795 17.4474C24.4654 16.5281 24.5579 15.6164 24.7577 14.7107L23.7811 14.4954L22.8046 14.28C22.5717 15.3361 22.4632 16.4027 22.4798 17.4781L23.4796 17.4628ZM23.7811 14.4954L24.7577 14.7107C24.9987 13.6178 25.0494 12.5109 24.9104 11.3949L23.9181 11.5185L22.9257 11.6421C23.0368 12.5335 22.9962 13.4112 22.8046 14.28L23.7811 14.4954ZM23.9181 11.5185L24.9104 11.3949C24.8036 10.537 24.8825 9.69225 25.1508 8.85072L24.1981 8.5469L23.2454 8.24308C22.8903 9.35639 22.7826 10.4927 22.9257 11.6421L23.9181 11.5185ZM24.1981 8.5469L25.1508 8.85072C25.5061 7.73677 25.6122 6.60155 25.4646 5.45516L24.4728 5.58283L23.481 5.7105C23.5905 6.56137 23.5135 7.40219 23.2454 8.24308L24.1981 8.5469ZM24.4728 5.58283L25.4646 5.45516C25.4381 5.24889 25.4404 5.13042 25.4465 5.07716C25.4543 5.01002 25.458 5.1229 25.3341 5.26208C25.2653 5.33933 25.1732 5.40542 25.0653 5.4462C24.9616 5.48538 24.8739 5.48981 24.8216 5.48703C24.7354 5.48245 24.733 5.45851 24.8463 5.51876L25.3159 4.63589L25.7855 3.75301C25.5535 3.6296 25.257 3.50737 24.9279 3.48986C24.5545 3.47 24.1447 3.59024 23.8403 3.93216C23.5759 4.22916 23.4902 4.58524 23.4599 4.84667C23.4279 5.12198 23.4433 5.41745 23.481 5.7105L24.4728 5.58283ZM25.3159 4.63589L24.8463 5.51876C25.3522 5.78785 25.8509 6.25205 26.3223 6.97855L27.1612 6.43422L28 5.88988C27.3923 4.95328 26.6608 4.21859 25.7855 3.75301L25.3159 4.63589ZM27.1612 6.43422L26.3223 6.97855C26.8282 7.75814 27.258 8.57809 27.6121 9.43914L28.537 9.05879L29.4618 8.67844C29.0607 7.70316 28.5733 6.7734 28 5.88988L27.1612 6.43422ZM28.537 9.05879L27.6121 9.43914C28.017 10.4237 28.5248 11.3594 29.1345 12.2456L29.9583 11.6788L30.7822 11.112C30.2519 10.3411 29.8121 9.5302 29.4618 8.67844L28.537 9.05879ZM29.9583 11.6788L29.1345 12.2456C29.619 12.9499 29.919 13.7116 30.0413 14.5407L31.0306 14.3948L32.0199 14.2489C31.8524 13.1136 31.4376 12.0646 30.7822 11.112L29.9583 11.6788ZM31.0306 14.3948L30.0413 14.5407C30.1792 15.476 30.2502 16.4157 30.2543 17.3603L31.2543 17.356L32.2543 17.3516C32.2498 16.3122 32.1716 15.2779 32.0199 14.2489L31.0306 14.3948ZM31.2543 17.356L30.2543 17.3603C30.2585 18.3336 30.2355 19.308 30.1853 20.2836L31.184 20.335L32.1826 20.3864C32.2348 19.3739 32.2586 18.3622 32.2543 17.3516L31.2543 17.356ZM31.184 20.335L30.1853 20.2836C30.1592 20.7899 30.1515 21.2101 30.1699 21.5213C30.1786 21.6692 30.1958 21.8453 30.2394 22.0095C30.2603 22.0884 30.3019 22.2225 30.389 22.3614C30.4721 22.4939 30.6786 22.7571 31.0649 22.8398L31.2742 21.8619L31.4834 20.884C31.8419 20.9608 32.0231 21.2028 32.0835 21.299C32.1478 21.4016 32.1692 21.4843 32.1725 21.4966C32.1807 21.5277 32.1727 21.5099 32.1664 21.4034C32.1547 21.2056 32.1575 20.8743 32.1826 20.3864L31.184 20.335ZM31.2742 21.8619L31.6426 22.7915L31.8044 22.7274L31.436 21.7977L31.0676 20.8681L30.9057 20.9322L31.2742 21.8619ZM31.436 21.7977L30.4373 21.8484L30.4424 21.9483L31.4411 21.8976L32.4398 21.847L32.4347 21.7471L31.436 21.7977Z" fill="#1F724B"/>
<path d="M30.5281 21.642C30.1955 22.0829 30.2834 22.7099 30.7243 23.0425C31.1653 23.3751 31.7923 23.2872 32.1249 22.8463L31.3265 22.2441L30.5281 21.642ZM31.3867 22.1643L32.1851 22.7664C32.192 22.7573 32.1987 22.748 32.2053 22.7386L31.3867 22.1643ZM34.1171 18.7506L33.4168 18.0368L34.1171 18.7506ZM35.8142 16.2999L34.9006 15.8932L35.8142 16.2999ZM37.5458 13.8694L36.864 13.1379L37.5458 13.8694ZM44.0043 1.54959L43.1793 0.984465C43.1733 0.993286 43.1674 1.0022 43.1616 1.01121L44.0043 1.54959ZM44.3172 1.09275L45.1422 1.65787C45.182 1.5999 45.2154 1.53791 45.2422 1.47291L44.3172 1.09275ZM45.2802 1.38042C45.4901 0.869604 45.2462 0.285299 44.7354 0.0753401C44.2246 -0.134618 43.6403 0.109277 43.4303 0.620096L44.3553 1.00026L45.2802 1.38042ZM31.3265 22.2441L32.1249 22.8463L32.1851 22.7664L31.3867 22.1643L30.5883 21.5621L30.5281 21.642L31.3265 22.2441ZM31.3867 22.1643L32.2053 22.7386C33.2987 21.1801 34.1669 20.1026 34.8173 19.4645L34.1171 18.7506L33.4168 18.0368C32.6327 18.806 31.6806 20.0042 30.5681 21.5899L31.3867 22.1643ZM34.1171 18.7506L34.8173 19.4645C35.6256 18.6716 36.2632 17.7501 36.7277 16.7066L35.8142 16.2999L34.9006 15.8932C34.5369 16.71 34.0431 17.4224 33.4168 18.0368L34.1171 18.7506ZM35.8142 16.2999L36.7277 16.7066C37.0876 15.8984 37.5863 15.1988 38.2277 14.6008L37.5458 13.8694L36.864 13.1379C36.0248 13.9202 35.369 14.841 34.9006 15.8932L35.8142 16.2999ZM37.5458 13.8694L38.2277 14.6008C39.0455 13.8385 39.7216 12.9696 40.2524 11.9967L39.3746 11.5177L38.4968 11.0388C38.0699 11.8211 37.5268 12.52 36.864 13.1379L37.5458 13.8694ZM39.3746 11.5177L40.2524 11.9967C40.7149 11.1492 41.2183 10.3299 41.7626 9.53892L40.9388 8.97202L40.1151 8.40512C39.5315 9.25314 38.992 10.1311 38.4968 11.0388L39.3746 11.5177ZM40.9388 8.97202L41.7626 9.53892C42.3633 8.66602 42.8742 7.74318 43.2947 6.7712L42.377 6.3741L41.4592 5.97701C41.0902 6.82987 40.6423 7.63898 40.1151 8.40512L40.9388 8.97202ZM42.377 6.3741L43.2947 6.7712C43.713 5.80448 44.043 4.80764 44.2846 3.78134L43.3113 3.55219L42.3379 3.32305C42.1233 4.23445 41.8305 5.11888 41.4592 5.97701L42.377 6.3741ZM43.3113 3.55219L44.2846 3.78134C44.5116 2.81729 44.7127 2.29814 44.847 2.08796L44.0043 1.54959L43.1616 1.01121C42.8279 1.53347 42.5671 2.34939 42.3379 3.32305L43.3113 3.55219ZM44.0043 1.54959L44.8293 2.11471L45.1422 1.65787L44.3172 1.09275L43.4922 0.52763L43.1793 0.984465L44.0043 1.54959ZM44.3172 1.09275L45.2422 1.47291L45.2802 1.38042L44.3553 1.00026L43.4303 0.620096L43.3923 0.712588L44.3172 1.09275Z" fill="#1F724B"/>
<path d="M45.2623 1.47833C45.252 0.926143 44.796 0.48684 44.2438 0.497122C43.6916 0.507403 43.2523 0.963375 43.2626 1.51556L44.2624 1.49695L45.2623 1.47833ZM44.2643 1.59693L45.2637 1.63275C45.2643 1.61461 45.2645 1.59646 45.2641 1.57832L44.2643 1.59693ZM43.0798 19.6918L43.8882 20.2804C43.9067 20.255 43.9239 20.2288 43.9399 20.2019L43.0798 19.6918ZM42.8665 19.9848L42.0581 19.3962C41.9712 19.5155 41.9118 19.6526 41.8842 19.7976L42.8665 19.9848ZM41.8655 19.8958C41.7621 20.4383 42.1181 20.9619 42.6606 21.0653C43.2031 21.1687 43.7267 20.8127 43.8301 20.2702L42.8478 20.083L41.8655 19.8958ZM44.2624 1.49695L43.2626 1.51556L43.2645 1.61555L44.2643 1.59693L45.2641 1.57832L45.2623 1.47833L44.2624 1.49695ZM44.2643 1.59693L43.265 1.56112C43.1957 3.49292 43.2005 4.99671 43.2876 6.04803L44.2842 5.96544L45.2808 5.88285C45.2037 4.95255 45.1952 3.544 45.2637 1.63275L44.2643 1.59693ZM44.2842 5.96544L43.2876 6.04803C43.3637 6.96683 43.3405 7.88535 43.2177 8.80484L44.2089 8.93724L45.2001 9.06965C45.3419 8.00835 45.3689 6.94567 45.2808 5.88285L44.2842 5.96544ZM44.2089 8.93724L43.2177 8.80484C43.0788 9.84485 43.0189 10.8863 43.0381 11.9287L44.0379 11.9102L45.0377 11.8918C45.0204 10.951 45.0744 10.0104 45.2001 9.06965L44.2089 8.93724ZM44.0379 11.9102L43.0381 11.9287C43.0562 12.9104 43.0599 13.8947 43.0493 14.8816L44.0492 14.8923L45.0492 14.9031C45.06 13.8969 45.0562 12.8931 45.0377 11.8918L44.0379 11.9102ZM44.0492 14.8923L43.0493 14.8816C43.0394 15.8004 42.9237 16.7072 42.7018 17.6035L43.6725 17.8438L44.6432 18.0842C44.9021 17.0382 45.0376 15.9773 45.0492 14.9031L44.0492 14.8923ZM43.6725 17.8438L42.7018 17.6035C42.5844 18.0776 42.481 18.4505 42.3917 18.7288C42.3472 18.8677 42.3085 18.9757 42.2759 19.0568C42.2598 19.097 42.2464 19.1275 42.2359 19.1497C42.2251 19.1725 42.2195 19.182 42.2197 19.1817L43.0798 19.6918L43.9399 20.2019C44.0784 19.9683 44.1942 19.6575 44.2962 19.3396C44.4045 19.0019 44.5201 18.5812 44.6432 18.0842L43.6725 17.8438ZM43.0798 19.6918L42.2714 19.1032L42.0581 19.3962L42.8665 19.9848L43.6749 20.5733L43.8882 20.2804L43.0798 19.6918ZM42.8665 19.9848L41.8842 19.7976L41.8655 19.8958L42.8478 20.083L43.8301 20.2702L43.8488 20.172L42.8665 19.9848Z" fill="#1F724B"/>
<path d="M42.0435 19.3806C41.5447 19.6177 41.3325 20.2142 41.5695 20.713C41.8065 21.2119 42.4031 21.4241 42.9019 21.1871L42.4727 20.2838L42.0435 19.3806ZM42.563 20.2409L42.1728 19.3202C42.1597 19.3258 42.1467 19.3316 42.1339 19.3377L42.563 20.2409ZM46.5908 18.5349L46.2011 17.614L46.5908 18.5349ZM51.797 15.6226L51.2828 14.7649L51.797 15.6226ZM54.4478 14.2597L54.0494 13.3425L54.4478 14.2597ZM58.824 12.0263L58.6549 11.0407C58.633 11.0445 58.6113 11.0489 58.5898 11.0541L58.824 12.0263ZM59.1757 11.966L59.3448 12.9516C59.4454 12.9343 59.5427 12.9018 59.6335 12.855L59.1757 11.966ZM59.7224 12.8093C60.2134 12.5564 60.4065 11.9534 60.1537 11.4624C59.9008 10.9714 59.2978 10.7783 58.8068 11.0311L59.2646 11.9202L59.7224 12.8093ZM42.4727 20.2838L42.9019 21.1871L42.9922 21.1441L42.563 20.2409L42.1339 19.3377L42.0435 19.3806L42.4727 20.2838ZM42.563 20.2409L42.9532 21.1617C44.7216 20.4122 46.0639 19.8437 46.9804 19.4559L46.5908 18.5349L46.2011 17.614C45.2841 18.002 43.9413 18.5707 42.1728 19.3202L42.563 20.2409ZM46.5908 18.5349L46.9804 19.4559C47.9432 19.0486 48.8711 18.5713 49.7638 18.0243L49.2414 17.1716L48.7189 16.319C47.9111 16.814 47.0719 17.2455 46.2011 17.614L46.5908 18.5349ZM49.2414 17.1716L49.7638 18.0243C50.6114 17.505 51.4605 16.9903 52.3112 16.4803L51.797 15.6226L51.2828 14.7649C50.4266 15.2783 49.5719 15.7963 48.7189 16.319L49.2414 17.1716ZM51.797 15.6226L52.3112 16.4803C53.1274 15.9909 53.9723 15.5565 54.8462 15.177L54.4478 14.2597L54.0494 13.3425C53.0959 13.7567 52.1736 14.2309 51.2828 14.7649L51.797 15.6226ZM54.4478 14.2597L54.8462 15.177C55.7992 14.763 56.7217 14.2896 57.6136 13.757L57.1008 12.8984L56.588 12.0399C55.7698 12.5286 54.9237 12.9628 54.0494 13.3425L54.4478 14.2597ZM57.1008 12.8984L57.6136 13.757C58.0306 13.5079 58.366 13.3204 58.6244 13.1896C58.7534 13.1244 58.8562 13.0768 58.9354 13.0438C58.9746 13.0275 59.0049 13.016 59.0272 13.0083C59.0501 13.0004 59.0597 12.9981 59.0581 12.9985L58.824 12.0263L58.5898 11.0541C58.3226 11.1185 58.0181 11.2549 57.7213 11.4052C57.4053 11.5651 57.026 11.7783 56.588 12.0399L57.1008 12.8984ZM58.824 12.0263L58.993 13.0119L59.3448 12.9516L59.1757 11.966L59.0066 10.9804L58.6549 11.0407L58.824 12.0263ZM59.1757 11.966L59.6335 12.855L59.7224 12.8093L59.2646 11.9202L58.8068 11.0311L58.7179 11.0769L59.1757 11.966Z" fill="#1F724B"/>
<path d="M59.928 12.6685C60.3413 12.3021 60.3793 11.67 60.0129 11.2568C59.6465 10.8435 59.0145 10.8055 58.6012 11.1719L59.2646 11.9202L59.928 12.6685ZM59.1898 11.9865L59.7831 12.7915C59.8073 12.7737 59.8307 12.7548 59.8532 12.7348L59.1898 11.9865ZM55.7073 14.6414L55.0765 13.8654L55.7073 14.6414ZM51.7832 19.1205L51.0237 18.47L51.7832 19.1205ZM48.5657 23.1984L47.7561 22.6114L47.7527 22.6161L48.5657 23.1984ZM48.2017 23.7066L48.9897 24.3223C48.9982 24.3114 49.0066 24.3002 49.0147 24.2889L48.2017 23.7066ZM47.3522 23.1697C47.0121 23.6048 47.0892 24.2333 47.5244 24.5733C47.9596 24.9134 48.588 24.8363 48.9281 24.4011L48.1401 23.7854L47.3522 23.1697ZM59.2646 11.9202L58.6012 11.1719L58.5264 11.2383L59.1898 11.9865L59.8532 12.7348L59.928 12.6685L59.2646 11.9202ZM59.1898 11.9865L58.5965 11.1816C57.0462 12.3242 55.87 13.2204 55.0765 13.8654L55.7073 14.6414L56.3381 15.4173C57.094 14.8029 58.2395 13.9292 59.7831 12.7915L59.1898 11.9865ZM55.7073 14.6414L55.0765 13.8654C54.2378 14.5473 53.4944 15.3223 52.8476 16.1891L53.6491 16.7871L54.4506 17.3851C54.9987 16.6505 55.6275 15.995 56.3381 15.4173L55.7073 14.6414ZM53.6491 16.7871L52.8476 16.1891C52.2634 16.972 51.6555 17.7323 51.0237 18.47L51.7832 19.1205L52.5428 19.7709C53.2038 18.999 53.8398 18.2037 54.4506 17.3851L53.6491 16.7871ZM51.7832 19.1205L51.0237 18.47C50.3663 19.2376 49.7288 20.0212 49.1111 20.8207L49.9024 21.4321L50.6938 22.0435C51.2909 21.2705 51.9073 20.513 52.5428 19.7709L51.7832 19.1205ZM49.9024 21.4321L49.1111 20.8207C48.5025 21.6084 48.0492 22.2072 47.7561 22.6114L48.5657 23.1984L49.3753 23.7854C49.6496 23.407 50.0875 22.8282 50.6938 22.0435L49.9024 21.4321ZM48.5657 23.1984L47.7527 22.6161L47.3887 23.1243L48.2017 23.7066L49.0147 24.2889L49.3787 23.7807L48.5657 23.1984ZM48.2017 23.7066L47.4138 23.0909L47.3522 23.1697L48.1401 23.7854L48.9281 24.4011L48.9897 24.3223L48.2017 23.7066Z" fill="#1F724B"/>
<path d="M48.1514 23.2538C47.5993 23.267 47.1624 23.7253 47.1757 24.2775C47.1889 24.8296 47.6472 25.2664 48.1993 25.2532L48.1754 24.2535L48.1514 23.2538ZM48.2753 24.2511L48.3639 23.255C48.3265 23.2517 48.2889 23.2505 48.2514 23.2514L48.2753 24.2511ZM55.6399 23.8739L55.6414 22.8739L55.6399 23.8739ZM58.6218 24.2503L58.3748 25.2193L58.6218 24.2503ZM64.7709 29.3857L64.7293 28.3865L64.7709 29.3857ZM61.7627 29.385L61.8052 28.3859L61.7627 29.385ZM58.801 29.5812L58.6265 28.5965L58.801 29.5812ZM50.2203 31.956L50.4824 32.9211L50.2203 31.956ZM47.4204 32.9755L47.0005 32.068L47.4204 32.9755ZM43.7162 34.4598L43.0127 33.7491C42.7828 33.9766 42.6772 34.3013 42.7292 34.6205L43.7162 34.4598ZM43.8018 34.3751L44.5052 35.0859C44.8402 34.7543 44.8982 34.2338 44.6444 33.8366C44.3905 33.4394 43.8938 33.2734 43.4521 33.4382L43.8018 34.3751ZM43.3585 33.4732C42.841 33.6663 42.5781 34.2423 42.7712 34.7597C42.9643 35.2771 43.5402 35.5401 44.0577 35.347L43.7081 34.4101L43.3585 33.4732ZM48.1754 24.2535L48.1993 25.2532L48.2993 25.2508L48.2753 24.2511L48.2514 23.2514L48.1514 23.2538L48.1754 24.2535ZM48.2753 24.2511L48.1868 25.2472C50.1398 25.4207 51.7184 25.412 52.8562 25.1675L52.6461 24.1899L52.4361 23.2122C51.5999 23.3918 50.2646 23.4239 48.3639 23.255L48.2753 24.2511ZM52.6461 24.1899L52.8562 25.1675C53.7737 24.9704 54.7007 24.8726 55.6385 24.8739L55.6399 23.8739L55.6414 22.8739C54.5613 22.8724 53.4925 22.9852 52.4361 23.2122L52.6461 24.1899ZM55.6399 23.8739L55.6385 24.8739C56.5645 24.8752 57.476 24.9902 58.3748 25.2193L58.6218 24.2503L58.8687 23.2812C57.8096 23.0113 56.7332 22.8755 55.6414 22.8739L55.6399 23.8739ZM58.6218 24.2503L58.3748 25.2193C59.2549 25.4436 60.0801 25.7946 60.8534 26.2737L61.3801 25.4237L61.9068 24.5736C60.9604 23.9872 59.9466 23.5559 58.8687 23.2812L58.6218 24.2503ZM61.3801 25.4237L60.8534 26.2737C61.755 26.8324 62.685 27.3172 63.6433 27.7276L64.037 26.8084L64.4307 25.8892C63.5663 25.5189 62.7251 25.0806 61.9068 24.5736L61.3801 25.4237ZM64.037 26.8084L63.6433 27.7276C64.4181 28.0595 64.7794 28.434 64.9341 28.7733L65.8439 28.3583L66.7538 27.9433C66.3221 26.9968 65.4787 26.338 64.4307 25.8892L64.037 26.8084ZM65.8439 28.3583L64.9341 28.7733C64.9665 28.8444 64.9376 28.8164 64.944 28.7189C64.9474 28.6655 64.9613 28.6 64.9931 28.5318C65.0249 28.4637 65.066 28.4114 65.104 28.375C65.1732 28.3088 65.2114 28.3136 65.1344 28.3352C65.0625 28.3555 64.9336 28.378 64.7293 28.3865L64.7709 29.3857L64.8125 30.3848C65.3467 30.3626 66.0233 30.2638 66.4872 29.8196C66.7567 29.5616 66.9153 29.223 66.9397 28.8494C66.9622 28.5056 66.868 28.1937 66.7538 27.9433L65.8439 28.3583ZM64.7709 29.3857L64.7293 28.3865C63.7485 28.4274 62.7738 28.4272 61.8052 28.3859L61.7627 29.385L61.7202 30.3841C62.7455 30.4278 63.7763 30.428 64.8125 30.3848L64.7709 29.3857ZM61.7627 29.385L61.8052 28.3859C60.736 28.3405 59.676 28.4106 58.6265 28.5965L58.801 29.5812L58.9754 30.5659C59.881 30.4054 60.7955 30.3448 61.7202 30.3841L61.7627 29.385ZM58.801 29.5812L58.6265 28.5965C57.614 28.7759 56.6183 29.0079 55.6397 29.2925L55.9189 30.2527L56.1982 31.2129C57.1072 30.9486 58.0329 30.7329 58.9754 30.5659L58.801 29.5812ZM55.9189 30.2527L55.6397 29.2925C54.6881 29.5692 53.7355 29.8586 52.7819 30.1608L53.084 31.1141L53.386 32.0674C54.3246 31.77 55.262 31.4852 56.1982 31.2129L55.9189 30.2527ZM53.084 31.1141L52.7819 30.1608C51.8491 30.4564 50.9079 30.7331 49.9582 30.991L50.2203 31.956L50.4824 32.9211C51.4587 32.656 52.4266 32.3714 53.386 32.0674L53.084 31.1141ZM50.2203 31.956L49.9582 30.991C48.9412 31.2672 47.9551 31.6262 47.0005 32.068L47.4204 32.9755L47.8404 33.8831C48.6929 33.4886 49.5734 33.1679 50.4824 32.9211L50.2203 31.956ZM47.4204 32.9755L47.0005 32.068C46.1127 32.4788 45.2906 32.8304 44.5334 33.1237L44.8947 34.0562L45.2559 34.9887C46.0593 34.6774 46.921 34.3085 47.8404 33.8831L47.4204 32.9755ZM44.8947 34.0562L44.5334 33.1237C44.1459 33.2738 43.8677 33.3772 43.6908 33.4378C43.6475 33.4526 43.6132 33.4638 43.587 33.472C43.5741 33.4761 43.564 33.4791 43.5567 33.4812C43.5491 33.4834 43.5459 33.4843 43.5461 33.4842C43.5464 33.4841 43.5482 33.4837 43.5513 33.483C43.5543 33.4823 43.5595 33.4811 43.5665 33.4797C43.5772 33.4776 43.608 33.4718 43.651 33.4681C43.675 33.466 43.7935 33.455 43.9428 33.4888C44.0199 33.5063 44.171 33.5499 44.3259 33.6686C44.5032 33.8044 44.6577 34.02 44.7032 34.2992L43.7162 34.4598L42.7292 34.6205C42.8317 35.2506 43.3843 35.413 43.5007 35.4394C43.6567 35.4747 43.7849 35.4639 43.8217 35.4608C43.9194 35.4524 44.0032 35.4316 44.0396 35.4224C44.1301 35.3993 44.2354 35.3653 44.3389 35.3298C44.5548 35.2559 44.8632 35.1408 45.2559 34.9887L44.8947 34.0562ZM43.7162 34.4598L44.4196 35.1706L44.5052 35.0859L43.8018 34.3751L43.0983 33.6644L43.0127 33.7491L43.7162 34.4598ZM43.8018 34.3751L43.4521 33.4382L43.3585 33.4732L43.7081 34.4101L44.0577 35.347L44.1514 35.312L43.8018 34.3751Z" fill="#1F724B"/>
<path d="M27.0438 14.4402C26.8874 13.9105 26.3313 13.6078 25.8016 13.7642C25.2719 13.9206 24.9693 14.4767 25.1256 15.0064L26.0847 14.7233L27.0438 14.4402ZM26.113 14.8192L25.1539 15.1023C25.1667 15.1454 25.1823 15.1877 25.2007 15.2287L26.113 14.8192ZM27.1298 29.9537L27.9269 30.5576C27.9942 30.4688 28.0461 30.3695 28.0806 30.2636L27.1298 29.9537ZM27.1735 29.8197L28.1592 29.9882C28.2475 29.4717 27.9221 28.9746 27.4134 28.8489C26.9046 28.7232 26.3852 29.0116 26.2228 29.5098L27.1735 29.8197ZM26.171 29.7498C26.0779 30.2942 26.4438 30.811 26.9882 30.904C27.5326 30.997 28.0493 30.6311 28.1424 30.0868L27.1567 29.9183L26.171 29.7498ZM26.0847 14.7233L25.1256 15.0064L25.1539 15.1023L26.113 14.8192L27.0721 14.5361L27.0438 14.4402L26.0847 14.7233ZM26.113 14.8192L25.2007 15.2287C25.9854 16.9767 26.5531 18.3001 26.9088 19.2073L27.8398 18.8423L28.7708 18.4772C28.397 17.5242 27.8135 16.1655 27.0253 14.4097L26.113 14.8192ZM27.8398 18.8423L26.9088 19.2073C27.2365 20.0429 27.4318 20.9083 27.4952 21.8068L28.4927 21.7363L29.4902 21.6659C29.4126 20.5659 29.1726 19.5018 28.7708 18.4772L27.8398 18.8423ZM28.4927 21.7363L27.4952 21.8068C27.5638 22.7779 27.5911 23.7468 27.577 24.7134L28.5769 24.7279L29.5768 24.7423C29.5917 23.7187 29.5628 22.6932 29.4902 21.6659L28.4927 21.7363ZM28.5769 24.7279L27.577 24.7134C27.5634 25.6569 27.4771 26.596 27.318 27.5311L28.3038 27.6989L29.2896 27.8666C29.4659 26.8306 29.5617 25.7891 29.5768 24.7423L28.5769 24.7279ZM28.3038 27.6989L27.318 27.5311C27.2405 27.9867 27.152 28.3195 27.0634 28.5495C26.9692 28.794 26.9049 28.8427 26.9277 28.8232L27.5776 29.5832L28.2276 30.3431C28.5668 30.053 28.7818 29.6523 28.9296 29.2687C29.083 28.8706 29.1995 28.3966 29.2896 27.8666L28.3038 27.6989ZM27.5776 29.5832L26.9277 28.8232C26.77 28.9581 26.6588 29.0521 26.5909 29.1083C26.5539 29.1389 26.541 29.149 26.5425 29.1478C26.5437 29.1469 26.5507 29.1415 26.5615 29.134C26.5651 29.1314 26.5997 29.1066 26.6484 29.0798C26.6634 29.0716 26.7395 29.0289 26.8459 28.9974C26.8923 28.9837 27.0276 28.946 27.2042 28.9594C27.4006 28.9743 27.7729 29.0717 27.995 29.4574C28.1813 29.7808 28.1245 30.0849 28.1039 30.1763C28.0774 30.2936 28.0355 30.3789 28.0173 30.4141C27.978 30.4902 27.9377 30.5434 27.9269 30.5576L27.1298 29.9537L26.3327 29.3498C26.3209 29.3655 26.2797 29.4199 26.24 29.4968C26.2216 29.5326 26.1795 29.6182 26.153 29.7358C26.1323 29.8275 26.0755 30.1318 26.2618 30.4554C26.484 30.8413 26.8565 30.9388 27.0532 30.9537C27.2301 30.9671 27.3657 30.9293 27.4125 30.9155C27.5198 30.8838 27.5971 30.8406 27.6136 30.8315C27.6652 30.803 27.7041 30.7755 27.7134 30.769C27.7297 30.7575 27.7436 30.747 27.7531 30.7398C27.7874 30.7137 27.8282 30.6804 27.8659 30.6492C27.9472 30.5819 28.0689 30.4789 28.2276 30.3431L27.5776 29.5832ZM27.1298 29.9537L28.0806 30.2636L28.1243 30.1297L27.1735 29.8197L26.2228 29.5098L26.1791 29.6438L27.1298 29.9537ZM27.1735 29.8197L26.1878 29.6513L26.171 29.7498L27.1567 29.9183L28.1424 30.0868L28.1592 29.9882L27.1735 29.8197Z" fill="#1F724B"/>
<path d="M18.7184 23.1129C18.3961 22.6644 17.7712 22.5622 17.3227 22.8845C16.8743 23.2068 16.772 23.8317 17.0943 24.2801L17.9064 23.6965L18.7184 23.1129ZM17.9647 23.7777L18.7799 23.1985L18.7768 23.1941L17.9647 23.7777ZM23.096 31.3096L24.0785 31.4957C24.0912 31.4285 24.097 31.3602 24.0958 31.2918L23.096 31.3096ZM23.0485 31.56L22.066 31.3739C22.0189 31.6227 22.0679 31.8801 22.2032 32.0942L23.0485 31.56ZM22.2566 32.1788C22.5516 32.6456 23.1692 32.785 23.6361 32.49C24.103 32.1949 24.2423 31.5773 23.9473 31.1104L23.102 31.6446L22.2566 32.1788ZM17.9064 23.6965L17.0943 24.2801L17.1527 24.3613L17.9647 23.7777L18.7768 23.1941L18.7184 23.1129L17.9064 23.6965ZM17.9647 23.7777L17.1496 24.357C18.2669 25.9294 19.1448 27.1183 19.7781 27.9135L20.5603 27.2906L21.3426 26.6677C20.7443 25.9164 19.8919 24.7634 18.7799 23.1985L17.9647 23.7777ZM20.5603 27.2906L19.7781 27.9135C20.3717 28.6589 20.9267 29.4375 21.4433 30.2494L22.287 29.7126L23.1307 29.1758C22.5766 28.3049 21.9806 27.4688 21.3426 26.6677L20.5603 27.2906ZM22.287 29.7126L21.4433 30.2494C21.7034 30.6581 21.885 30.9705 21.9986 31.1948C22.0556 31.3072 22.0874 31.3817 22.1029 31.4247C22.1246 31.4845 22.0981 31.4367 22.0961 31.3275L23.096 31.3096L24.0958 31.2918C24.0919 31.0709 24.0302 30.8728 23.9834 30.7437C23.9305 30.5977 23.8607 30.4447 23.7828 30.291C23.6268 29.9829 23.4059 29.6084 23.1307 29.1758L22.287 29.7126ZM23.096 31.3096L22.1134 31.1235L22.066 31.3739L23.0485 31.56L24.0311 31.7461L24.0785 31.4957L23.096 31.3096ZM23.0485 31.56L22.2032 32.0942L22.2566 32.1788L23.102 31.6446L23.9473 31.1104L23.8939 31.0259L23.0485 31.56Z" fill="#1F724B"/>
<path d="M41.5681 15.2546C41.6697 14.7117 41.312 14.1893 40.7691 14.0877C40.2263 13.9861 39.7038 14.3438 39.6022 14.8866L40.5852 15.0706L41.5681 15.2546ZM40.5668 15.1689L41.5291 15.4406C41.5373 15.4117 41.5442 15.3824 41.5497 15.3529L40.5668 15.1689ZM37.6408 28.1348L36.697 27.8043L37.6408 28.1348ZM36.88 29.9878L37.7085 30.548C37.7182 30.5336 37.7276 30.5189 37.7365 30.504L36.88 29.9878ZM36.6444 30.3364L35.8159 29.7763C35.7648 29.8519 35.7243 29.9342 35.6954 30.0209L36.6444 30.3364ZM35.6639 30.1157C35.4896 30.6398 35.7732 31.2059 36.2972 31.3802C36.8213 31.5545 37.3874 31.271 37.5617 30.7469L36.6128 30.4313L35.6639 30.1157ZM40.5852 15.0706L39.6022 14.8866L39.5838 14.9849L40.5668 15.1689L41.5497 15.3529L41.5681 15.2546L40.5852 15.0706ZM40.5668 15.1689L39.6044 14.8971C39.0785 16.7595 38.7092 18.1998 38.5036 19.2042L39.4833 19.4048L40.4629 19.6054C40.6535 18.6748 41.0065 17.2913 41.5291 15.4406L40.5668 15.1689ZM39.4833 19.4048L38.5036 19.2042C38.2923 20.2359 38.1813 21.2915 38.1694 22.3701L39.1694 22.3811L40.1693 22.3921C40.1798 21.4371 40.278 20.5086 40.4629 19.6054L39.4833 19.4048ZM39.1694 22.3811L38.1694 22.3701C38.1595 23.2767 38.0036 24.1437 37.703 24.9759L38.6435 25.3157L39.584 25.6554C39.9622 24.6084 40.1569 23.5189 40.1693 22.3921L39.1694 22.3811ZM38.6435 25.3157L37.703 24.9759C37.3624 25.9187 37.0271 26.8615 36.697 27.8043L37.6408 28.1348L38.5846 28.4652C38.9126 27.5286 39.2457 26.592 39.584 25.6554L38.6435 25.3157ZM37.6408 28.1348L36.697 27.8043C36.3631 28.7579 36.1401 29.2783 36.0235 29.4717L36.88 29.9878L37.7365 30.504C37.9763 30.1061 38.2605 29.3911 38.5846 28.4652L37.6408 28.1348ZM36.88 29.9878L36.0516 29.4277L35.8159 29.7763L36.6444 30.3364L37.4728 30.8966L37.7085 30.548L36.88 29.9878ZM36.6444 30.3364L35.6954 30.0209L35.6639 30.1157L36.6128 30.4313L37.5617 30.7469L37.5933 30.652L36.6444 30.3364Z" fill="#1F724B"/>
<path d="M49.7125 20.9512C50.071 20.5311 50.0212 19.8999 49.6011 19.5413C49.1811 19.1828 48.5499 19.2326 48.1913 19.6527L48.9519 20.3019L49.7125 20.9512ZM48.887 20.378L48.1264 19.7287C48.1133 19.744 48.1007 19.7597 48.0886 19.7758L48.887 20.378ZM40.861 29.4876L41.1761 30.4366C41.2221 30.4214 41.2669 30.4028 41.3102 30.381L40.861 29.4876ZM40.6327 29.5634L40.3176 28.6143C40.1582 28.6672 40.0147 28.7595 39.9003 28.8825L40.6327 29.5634ZM39.8322 28.9557C39.4562 29.3602 39.4792 29.9929 39.8836 30.369C40.2881 30.745 40.9209 30.722 41.2969 30.3175L40.5646 29.6366L39.8322 28.9557ZM48.9519 20.3019L48.1913 19.6527L48.1264 19.7287L48.887 20.378L49.6475 21.0272L49.7125 20.9512L48.9519 20.3019ZM48.887 20.378L48.0886 19.7758C46.934 21.3067 46.0471 22.4336 45.4224 23.1672L46.1837 23.8156L46.945 24.464C47.6091 23.6841 48.5245 22.5193 49.6853 20.9801L48.887 20.378ZM46.1837 23.8156L45.4224 23.1672C44.8069 23.8899 44.1437 24.5707 43.4326 25.2098L44.101 25.9536L44.7694 26.6974C45.5463 25.9993 46.2716 25.2547 46.945 24.464L46.1837 23.8156ZM44.101 25.9536L43.4326 25.2098C42.6428 25.9195 41.9244 26.6961 41.2778 27.5388L42.0712 28.1475L42.8646 28.7562C43.4364 28.011 44.0712 27.3249 44.7694 26.6974L44.101 25.9536ZM42.0712 28.1475L41.2778 27.5388C40.9804 27.9265 40.7456 28.2129 40.5696 28.4078C40.4814 28.5055 40.4176 28.5694 40.3754 28.6078C40.3214 28.6568 40.3389 28.6308 40.4118 28.5941L40.861 29.4876L41.3102 30.381C41.4819 30.2947 41.624 30.1755 41.7203 30.0881C41.8283 29.9899 41.9404 29.8739 42.0539 29.7483C42.2813 29.4965 42.5529 29.1625 42.8646 28.7562L42.0712 28.1475ZM40.861 29.4876L40.5459 28.5385L40.3176 28.6143L40.6327 29.5634L40.9478 30.5124L41.1761 30.4366L40.861 29.4876ZM40.6327 29.5634L39.9003 28.8825L39.8322 28.9557L40.5646 29.6366L41.2969 30.3175L41.365 30.2443L40.6327 29.5634Z" fill="#1F724B"/>
</svg>
