<svg width="12" height="12" viewBox="0 0 12 12" fill="none" xmlns="http://www.w3.org/2000/svg">
<path d="M6.40089 4.37338C6.7937 3.98516 6.79741 3.352 6.40919 2.95919C6.02096 2.56638 5.38781 2.56267 4.995 2.95089L5.69794 3.66214L6.40089 4.37338ZM5.62682 3.73243L6.03197 4.64668C6.14271 4.59761 6.24361 4.52882 6.32976 4.44368L5.62682 3.73243ZM3.35058 8.94182L3.02878 9.88863L3.35058 8.94182ZM7.64621 6.33815L7.10655 7.18003L7.64621 6.33815ZM8.34101 10.3756L8.64861 11.3271L8.34101 10.3756ZM10.1835 8.45971L9.22047 8.19032L10.1835 8.45971ZM5.56255 3.91543L5.43648 4.90745L5.56255 3.91543ZM7.58335 10.6626L7.38597 9.68226L7.58335 10.6626ZM9.77225 9.24788L10.6051 9.8013L9.77225 9.24788ZM10.408 6.68358L11.405 6.60646L10.408 6.68358ZM4.67699 1.30239L4.26497 2.21356L4.67699 1.30239ZM1.5527 6.44562L0.638122 6.85004L1.5527 6.44562ZM2.96605 8.53842L3.62463 7.7859L2.96605 8.53842ZM3.68857 9.29285L3.37505 10.2424C3.69359 10.3476 4.04364 10.286 4.3072 10.0785L3.68857 9.29285ZM3.58006 9.25702L3.89358 8.30744C3.52815 8.18679 3.12591 8.28654 2.85919 8.56395C2.59248 8.84137 2.50862 9.24722 2.64354 9.60762L3.58006 9.25702ZM2.6786 9.70128C2.87223 10.2185 3.4485 10.4808 3.96573 10.2872C4.48295 10.0936 4.74528 9.5173 4.55165 9.00007L3.61512 9.35067L2.6786 9.70128ZM5.69794 3.66214L4.995 2.95089L4.92387 3.02119L5.62682 3.73243L6.32976 4.44368L6.40089 4.37338L5.69794 3.66214ZM5.62682 3.73243L5.22167 2.81818C3.45915 3.59924 2.14722 4.24251 1.32144 4.74277L1.83958 5.59806L2.35772 6.45336C3.06738 6.02344 4.28027 5.42295 6.03197 4.64668L5.62682 3.73243ZM1.83958 5.59806L1.32144 4.74277C0.814803 5.04969 0.348001 5.49787 0.178291 6.14154C0.00583962 6.79562 0.201883 7.41382 0.513733 7.9206L1.3654 7.39652L2.21707 6.87244C2.07732 6.64533 2.12659 6.59685 2.1122 6.65144C2.10055 6.69563 2.09664 6.61152 2.35772 6.45336L1.83958 5.59806ZM1.3654 7.39652L0.513733 7.9206C1.09609 8.86696 1.95278 9.52292 3.02878 9.88863L3.35058 8.94182L3.67237 7.99501C3.00468 7.76808 2.53792 7.39384 2.21707 6.87244L1.3654 7.39652ZM3.35058 8.94182L3.02878 9.88863C4.01357 10.2233 5.0491 10.3823 6.12905 10.371L6.11863 9.37109L6.10821 8.37115C5.24112 8.38018 4.43128 8.25295 3.67237 7.99501L3.35058 8.94182ZM6.11863 9.37109L6.12905 10.371C6.74644 10.3646 7.33696 10.2363 7.85743 9.93708C8.38462 9.634 8.78127 9.18897 9.05356 8.64593L8.15964 8.19771L7.26572 7.74948C7.15086 7.97856 7.01376 8.11516 6.86061 8.2032C6.70075 8.29511 6.46434 8.36744 6.10821 8.37115L6.11863 9.37109ZM8.15964 8.19771L9.05356 8.64593C9.31944 8.11568 9.45684 7.50785 9.28558 6.88758C9.11448 6.2679 8.68512 5.81629 8.18587 5.49627L7.64621 6.33815L7.10655 7.18003C7.33674 7.32759 7.35767 7.41971 7.35772 7.41988C7.35934 7.42575 7.36453 7.44632 7.35716 7.49382C7.3492 7.54506 7.3261 7.62906 7.26572 7.74948L8.15964 8.19771ZM7.64621 6.33815L8.18587 5.49627C7.69471 5.18143 7.14293 4.9854 6.5493 5.00555C5.9507 5.02587 5.41648 5.26242 4.95994 5.62571L5.5826 6.4082L6.20526 7.19069C6.39501 7.0397 6.52788 7.00743 6.61715 7.0044C6.71139 7.0012 6.86827 7.02729 7.10655 7.18003L7.64621 6.33815ZM5.5826 6.4082L4.95994 5.62571C4.05679 6.34439 3.60551 7.35195 3.55871 8.52878L4.55792 8.56851L5.55713 8.60825C5.58398 7.93323 5.81583 7.50058 6.20526 7.19069L5.5826 6.4082ZM4.55792 8.56851L3.55871 8.52878C3.53459 9.1353 3.64449 9.73255 3.96912 10.2511C4.2985 10.7773 4.79018 11.1284 5.35873 11.3373L5.70362 10.3987L6.04852 9.46003C5.81644 9.37476 5.71686 9.27377 5.66434 9.18988C5.60707 9.09839 5.54443 8.92765 5.55713 8.60825L4.55792 8.56851ZM5.70362 10.3987L5.35873 11.3373C6.40544 11.7219 7.51796 11.6926 8.64861 11.3271L8.34101 10.3756L8.03341 9.42406C7.24879 9.67771 6.60305 9.66379 6.04852 9.46003L5.70362 10.3987ZM8.34101 10.3756L8.64861 11.3271C9.92463 10.9146 10.7853 10.0203 11.1465 8.72911L10.1835 8.45971L9.22047 8.19032C9.04027 8.83449 8.67266 9.21741 8.03341 9.42406L8.34101 10.3756ZM10.1835 8.45971L11.1465 8.72911C11.4559 7.62308 11.508 6.53763 11.2697 5.49134L10.2946 5.7134L9.31962 5.93547C9.47451 6.61558 9.45246 7.36101 9.22047 8.19032L10.1835 8.45971ZM10.2946 5.7134L11.2697 5.49134C11.1298 4.87731 10.8292 4.33175 10.333 3.92739C9.84622 3.53074 9.24868 3.33279 8.61691 3.26538L8.51082 4.25974L8.40473 5.2541C8.76558 5.2926 8.96166 5.38988 9.06952 5.47778C9.16794 5.55798 9.26287 5.6863 9.31962 5.93547L10.2946 5.7134ZM8.51082 4.25974L8.61691 3.26538C7.63084 3.16018 6.65474 3.04618 5.68861 2.92341L5.56255 3.91543L5.43648 4.90745C6.41615 5.03195 7.40556 5.14749 8.40473 5.2541L8.51082 4.25974ZM5.56255 3.91543L5.68861 2.92341C4.52168 2.77511 3.40553 2.96294 2.36798 3.49076L2.8214 4.38205L3.27482 5.27335C3.94635 4.93173 4.65763 4.80847 5.43648 4.90745L5.56255 3.91543ZM2.8214 4.38205L2.36798 3.49076C1.80365 3.77784 1.33207 4.17878 1.0022 4.70884C0.672924 5.23793 0.519866 5.83931 0.504535 6.47439L1.50424 6.49853L2.50395 6.52266C2.51219 6.18148 2.59044 5.94198 2.70022 5.76558C2.8094 5.59015 2.98461 5.42098 3.27482 5.27335L2.8214 4.38205ZM1.50424 6.49853L0.504535 6.47439C0.475858 7.6623 0.804763 8.77271 1.46953 9.78243L2.30476 9.23254L3.14 8.68264C2.69027 7.99954 2.48549 7.28729 2.50395 6.52266L1.50424 6.49853ZM2.30476 9.23254L1.46953 9.78243C2.18262 10.8656 3.21082 11.5239 4.49258 11.7164L4.64111 10.7275L4.78964 9.7386C4.07076 9.63063 3.5414 9.29233 3.14 8.68264L2.30476 9.23254ZM4.64111 10.7275L4.49258 11.7164C5.60413 11.8834 6.70201 11.8601 7.78072 11.6429L7.58335 10.6626L7.38597 9.68226C6.54233 9.85212 5.67873 9.87213 4.78964 9.7386L4.64111 10.7275ZM7.58335 10.6626L7.78072 11.6429C8.97637 11.4022 9.94638 10.7927 10.6051 9.8013L9.77225 9.24788L8.93934 8.69446C8.60193 9.20226 8.11268 9.53595 7.38597 9.68226L7.58335 10.6626ZM9.77225 9.24788L10.6051 9.8013C11.2357 8.85231 11.4952 7.77238 11.405 6.60646L10.408 6.68358L9.41099 6.7607C9.4693 7.51459 9.30496 8.1442 8.93934 8.69446L9.77225 9.24788ZM10.408 6.68358L11.405 6.60646C11.3174 5.47396 10.9539 4.43755 10.3134 3.51763L9.49271 4.08901L8.67203 4.66039C9.10347 5.28008 9.35009 5.97339 9.41099 6.7607L10.408 6.68358ZM9.49271 4.08901L10.3134 3.51763C9.66331 2.58389 8.79778 1.90531 7.7369 1.4994L7.37955 2.43337L7.0222 3.36734C7.70697 3.62934 8.25021 4.05452 8.67203 4.66039L9.49271 4.08901ZM7.37955 2.43337L7.7369 1.4994C6.88409 1.1731 6.0015 0.803832 5.08902 0.391215L4.67699 1.30239L4.26497 2.21356C5.21024 2.64101 6.12936 3.02572 7.0222 3.36734L7.37955 2.43337ZM4.67699 1.30239L5.08902 0.391215C3.9196 -0.137586 2.72711 -0.159215 1.65526 0.50455L2.18175 1.35473L2.70824 2.20491C3.10562 1.95882 3.57663 1.9023 4.26497 2.21356L4.67699 1.30239ZM2.18175 1.35473L1.65526 0.50455C0.591796 1.16312 0.0696875 2.22435 0.00870898 3.49535L1.00756 3.54327L2.00641 3.59119C2.04178 2.85399 2.30246 2.4562 2.70824 2.20491L2.18175 1.35473ZM1.00756 3.54327L0.00870898 3.49535C-0.0470102 4.65672 0.164465 5.7789 0.638122 6.85004L1.5527 6.44562L2.46727 6.0412C2.11773 5.25075 1.96578 4.43802 2.00641 3.59119L1.00756 3.54327ZM1.5527 6.44562L0.638122 6.85004C1.0845 7.8595 1.62967 8.69774 2.30748 9.29093L2.96605 8.53842L3.62463 7.7859C3.24115 7.4503 2.84408 6.89334 2.46727 6.0412L1.5527 6.44562ZM2.96605 8.53842L2.30748 9.29093C2.56824 9.51914 2.73378 9.67441 2.82245 9.76699C2.8737 9.82051 2.86443 9.81731 2.83695 9.77577C2.82982 9.765 2.76346 9.66834 2.72456 9.51632C2.70383 9.43531 2.67577 9.2814 2.71293 9.09129C2.7548 8.87705 2.87193 8.66307 3.06994 8.50716L3.68857 9.29285L4.3072 10.0785C4.77373 9.7112 4.70525 9.18901 4.66213 9.0205C4.61736 8.84553 4.53607 8.71927 4.50496 8.67225C4.42951 8.5582 4.33604 8.45587 4.26688 8.38366C4.1147 8.22476 3.89451 8.02209 3.62463 7.7859L2.96605 8.53842ZM3.68857 9.29285L4.00208 8.34326L3.89358 8.30744L3.58006 9.25702L3.26655 10.2066L3.37505 10.2424L3.68857 9.29285ZM3.58006 9.25702L2.64354 9.60762L2.6786 9.70128L3.61512 9.35067L4.55165 9.00007L4.51659 8.90642L3.58006 9.25702Z" fill="#FF783C"/>
</svg>
