<svg width="90" height="33" viewBox="0 0 90 33" fill="none" xmlns="http://www.w3.org/2000/svg">
<path d="M1.9902 4.60989C1.91258 4.06308 1.40639 3.68273 0.859588 3.76034C0.312784 3.83796 -0.0675687 4.34415 0.0100462 4.89095L1.00012 4.75042L1.9902 4.60989ZM1.01418 4.84943L0.0240996 4.98996C0.0258971 5.00262 0.0279375 5.01525 0.0302194 5.02784L1.01418 4.84943ZM3.74455 28.6242L4.37182 29.403C4.46114 29.331 4.53742 29.2443 4.59733 29.1464L3.74455 28.6242ZM3.61299 28.7301L2.98573 27.9513C2.73494 28.1533 2.59676 28.4637 2.61451 28.7852L3.61299 28.7301ZM2.62002 28.8851C2.65046 29.4365 3.12218 29.8589 3.67362 29.8285C4.22507 29.798 4.64742 29.3263 4.61698 28.7749L3.6185 28.83L2.62002 28.8851ZM1.00012 4.75042L0.0100462 4.89095L0.0240996 4.98996L1.01418 4.84943L2.00425 4.70889L1.9902 4.60989L1.00012 4.75042ZM1.01418 4.84943L0.0302194 5.02784C0.370557 6.90484 0.56486 8.30036 0.624389 9.23653L1.62237 9.17307L2.62036 9.10961C2.55331 8.05522 2.34215 6.56831 1.99813 4.67102L1.01418 4.84943ZM1.62237 9.17307L0.624389 9.23653C0.690552 10.277 0.826804 11.3072 1.03315 12.3269L2.01328 12.1285L2.99341 11.9301C2.80512 10.9998 2.68077 10.0597 2.62036 9.10961L1.62237 9.17307ZM2.01328 12.1285L1.03315 12.3269C1.22078 13.254 1.33993 14.1907 1.39062 15.1375L2.38919 15.084L3.38776 15.0305C3.33187 13.9866 3.20042 12.953 2.99341 11.9301L2.01328 12.1285ZM2.38919 15.084L1.39062 15.1375C1.44748 16.1994 1.60945 17.2479 1.87616 18.282L2.84447 18.0323L3.81279 17.7826C3.57905 16.8763 3.43749 15.9592 3.38776 15.0305L2.38919 15.084ZM2.84447 18.0323L1.87616 18.282C2.10068 19.1526 2.18801 20.0361 2.13832 20.9361L3.13679 20.9912L4.13527 21.0464C4.19627 19.9416 4.08872 18.8525 3.81279 17.7826L2.84447 18.0323ZM3.13679 20.9912L2.13832 20.9361C2.07895 22.0113 2.13699 23.0779 2.31269 24.1346L3.29914 23.9706L4.2856 23.8066C4.13413 22.8956 4.08394 21.976 4.13527 21.0464L3.13679 20.9912ZM3.29914 23.9706L2.31269 24.1346C2.47324 25.1002 2.60685 26.0692 2.71352 27.0414L3.70756 26.9324L4.70159 26.8233C4.59088 25.8143 4.45222 24.8087 4.2856 23.8066L3.29914 23.9706ZM3.70756 26.9324L2.71352 27.0414C2.7667 27.5261 2.79334 27.8813 2.79856 28.1202C2.80121 28.2412 2.79774 28.3098 2.79469 28.3395C2.79321 28.354 2.79345 28.3425 2.80044 28.314C2.80538 28.294 2.82709 28.2075 2.89177 28.1019L3.74455 28.6242L4.59733 29.1464C4.74576 28.9041 4.77407 28.6431 4.78432 28.543C4.7992 28.3975 4.8016 28.2374 4.79808 28.0765C4.79098 27.7514 4.75711 27.3293 4.70159 26.8233L3.70756 26.9324ZM3.74455 28.6242L3.11728 27.8454L2.98573 27.9513L3.61299 28.7301L4.24026 29.5089L4.37182 29.403L3.74455 28.6242ZM3.61299 28.7301L2.61451 28.7852L2.62002 28.8851L3.6185 28.83L4.61698 28.7749L4.61147 28.675L3.61299 28.7301Z" fill="#1F724B"/>
<path d="M3.79253 9.37592C3.31407 9.65177 3.14981 10.2633 3.42566 10.7417C3.7015 11.2202 4.31299 11.3844 4.79145 11.1086L4.29199 10.2423L3.79253 9.37592ZM4.37863 10.1923L4.87809 11.0586C4.98303 10.9981 5.0761 10.9191 5.15278 10.8253L4.37863 10.1923ZM12.2653 8.25928L11.3225 8.59253L12.2653 8.25928ZM13.4881 14.1484L14.4812 14.0312L13.4881 14.1484ZM13.378 24.7912L12.4371 25.1299C12.468 25.2157 12.5105 25.2969 12.5634 25.3712L13.378 24.7912ZM13.4499 24.8921L14.4498 24.8871C14.4488 24.681 14.3841 24.4801 14.2645 24.3121L13.4499 24.8921ZM12.4504 24.997C12.4531 25.5493 12.903 25.9948 13.4553 25.9921C14.0076 25.9893 14.4531 25.5394 14.4503 24.9871L13.4504 24.9921L12.4504 24.997ZM4.29199 10.2423L4.79145 11.1086L4.87809 11.0586L4.37863 10.1923L3.87916 9.32597L3.79253 9.37592L4.29199 10.2423ZM4.37863 10.1923L5.15278 10.8253C6.35827 9.35101 7.31738 8.36335 8.0393 7.80822L7.42971 7.0155L6.82013 6.22277C5.91325 6.92014 4.83831 8.05035 3.60448 9.55931L4.37863 10.1923ZM7.42971 7.0155L8.0393 7.80822C8.6058 7.37258 9.21916 7.23821 9.97188 7.41642L10.2023 6.44332L10.4326 5.47022C9.11742 5.15883 7.8824 5.40591 6.82013 6.22277L7.42971 7.0155ZM10.2023 6.44332L9.97188 7.41642C10.6899 7.58641 11.0994 7.96135 11.3225 8.59253L12.2653 8.25928L13.2081 7.92603C12.7485 6.62552 11.7826 5.78981 10.4326 5.47022L10.2023 6.44332ZM12.2653 8.25928L11.3225 8.59253C11.6464 9.50913 11.8924 10.4324 12.0609 11.3627L13.0449 11.1843L14.0289 11.006C13.8407 9.96789 13.5669 8.94111 13.2081 7.92603L12.2653 8.25928ZM13.0449 11.1843L12.0609 11.3627C12.2357 12.3266 12.3803 13.2942 12.495 14.2656L13.4881 14.1484L14.4812 14.0312C14.3617 13.0188 14.2109 12.0104 14.0289 11.006L13.0449 11.1843ZM13.4881 14.1484L12.495 14.2656C12.6052 15.1996 12.6336 16.137 12.5801 17.0783L13.5785 17.135L14.5769 17.1918C14.637 16.1346 14.6051 15.0808 14.4812 14.0312L13.4881 14.1484ZM13.5785 17.135L12.5801 17.0783C12.5239 18.0682 12.4539 19.055 12.37 20.0386L13.3664 20.1235L14.3628 20.2084C14.4483 19.2059 14.5196 18.2004 14.5769 17.1918L13.5785 17.135ZM13.3664 20.1235L12.37 20.0386C12.2824 21.0671 12.25 22.0956 12.2729 23.1239L13.2726 23.1017L14.2724 23.0794C14.2511 22.1229 14.2812 21.1659 14.3628 20.2084L13.3664 20.1235ZM13.2726 23.1017L12.2729 23.1239C12.284 23.6251 12.2987 24.0294 12.3175 24.3307C12.3268 24.4805 12.3378 24.6154 12.3514 24.729C12.3615 24.8136 12.3823 24.9774 12.4371 25.1299L13.378 24.7912L14.3189 24.4525C14.3497 24.538 14.348 24.5812 14.3373 24.4916C14.33 24.4309 14.3218 24.3378 14.3136 24.2061C14.2972 23.9442 14.2833 23.5706 14.2724 23.0794L13.2726 23.1017ZM13.378 24.7912L12.5634 25.3712L12.6352 25.472L13.4499 24.8921L14.2645 24.3121L14.1927 24.2113L13.378 24.7912ZM13.4499 24.8921L12.4499 24.897L12.4504 24.997L13.4504 24.9921L14.4503 24.9871L14.4498 24.8871L13.4499 24.8921Z" fill="#1F724B"/>
<path d="M13.7801 14.9556C13.6363 15.4889 13.952 16.0377 14.4852 16.1815C15.0185 16.3253 15.5673 16.0096 15.7111 15.4763L14.7456 15.216L13.7801 14.9556ZM14.7716 15.1194L15.7372 15.3798C15.7474 15.3417 15.7554 15.3031 15.7611 15.2641L14.7716 15.1194ZM24.6431 9.38883L25.6341 9.5232L24.6431 9.38883ZM24.1955 21.319L23.2011 21.213L24.1955 21.319ZM24.2594 23.8101L23.283 24.026L24.2594 23.8101ZM24.2866 24.8085L23.7967 25.6803C23.9347 25.7578 24.0891 25.8015 24.2472 25.8077L24.2866 24.8085ZM24.095 24.7009L24.5849 23.8291C24.2811 23.6584 23.9104 23.6581 23.6064 23.8284C23.3024 23.9987 23.1089 24.3149 23.0958 24.6632L24.095 24.7009ZM23.092 24.7631C23.0712 25.315 23.5017 25.7793 24.0536 25.8001C24.6055 25.8209 25.0697 25.3904 25.0906 24.8385L24.0913 24.8008L23.092 24.7631ZM14.7456 15.216L15.7111 15.4763L15.7372 15.3798L14.7716 15.1194L13.8061 14.8591L13.7801 14.9556L14.7456 15.216ZM14.7716 15.1194L15.7611 15.2641C16.0391 13.363 16.2592 11.9225 16.4219 10.9389L15.4353 10.7757L14.4487 10.6125C14.2829 11.6149 14.0606 13.0702 13.7822 14.9748L14.7716 15.1194ZM15.4353 10.7757L16.4219 10.9389C16.56 10.1043 16.8797 9.35658 17.3859 8.68276L16.5864 8.08211L15.7869 7.48145C15.0869 8.41318 14.6392 9.46118 14.4487 10.6125L15.4353 10.7757ZM16.5864 8.08211L17.3859 8.68276C17.9161 7.97699 18.544 7.40113 19.2724 6.94873L18.7448 6.09924L18.2172 5.24976C17.2739 5.83563 16.4629 6.58168 15.7869 7.48145L16.5864 8.08211ZM18.7448 6.09924L19.2724 6.94873C19.9379 6.53538 20.6732 6.33474 21.5047 6.35198L21.5254 5.3522L21.5461 4.35241C20.3419 4.32745 19.2233 4.62484 18.2172 5.24976L18.7448 6.09924ZM21.5254 5.3522L21.5047 6.35198C22.2049 6.3665 22.7209 6.63716 23.1373 7.21731L23.9497 6.63423L24.7621 6.05115C23.9819 4.96413 22.8817 4.3801 21.5461 4.35241L21.5254 5.3522ZM23.9497 6.63423L23.1373 7.21731C23.5889 7.84654 23.7533 8.50871 23.6522 9.25446L24.6431 9.38883L25.6341 9.5232C25.8049 8.26332 25.507 7.08909 24.7621 6.05115L23.9497 6.63423ZM24.6431 9.38883L23.6522 9.25446C23.5065 10.329 23.4789 11.4018 23.5701 12.4714L24.5665 12.3865L25.5628 12.3016C25.4843 11.3799 25.5078 10.4543 25.6341 9.5232L24.6431 9.38883ZM24.5665 12.3865L23.5701 12.4714C23.6497 13.4053 23.6422 14.3363 23.5477 15.2653L24.5426 15.3664L25.5375 15.4676C25.6446 14.4145 25.653 13.3589 25.5628 12.3016L24.5665 12.3865ZM24.5426 15.3664L23.5477 15.2653C23.444 16.2857 23.3857 17.3075 23.3728 18.3309L24.3727 18.3435L25.3726 18.3561C25.3847 17.3921 25.4397 16.4293 25.5375 15.4676L24.5426 15.3664ZM24.3727 18.3435L23.3728 18.3309C23.3606 19.2932 23.3034 20.2539 23.2011 21.213L24.1955 21.319L25.1898 21.4251C25.2987 20.4041 25.3597 19.381 25.3726 18.3561L24.3727 18.3435ZM24.1955 21.319L23.2011 21.213C23.0887 22.2666 23.1034 23.2138 23.283 24.026L24.2594 23.8101L25.2359 23.5943C25.1189 23.0651 25.091 22.3515 25.1898 21.4251L24.1955 21.319ZM24.2594 23.8101L23.283 24.026C23.3547 24.3502 23.376 24.5237 23.3778 24.5899C23.3791 24.6399 23.3672 24.5454 23.4202 24.4022C23.4499 24.3218 23.5226 24.1645 23.6893 24.0258C23.8776 23.8692 24.1087 23.8007 24.3259 23.8092L24.2866 24.8085L24.2472 25.8077C24.497 25.8175 24.7563 25.7398 24.9684 25.5633C25.159 25.4047 25.2512 25.217 25.296 25.0957C25.3793 24.8706 25.3802 24.652 25.3771 24.5356C25.3698 24.269 25.3125 23.9408 25.2359 23.5943L24.2594 23.8101ZM24.2866 24.8085L24.7764 23.9367L24.5849 23.8291L24.095 24.7009L23.6052 25.5726L23.7967 25.6803L24.2866 24.8085ZM24.095 24.7009L23.0958 24.6632L23.092 24.7631L24.0913 24.8008L25.0906 24.8385L25.0943 24.7386L24.095 24.7009Z" fill="#1F724B"/>
<path d="M38.3261 10.2566C38.345 9.70463 37.9129 9.24183 37.361 9.2229C36.809 9.20397 36.3462 9.63607 36.3273 10.188L37.3267 10.2223L38.3261 10.2566ZM37.3233 10.3223L38.3213 10.3853C38.3219 10.3757 38.3224 10.3661 38.3227 10.3565L37.3233 10.3223ZM37.2709 14.6912L36.2746 14.7773L37.2709 14.6912ZM36.7402 23.3324L35.7497 23.4701L36.7402 23.3324ZM36.904 24.5378L35.9041 24.5503C35.9108 25.0897 36.3442 25.5266 36.8836 25.5376L36.904 24.5378ZM36.9028 24.4378L37.9027 24.4253C37.8959 23.8803 37.454 23.4412 36.909 23.4378C36.3641 23.4344 35.9167 23.868 35.9031 24.4128L36.9028 24.4378ZM35.9006 24.5127C35.8868 25.0648 36.3232 25.5236 36.8753 25.5374C37.4274 25.5512 37.8861 25.1148 37.9 24.5627L36.9003 24.5377L35.9006 24.5127ZM37.3267 10.2223L36.3273 10.188L36.3239 10.288L37.3233 10.3223L38.3227 10.3565L38.3261 10.2566L37.3267 10.2223ZM37.3233 10.3223L36.3253 10.2592C36.2033 12.1888 36.1819 13.7049 36.2746 14.7773L37.2709 14.6912L38.2671 14.605C38.1876 13.6847 38.201 12.2883 38.3213 10.3853L37.3233 10.3223ZM37.2709 14.6912L36.2746 14.7773C36.3547 15.7036 36.3368 16.6262 36.2211 17.5463L37.2133 17.6711L38.2055 17.7958C38.3388 16.7355 38.3593 15.6715 38.2671 14.605L37.2709 14.6912ZM37.2133 17.6711L36.2211 17.5463C36.0978 18.5278 35.9611 19.5092 35.8111 20.4906L36.7996 20.6417L37.7881 20.7928C37.9408 19.7939 38.0799 18.7949 38.2055 17.7958L37.2133 17.6711ZM36.7996 20.6417L35.8111 20.4906C35.6484 21.555 35.6219 22.5512 35.7497 23.4701L36.7402 23.3324L37.7306 23.1947C37.6349 22.5063 37.6481 21.7087 37.7881 20.7928L36.7996 20.6417ZM36.7402 23.3324L35.7497 23.4701C35.8055 23.8717 35.8469 24.1719 35.874 24.3712C35.8876 24.4712 35.8974 24.5441 35.9035 24.5911C35.9066 24.6154 35.9084 24.6292 35.9091 24.6355C35.9096 24.64 35.9089 24.6347 35.9081 24.6252C35.9079 24.6232 35.9061 24.6042 35.905 24.5793C35.9047 24.5724 35.9028 24.5319 35.9057 24.4804C35.9066 24.4643 35.9107 24.3852 35.9358 24.2878C35.9464 24.2469 35.9802 24.1211 36.0714 23.984C36.1626 23.8469 36.4367 23.528 36.9245 23.538L36.904 24.5378L36.8836 25.5376C37.3714 25.5476 37.6455 25.2287 37.7367 25.0916C37.8279 24.9545 37.8617 24.8287 37.8723 24.7877C37.8975 24.6902 37.9015 24.6109 37.9025 24.5946C37.9054 24.5427 37.9035 24.5017 37.9032 24.494C37.902 24.4675 37.9 24.4462 37.8996 24.441C37.8981 24.4252 37.8964 24.4105 37.8955 24.4025C37.8933 24.3836 37.8902 24.3599 37.8869 24.3339C37.88 24.2805 37.8695 24.2027 37.8558 24.1018C37.8283 23.8993 37.7865 23.5967 37.7306 23.1947L36.7402 23.3324ZM36.904 24.5378L37.9039 24.5253L37.9027 24.4253L36.9028 24.4378L35.9028 24.4503L35.9041 24.5503L36.904 24.5378ZM36.9028 24.4378L35.9031 24.4128L35.9006 24.5127L36.9003 24.5377L37.9 24.5627L37.9025 24.4628L36.9028 24.4378Z" fill="#1F724B"/>
<path d="M37.2374 0.114727C36.7483 -0.141908 36.1439 0.0464905 35.8872 0.535527C35.6306 1.02456 35.819 1.62905 36.308 1.88569L36.7727 1.00021L37.2374 0.114727ZM36.8613 1.04667L36.3966 1.93215C36.4051 1.93662 36.4136 1.94095 36.4223 1.94517L36.8613 1.04667ZM41.7511 3.40952L42.3448 4.21422C42.4856 4.11032 42.5967 3.97128 42.667 3.811L41.7511 3.40952ZM41.5901 3.52828L40.9965 2.72358C40.7192 2.9281 40.5668 3.2609 40.593 3.60439C40.6193 3.94787 40.8204 4.25368 41.1255 4.41376L41.5901 3.52828ZM41.214 4.46023C41.703 4.71686 42.3075 4.52847 42.5642 4.03943C42.8208 3.55039 42.6324 2.94591 42.1434 2.68927L41.6787 3.57475L41.214 4.46023ZM36.7727 1.00021L36.308 1.88569L36.3966 1.93215L36.8613 1.04667L37.3259 0.161195L37.2374 0.114727L36.7727 1.00021ZM36.8613 1.04667L36.4223 1.94517C37.6818 2.56054 38.6166 3.04011 39.2372 3.38716L39.7253 2.51438L40.2134 1.6416C39.5436 1.26701 38.5691 0.768103 37.3002 0.148178L36.8613 1.04667ZM39.7253 2.51438L39.2372 3.38716C39.9071 3.76181 40.5412 4.0441 41.0937 4.13631L41.2583 3.14995L41.4229 2.16359C41.2218 2.13002 40.8339 1.98861 40.2134 1.6416L39.7253 2.51438ZM41.2583 3.14995L41.0937 4.13631C41.2638 4.16469 41.2654 4.18221 41.1981 4.14678C41.1677 4.13075 41.0078 4.0456 40.8861 3.83929C40.8185 3.72472 40.768 3.58043 40.7603 3.4158C40.7528 3.25324 40.7889 3.11369 40.8352 3.00804L41.7511 3.40952L42.667 3.811C42.7999 3.50769 42.7966 3.14172 42.6089 2.82337C42.4582 2.56789 42.2427 2.43653 42.1301 2.37723C41.8986 2.25528 41.6297 2.19809 41.4229 2.16359L41.2583 3.14995ZM41.7511 3.40952L41.1574 2.60482L40.9965 2.72358L41.5901 3.52828L42.1838 4.33298L42.3448 4.21422L41.7511 3.40952ZM41.5901 3.52828L41.1255 4.41376L41.214 4.46023L41.6787 3.57475L42.1434 2.68927L42.0548 2.6428L41.5901 3.52828Z" fill="#1F724B"/>
<path d="M53.9924 12.8128C54.0804 12.2676 53.7098 11.7542 53.1646 11.6662C52.6194 11.5782 52.106 11.9488 52.018 12.494L53.0052 12.6534L53.9924 12.8128ZM52.9892 12.7521L53.9703 12.9455C53.9726 12.9342 53.9746 12.9229 53.9764 12.9115L52.9892 12.7521ZM51.0323 23.3702L50.845 24.3525C51.0055 24.3831 51.171 24.3739 51.327 24.3258L51.0323 23.3702ZM51.2362 23.3073L52.2225 23.4723C52.2798 23.1303 52.1557 22.783 51.8946 22.5546C51.6336 22.3263 51.2729 22.2495 50.9415 22.3517L51.2362 23.3073ZM50.2334 23.2409C50.1423 23.7856 50.51 24.3011 51.0547 24.3922C51.5994 24.4833 52.1149 24.1157 52.206 23.5709L51.2197 23.4059L50.2334 23.2409ZM53.0052 12.6534L52.018 12.494L52.002 12.5927L52.9892 12.7521L53.9764 12.9115L53.9924 12.8128L53.0052 12.6534ZM52.9892 12.7521L52.0081 12.5587C51.6373 14.44 51.3384 15.8509 51.111 16.7996L52.0834 17.0327L53.0558 17.2659C53.293 16.2768 53.5981 14.8339 53.9703 12.9455L52.9892 12.7521ZM52.0834 17.0327L51.111 16.7996C50.8626 17.8355 50.7224 18.8888 50.6905 19.9583L51.69 19.9882L52.6896 20.0181C52.7175 19.0848 52.8396 18.1678 53.0558 17.2659L52.0834 17.0327ZM51.69 19.9882L50.6905 19.9583C50.6626 20.8897 50.5253 21.5587 50.3276 22.0143L51.245 22.4124L52.1623 22.8105C52.4981 22.0366 52.6575 21.0895 52.6896 20.0181L51.69 19.9882ZM51.245 22.4124L50.3276 22.0143C50.1895 22.3327 50.0727 22.6386 50.0155 22.8961C49.9903 23.0096 49.9509 23.2201 49.9875 23.4526C50.0072 23.5774 50.0585 23.7726 50.2053 23.9614C50.3686 24.1713 50.598 24.3054 50.845 24.3525L51.0323 23.3702L51.2195 22.3879C51.4354 22.429 51.6396 22.5479 51.7839 22.7334C51.9118 22.8977 51.9502 23.0593 51.9631 23.1413C51.9862 23.288 51.9577 23.3757 51.968 23.3297C51.9817 23.2678 52.0337 23.1068 52.1623 22.8105L51.245 22.4124ZM51.0323 23.3702L51.327 24.3258L51.531 24.2629L51.2362 23.3073L50.9415 22.3517L50.7376 22.4146L51.0323 23.3702ZM51.2362 23.3073L50.2499 23.1422L50.2334 23.2409L51.2197 23.4059L52.206 23.5709L52.2225 23.4723L51.2362 23.3073Z" fill="#1F724B"/>
<path d="M51.7887 15.9538C51.439 16.3812 51.5021 17.0113 51.9296 17.361C52.3571 17.7106 52.9871 17.6476 53.3368 17.2201L52.5627 16.5869L51.7887 15.9538ZM52.6261 16.5095L53.4001 17.1427C53.4155 17.1239 53.4302 17.1045 53.4442 17.0845L52.6261 16.5095ZM62.0094 11.4919L61.2063 12.0879L62.0094 11.4919ZM65.1097 19.6762L66.0829 19.4463L65.1097 19.6762ZM65.3709 22.6342L64.3725 22.5777L65.3709 22.6342ZM65.5288 25.4444L64.5453 25.6257L65.5288 25.4444ZM65.5834 26.771L65.1626 27.6781C65.3116 27.7472 65.4753 27.7786 65.6393 27.7694L65.5834 26.771ZM65.3908 26.6816L65.8117 25.7745C65.4943 25.6272 65.123 25.6566 64.8327 25.8519C64.5423 26.0472 64.3752 26.38 64.392 26.7295L65.3908 26.6816ZM64.3968 26.8294C64.4232 27.3811 64.8919 27.8068 65.4435 27.7803C65.9952 27.7539 66.4209 27.2852 66.3945 26.7336L65.3956 26.7815L64.3968 26.8294ZM52.5627 16.5869L53.3368 17.2201L53.4001 17.1427L52.6261 16.5095L51.852 15.8764L51.7887 15.9538L52.5627 16.5869ZM52.6261 16.5095L53.4442 17.0845C54.5423 15.5221 55.3805 14.3572 55.9623 13.5841L55.1632 12.9828L54.3641 12.3816C53.7624 13.1813 52.9092 14.3676 51.8079 15.9345L52.6261 16.5095ZM55.1632 12.9828L55.9623 13.5841C56.4993 12.8702 57.1219 12.2423 57.8318 11.6985L57.2237 10.9047L56.6156 10.1108C55.7616 10.765 55.0105 11.5225 54.3641 12.3816L55.1632 12.9828ZM57.2237 10.9047L57.8318 11.6985C58.4215 11.2468 59.0139 11.0873 59.6552 11.1641L59.7742 10.1712L59.8931 9.17833C58.6977 9.03511 57.5898 9.36455 56.6156 10.1108L57.2237 10.9047ZM59.7742 10.1712L59.6552 11.1641C60.2894 11.2401 60.7915 11.5289 61.2063 12.0879L62.0094 11.4919L62.8124 10.896C62.0837 9.91413 61.0956 9.3224 59.8931 9.17833L59.7742 10.1712ZM62.0094 11.4919L61.2063 12.0879C61.7364 12.8021 62.1944 13.5748 62.5801 14.4074L63.4875 13.9871L64.3949 13.5668C63.9533 12.6135 63.4259 11.7227 62.8124 10.896L62.0094 11.4919ZM63.4875 13.9871L62.5801 14.4074C62.9642 15.2366 63.2577 16.0975 63.4608 16.9912L64.4359 16.7695L65.4111 16.5479C65.1769 15.5177 64.8381 14.5237 64.3949 13.5668L63.4875 13.9871ZM64.4359 16.7695L63.4608 16.9912C63.6801 17.9559 63.9053 18.9276 64.1365 19.9061L65.1097 19.6762L66.0829 19.4463C65.853 18.4731 65.6291 17.507 65.4111 16.5479L64.4359 16.7695ZM65.1097 19.6762L64.1365 19.9061C64.345 20.7887 64.4235 21.6782 64.3725 22.5777L65.3709 22.6342L66.3693 22.6908C66.4312 21.5979 66.3355 20.5155 66.0829 19.4463L65.1097 19.6762ZM65.3709 22.6342L64.3725 22.5777C64.3121 23.6441 64.3676 24.6613 64.5453 25.6257L65.5288 25.4444L66.5122 25.2632C66.3666 24.4728 66.3169 23.6166 66.3693 22.6908L65.3709 22.6342ZM65.5288 25.4444L64.5453 25.6257C64.6244 26.0546 64.6584 26.3276 64.6645 26.4753C64.6681 26.5617 64.6583 26.5336 64.6777 26.4524C64.6869 26.4137 64.721 26.2809 64.832 26.137C64.9656 25.9639 65.2039 25.7907 65.5276 25.7725L65.5834 26.771L65.6393 27.7694C65.9942 27.7496 66.2594 27.5609 66.4154 27.3589C66.5487 27.1861 66.6007 27.0107 66.6232 26.9158C66.6693 26.7224 66.6684 26.5276 66.6628 26.3929C66.6507 26.0984 66.5948 25.7116 66.5122 25.2632L65.5288 25.4444ZM65.5834 26.771L66.0043 25.8639L65.8117 25.7745L65.3908 26.6816L64.9699 27.5887L65.1626 27.6781L65.5834 26.771ZM65.3908 26.6816L64.392 26.7295L64.3968 26.8294L65.3956 26.7815L66.3945 26.7336L66.3897 26.6337L65.3908 26.6816Z" fill="#1F724B"/>
<path d="M87.9802 13.86C88.5299 13.9131 89.0186 13.5105 89.0716 12.9607C89.1247 12.411 88.7221 11.9223 88.1724 11.8693L88.0763 12.8646L87.9802 13.86ZM87.9767 12.855L88.0728 11.8596C88.0661 11.859 88.0593 11.8584 88.0525 11.8579L87.9767 12.855ZM83.6374 12.4417L83.5056 13.433L83.6374 12.4417ZM80.7038 12.3642L80.6237 11.3674L80.7038 12.3642ZM78.8713 19.0376L78.2891 19.8506L78.8713 19.0376ZM81.3787 20.6281L81.8664 19.7551L81.3787 20.6281ZM86.2515 28.1308L86.9505 28.8459L86.2515 28.1308ZM83.8086 29.7516L84.1946 30.6741L83.8086 29.7516ZM81.008 30.775L81.3081 31.7289L81.008 30.775ZM79.0036 31.2129L78.9097 32.2085C78.9342 32.2108 78.9588 32.2122 78.9835 32.2127L79.0036 31.2129ZM78.5218 31.1674L78.6157 30.1719C78.4694 30.1581 78.3218 30.1767 78.1835 30.2264L78.5218 31.1674ZM78.0894 30.2602C77.5697 30.4471 77.2998 31.0199 77.4867 31.5396C77.6735 32.0593 78.2463 32.3292 78.766 32.1423L78.4277 31.2013L78.0894 30.2602ZM88.0763 12.8646L88.1724 11.8693L88.0728 11.8596L87.9767 12.855L87.8806 13.8504L87.9802 13.86L88.0763 12.8646ZM87.9767 12.855L88.0525 11.8579C86.1436 11.7129 84.7197 11.5768 83.7692 11.4504L83.6374 12.4417L83.5056 13.433C84.5135 13.5669 85.9825 13.7064 87.901 13.8521L87.9767 12.855ZM83.6374 12.4417L83.7692 11.4504C82.7203 11.311 81.6714 11.2832 80.6237 11.3674L80.7038 12.3642L80.784 13.361C81.6893 13.2882 82.5961 13.3121 83.5056 13.433L83.6374 12.4417ZM80.7038 12.3642L80.6237 11.3674C79.5899 11.4505 78.5695 11.6218 77.563 11.8809L77.8123 12.8493L78.0617 13.8177C78.9575 13.5871 79.8647 13.4349 80.784 13.361L80.7038 12.3642ZM77.8123 12.8493L77.563 11.8809C76.2607 12.2162 75.3788 13.0906 74.9864 14.3815L75.9432 14.6723L76.8999 14.9632C77.0975 14.3132 77.4617 13.9722 78.0617 13.8177L77.8123 12.8493ZM75.9432 14.6723L74.9864 14.3815C74.7956 15.0092 74.7531 15.648 74.9139 16.2702C75.075 16.8937 75.422 17.4295 75.897 17.8783L76.5838 17.1515L77.2706 16.4247C77.0235 16.1912 76.9027 15.9726 76.8503 15.7698C76.7975 15.5656 76.7957 15.306 76.8999 14.9632L75.9432 14.6723ZM76.5838 17.1515L75.897 17.8783C76.6518 18.5916 77.4492 19.2491 78.2891 19.8506L78.8713 19.0376L79.4536 18.2246C78.6877 17.676 77.9601 17.0762 77.2706 16.4247L76.5838 17.1515ZM78.8713 19.0376L78.2891 19.8506C79.1226 20.4475 79.9899 20.9977 80.8909 21.5011L81.3787 20.6281L81.8664 19.7551C81.0301 19.2878 80.2259 18.7777 79.4536 18.2246L78.8713 19.0376ZM81.3787 20.6281L80.8909 21.5011C81.7831 21.9995 82.693 22.4607 83.6207 22.8848L84.0364 21.9753L84.4521 21.0658C83.5735 20.6642 82.7116 20.2273 81.8664 19.7551L81.3787 20.6281ZM84.0364 21.9753L83.6207 22.8848C84.4567 23.2669 85.2181 23.7259 85.9075 24.2607L86.5205 23.4706L87.1334 22.6805C86.3171 22.0472 85.4225 21.5093 84.4521 21.0658L84.0364 21.9753ZM86.5205 23.4706L85.9075 24.2607C86.3954 24.6392 86.5586 25.0481 86.493 25.5966L87.4859 25.7154L88.4788 25.8342C88.6316 24.5576 88.1512 23.4701 87.1334 22.6805L86.5205 23.4706ZM87.4859 25.7154L86.493 25.5966C86.4133 26.2626 86.1181 26.8627 85.5524 27.4158L86.2515 28.1308L86.9505 28.8459C87.8124 28.0033 88.3401 26.9931 88.4788 25.8342L87.4859 25.7154ZM86.2515 28.1308L85.5524 27.4158C84.9284 28.0259 84.2202 28.4954 83.4227 28.829L83.8086 29.7516L84.1946 30.6741C85.2267 30.2423 86.1471 29.6314 86.9505 28.8459L86.2515 28.1308ZM83.8086 29.7516L83.4227 28.829C82.5362 29.1999 81.6313 29.5306 80.7078 29.8211L81.008 30.775L81.3081 31.7289C82.2893 31.4202 83.2515 31.0686 84.1946 30.6741L83.8086 29.7516ZM81.008 30.775L80.7078 29.8211C79.7447 30.1242 79.2228 30.2171 79.0237 30.2131L79.0036 31.2129L78.9835 32.2127C79.5523 32.2241 80.3667 32.0251 81.3081 31.7289L81.008 30.775ZM79.0036 31.2129L79.0975 30.2173L78.6157 30.1719L78.5218 31.1674L78.4279 32.163L78.9097 32.2085L79.0036 31.2129ZM78.5218 31.1674L78.1835 30.2264L78.0894 30.2602L78.4277 31.2013L78.766 32.1423L78.8601 32.1085L78.5218 31.1674Z" fill="#1F724B"/>
</svg>
