<svg width="83" height="39" viewBox="0 0 83 39" fill="none" xmlns="http://www.w3.org/2000/svg">
<path d="M2.00329 3.21238C1.98597 2.66036 1.52443 2.22691 0.972414 2.24424C0.420401 2.26157 -0.0130489 2.72311 0.00427634 3.27512L1.00378 3.24375L2.00329 3.21238ZM1.00692 3.3437L2.00688 3.35238C2.007 3.33903 2.00685 3.32568 2.00643 3.31233L1.00692 3.3437ZM8.73321 27.8192L8.56445 28.8048L8.73321 27.8192ZM23.4308 27.5943L23.7061 28.5557L23.4308 27.5943ZM26.3492 26.9938L26.2223 26.0019L26.3492 26.9938ZM35.1497 25.3723L35.3739 26.3468L35.1497 25.3723ZM38.0582 24.719L37.8441 23.7422L38.0582 24.719ZM41.4941 23.5837L42.0591 24.4088C42.4014 24.1744 42.5634 23.753 42.4663 23.3497L41.4941 23.5837ZM41.4058 23.6442L40.8408 22.8191C40.4429 23.0916 40.2961 23.6092 40.4918 24.0499C40.6874 24.4907 41.1698 24.729 41.6387 24.6167L41.4058 23.6442ZM41.736 24.5934C42.2731 24.4647 42.6042 23.9251 42.4755 23.388C42.3469 22.8509 41.8072 22.5198 41.2701 22.6484L41.503 23.6209L41.736 24.5934ZM1.00378 3.24375L0.00427634 3.27512L0.00741339 3.37507L1.00692 3.3437L2.00643 3.31233L2.00329 3.21238L1.00378 3.24375ZM1.00692 3.3437L0.0069589 3.33501C-0.00974762 5.25841 0.00343728 6.73555 0.0480719 7.75584L1.04712 7.71213L2.04616 7.66843C2.00387 6.70169 1.99026 5.26654 2.00688 3.35238L1.00692 3.3437ZM1.04712 7.71213L0.0480719 7.75584C0.0926485 8.77481 0.176079 9.79106 0.298353 10.8045L1.29115 10.6848L2.28395 10.565C2.16777 9.60199 2.08851 8.63649 2.04616 7.66843L1.04712 7.71213ZM1.29115 10.6848L0.298353 10.8045C0.409413 11.7251 0.426597 12.6528 0.349491 13.5888L1.34612 13.6709L2.34274 13.753C2.43081 12.6839 2.41135 11.6209 2.28395 10.565L1.29115 10.6848ZM1.34612 13.6709L0.349491 13.5888C0.262773 14.6415 0.255976 15.691 0.329303 16.7369L1.32685 16.6669L2.32441 16.597C2.25824 15.6532 2.26428 14.7054 2.34274 13.753L1.34612 13.6709ZM1.32685 16.6669L0.329303 16.7369C0.400441 17.7515 0.501855 18.7643 0.633535 19.7751L1.62516 19.646L2.61678 19.5168C2.49021 18.5452 2.39276 17.5719 2.32441 16.597L1.32685 16.6669ZM1.62516 19.646L0.633535 19.7751C0.768856 20.8139 0.978379 21.8407 1.2619 22.8552L2.225 22.586L3.18809 22.3169C2.93007 21.3937 2.7397 20.4604 2.61678 19.5168L1.62516 19.646ZM2.225 22.586L1.2619 22.8552C1.56776 23.9496 2.07083 24.9448 2.76888 25.8335L3.55528 25.2158L4.34169 24.5981C3.80756 23.9181 3.42377 23.1601 3.18809 22.3169L2.225 22.586ZM3.55528 25.2158L2.76888 25.8335C3.49015 26.7517 4.39728 27.4434 5.47647 27.9L5.86612 26.979L6.25577 26.058C5.48601 25.7324 4.85259 25.2485 4.34169 24.5981L3.55528 25.2158ZM5.86612 26.979L5.47647 27.9C6.47166 28.321 7.50146 28.6228 8.56445 28.8048L8.73321 27.8192L8.90198 26.8335C7.99112 26.6775 7.10953 26.4192 6.25577 26.058L5.86612 26.979ZM8.73321 27.8192L8.56445 28.8048C9.52931 28.97 10.4846 29.1669 11.4305 29.3955L11.6654 28.4235L11.9003 27.4514C10.9104 27.2122 9.91097 27.0063 8.90198 26.8335L8.73321 27.8192ZM11.6654 28.4235L11.4305 29.3955C12.5201 29.6588 13.6261 29.7144 14.7422 29.563L14.6077 28.5721L14.4733 27.5812C13.6019 27.6994 12.7464 27.6559 11.9003 27.4514L11.6654 28.4235ZM14.6077 28.5721L14.7422 29.563C15.6514 29.4396 16.5622 29.4329 17.4765 29.5429L17.596 28.5501L17.7155 27.5573C16.6329 27.427 15.5514 27.4349 14.4733 27.5812L14.6077 28.5721ZM17.596 28.5501L17.4765 29.5429C18.5949 29.6775 19.7006 29.6094 20.7874 29.3379L20.545 28.3677L20.3026 27.3975C19.4543 27.6095 18.594 27.663 17.7155 27.5573L17.596 28.5501ZM20.545 28.3677L20.7874 29.3379C21.7659 29.0934 22.7388 28.8327 23.7061 28.5557L23.4308 27.5943L23.1556 26.633C22.2101 26.9037 21.2592 27.1585 20.3026 27.3975L20.545 28.3677ZM23.4308 27.5943L23.7061 28.5557C24.6137 28.2959 25.5369 28.1059 26.4761 27.9857L26.3492 26.9938L26.2223 26.0019C25.183 26.1348 24.1606 26.3452 23.1556 26.633L23.4308 27.5943ZM26.3492 26.9938L26.4761 27.9857C27.5249 27.8515 28.553 27.6246 29.5598 27.3051L29.2572 26.352L28.9547 25.3988C28.0626 25.682 27.152 25.8829 26.2223 26.0019L26.3492 26.9938ZM29.2572 26.352L29.5598 27.3051C30.431 27.0286 31.3282 26.8605 32.2534 26.8011L32.1893 25.8032L32.1253 24.8052C31.0399 24.8749 29.9824 25.0726 28.9547 25.3988L29.2572 26.352ZM32.1893 25.8032L32.2534 26.8011C33.3118 26.7332 34.3522 26.5818 35.3739 26.3468L35.1497 25.3723L34.9255 24.3977C34.0106 24.6082 33.0774 24.7441 32.1253 24.8052L32.1893 25.8032ZM35.1497 25.3723L35.3739 26.3468C36.3389 26.1248 37.305 25.9078 38.2723 25.6958L38.0582 24.719L37.8441 23.7422C36.8701 23.9557 35.8972 24.1742 34.9255 24.3977L35.1497 25.3723ZM38.0582 24.719L38.2723 25.6958C39.2836 25.4741 40.1633 25.2085 40.897 24.8909L40.4997 23.9732L40.1024 23.0555C39.5222 23.3067 38.7742 23.5383 37.8441 23.7422L38.0582 24.719ZM40.4997 23.9732L40.897 24.8909C41.2231 24.7497 41.457 24.6519 41.6057 24.5936C41.642 24.5794 41.6707 24.5686 41.6926 24.5606C41.7034 24.5566 41.7116 24.5537 41.7177 24.5517C41.7238 24.5495 41.7263 24.5488 41.7258 24.5489C41.7258 24.5489 41.719 24.5511 41.7074 24.5541C41.6979 24.5565 41.671 24.5633 41.6334 24.5693C41.6132 24.5725 41.5086 24.59 41.373 24.5741C41.3059 24.5663 41.1575 24.5426 40.9943 24.4489C40.806 24.3407 40.5981 24.1346 40.5218 23.8178L41.4941 23.5837L42.4663 23.3497C42.3021 22.6676 41.6495 22.5928 41.6053 22.5877C41.4638 22.5711 41.3509 22.5891 41.3198 22.5941C41.2348 22.6075 41.1626 22.6296 41.1313 22.6393C41.0536 22.6635 40.9639 22.6971 40.8763 22.7314C40.6935 22.803 40.4332 22.9123 40.1024 23.0555L40.4997 23.9732ZM41.4941 23.5837L40.9291 22.7586L40.8408 22.8191L41.4058 23.6442L41.9708 24.4693L42.0591 24.4088L41.4941 23.5837ZM41.4058 23.6442L41.6387 24.6167L41.736 24.5934L41.503 23.6209L41.2701 22.6484L41.1728 22.6717L41.4058 23.6442Z" fill="#FFA0B5"/>
<path d="M33.751 1.02078C33.7625 0.468612 33.3242 0.0116929 32.772 0.000219643C32.2198 -0.0112537 31.7629 0.427064 31.7514 0.97923L32.7512 1L33.751 1.02078ZM32.7491 1.09998L33.7487 1.13123L33.7489 1.12076L32.7491 1.09998ZM32.5322 8.44698L31.5434 8.59644L32.5322 8.44698ZM32.3723 14.4029L31.3835 14.2536L32.3723 14.4029ZM30.8752 37.0035L31.7478 37.492C31.7688 37.4544 31.7875 37.4155 31.8035 37.3754L30.8752 37.0035ZM30.7679 37.1951L29.8954 36.7066C29.8273 36.8281 29.7854 36.9626 29.7723 37.1013L30.7679 37.1951ZM29.763 37.2008C29.7111 37.7507 30.1148 38.2384 30.6647 38.2903C31.2145 38.3421 31.7023 37.9384 31.7541 37.3886L30.7585 37.2947L29.763 37.2008ZM32.7512 1L31.7514 0.97923L31.7494 1.07921L32.7491 1.09998L33.7489 1.12076L33.751 1.02078L32.7512 1ZM32.7491 1.09998L31.7496 1.06873C31.6899 2.97893 31.6021 4.39873 31.4896 5.34586L32.4826 5.46381L33.4756 5.58176C33.5986 4.54639 33.6884 3.05698 33.7487 1.13123L32.7491 1.09998ZM32.4826 5.46381L31.4896 5.34586C31.3612 6.42698 31.3794 7.51131 31.5434 8.59644L32.5322 8.44698L33.5209 8.29751C33.3834 7.38757 33.3685 6.48312 33.4756 5.58176L32.4826 5.46381ZM32.5322 8.44698L31.5434 8.59644C31.6841 9.52755 31.729 10.4543 31.6787 11.3776L32.6773 11.432L33.6758 11.4864C33.7336 10.4248 33.6818 9.36147 33.5209 8.29751L32.5322 8.44698ZM32.6773 11.432L31.6787 11.3776C31.6264 12.3381 31.528 13.2968 31.3835 14.2536L32.3723 14.4029L33.3611 14.5523C33.5151 13.5328 33.62 12.5108 33.6758 11.4864L32.6773 11.432ZM32.3723 14.4029L31.3835 14.2536C31.2299 15.2711 31.1222 16.2905 31.0607 17.3116L32.0588 17.3718L33.057 17.432C33.115 16.4709 33.2163 15.511 33.3611 14.5523L32.3723 14.4029ZM32.0588 17.3718L31.0607 17.3116C31.0006 18.3074 30.9476 19.3035 30.9016 20.2997L31.9005 20.3459L32.8995 20.392C32.9451 19.4051 32.9976 18.4184 33.057 17.432L32.0588 17.3718ZM31.9005 20.3459L30.9016 20.2997C30.8563 21.2807 30.7953 22.2606 30.7186 23.2396L31.7155 23.3177L32.7125 23.3958C32.7909 22.3956 32.8532 21.3943 32.8995 20.392L31.9005 20.3459ZM31.7155 23.3177L30.7186 23.2396C30.6375 24.2743 30.6265 25.3141 30.6854 26.3585L31.6838 26.3022L32.6822 26.2459C32.6283 25.2902 32.6385 24.3403 32.7125 23.3958L31.7155 23.3177ZM31.6838 26.3022L30.6854 26.3585C30.7384 27.2987 30.7067 28.2315 30.5904 29.1578L31.5826 29.2823L32.5748 29.4068C32.7063 28.3598 32.742 27.3059 32.6822 26.2459L31.6838 26.3022ZM31.5826 29.2823L30.5904 29.1578C30.4631 30.172 30.3783 31.19 30.3359 32.2118L31.335 32.2532L32.3342 32.2946C32.3743 31.3285 32.4545 30.3659 32.5748 29.4068L31.5826 29.2823ZM31.335 32.2532L30.3359 32.2118C30.2954 33.188 30.2291 34.1621 30.137 35.1338L31.1326 35.2282L32.1281 35.3225C32.2235 34.3155 32.2922 33.3062 32.3342 32.2946L31.335 32.2532ZM31.1326 35.2282L30.137 35.1338C30.0908 35.6213 30.0478 35.9981 30.0083 36.2706C29.963 36.5826 29.9347 36.6621 29.947 36.6315L30.8752 37.0035L31.8035 37.3754C31.8936 37.1507 31.947 36.8372 31.9876 36.5575C32.0339 36.2382 32.0806 35.8244 32.1281 35.3225L31.1326 35.2282ZM30.8752 37.0035L30.0027 36.5149L29.8954 36.7066L30.7679 37.1951L31.6405 37.6837L31.7478 37.492L30.8752 37.0035ZM30.7679 37.1951L29.7723 37.1013L29.763 37.2008L30.7585 37.2947L31.7541 37.3886L31.7635 37.289L30.7679 37.1951Z" fill="#FFA0B5"/>
<path d="M56.078 4.34405C55.5257 4.34601 55.0796 4.79531 55.0815 5.34759C55.0835 5.89987 55.5328 6.346 56.0851 6.34404L56.0815 5.34404L56.078 4.34405ZM56.1815 5.34369L56.1851 6.34368C56.2629 6.34341 56.3405 6.33404 56.4162 6.31577L56.1815 5.34369ZM60.4073 4.68051L60.3987 5.68048L60.4073 4.68051ZM63.2704 5.14754L62.9684 6.10082L63.2704 5.14754ZM67.3368 9.2632L68.191 8.74325L67.3368 9.2632ZM69.3799 14.7217L68.3843 14.8158L69.3799 14.7217ZM68.7773 17.4538L67.9046 16.9654L68.7773 17.4538ZM65.4749 22.4437L66.2919 23.0203L65.4749 22.4437ZM64.0143 25.0489L63.0967 24.6513L64.0143 25.0489ZM60.5356 29.8995L61.4176 30.3707L60.5356 29.8995ZM66.2784 35.4765L66.0528 36.4507L66.2784 35.4765ZM72.1626 36.4802L71.9771 37.4628L72.1626 36.4802ZM80.7618 36.9176L80.4812 37.8774L80.7618 36.9176ZM81.893 37.181L82.8892 37.2676C82.9183 36.9337 82.7781 36.6075 82.5159 36.3987L81.893 37.181ZM81.7991 37.1063L81.8896 36.1104C81.4496 36.0704 81.0355 36.3239 80.871 36.7339C80.7065 37.144 80.8306 37.6134 81.1762 37.8886L81.7991 37.1063ZM81.8082 38.1112C82.3582 38.1612 82.8446 37.7559 82.8946 37.2059C82.9446 36.6558 82.5393 36.1694 81.9892 36.1194L81.8987 37.1153L81.8082 38.1112ZM56.0815 5.34404L56.0851 6.34404L56.1851 6.34368L56.1815 5.34369L56.178 4.34369L56.078 4.34405L56.0815 5.34404ZM56.1815 5.34369L56.4162 6.31577C58.2652 5.86945 59.5751 5.67344 60.3987 5.68048L60.4073 4.68051L60.4158 3.68055C59.3357 3.67132 57.8285 3.91742 55.9469 4.37161L56.1815 5.34369ZM60.4073 4.68051L60.3987 5.68048C61.2457 5.68771 62.1013 5.82606 62.9684 6.10082L63.2704 5.14754L63.5725 4.19426C62.5259 3.86259 61.4726 3.68958 60.4158 3.68055L60.4073 4.68051ZM63.2704 5.14754L62.9684 6.10082C63.7313 6.34258 64.3493 6.77323 64.8442 7.40979L65.6337 6.79604L66.4232 6.1823C65.6808 5.22729 64.7234 4.55895 63.5725 4.19426L63.2704 5.14754ZM65.6337 6.79604L64.8442 7.40979C65.4398 8.17599 65.9859 8.96709 66.4826 9.78315L67.3368 9.2632L68.191 8.74325C67.6542 7.86133 67.0648 7.00766 66.4232 6.1823L65.6337 6.79604ZM67.3368 9.2632L66.4826 9.78315C66.9719 10.587 67.3955 11.4258 67.7536 12.3002L68.679 11.9211L69.6044 11.5421C69.2065 10.5706 68.7353 9.63743 68.191 8.74325L67.3368 9.2632ZM68.679 11.9211L67.7536 12.3002C68.0963 13.1369 68.3048 13.9746 68.3843 14.8158L69.3799 14.7217L70.3755 14.6276C70.2765 13.5807 70.0178 12.5514 69.6044 11.5421L68.679 11.9211ZM69.3799 14.7217L68.3843 14.8158C68.4533 15.5452 68.3028 16.254 67.9046 16.9654L68.7773 17.4538L69.6499 17.9421C70.2337 16.8989 70.485 15.7863 70.3755 14.6276L69.3799 14.7217ZM68.7773 17.4538L67.9046 16.9654C67.4293 17.8148 66.9165 18.6353 66.3662 19.4273L67.1875 19.9979L68.0087 20.5685C68.5962 19.723 69.1432 18.8475 69.6499 17.9421L68.7773 17.4538ZM67.1875 19.9979L66.3662 19.4273C65.7988 20.244 65.2293 21.0573 64.6578 21.8672L65.4749 22.4437L66.2919 23.0203C66.8662 22.2064 67.4385 21.3892 68.0087 20.5685L67.1875 19.9979ZM65.4749 22.4437L64.6578 21.8672C64.0448 22.7359 63.5245 23.6643 63.0967 24.6513L64.0143 25.0489L64.9318 25.4466C65.3058 24.5836 65.7592 23.7753 66.2919 23.0203L65.4749 22.4437ZM64.0143 25.0489L63.0967 24.6513C62.7473 25.4576 62.2581 26.1712 61.6239 26.7971L62.3264 27.5088L63.0289 28.2205C63.8435 27.4165 64.4795 26.4902 64.9318 25.4466L64.0143 25.0489ZM62.3264 27.5088L61.6239 26.7971C60.8295 27.5812 60.1715 28.4588 59.6535 29.4283L60.5356 29.8995L61.4176 30.3707C61.8386 29.5825 62.3745 28.8664 63.0289 28.2205L62.3264 27.5088ZM60.5356 29.8995L59.6535 29.4283C59.1587 30.3546 58.7655 31.2716 58.4785 32.1791L59.432 32.4807L60.3854 32.7822C60.631 32.0057 60.9735 31.202 61.4176 30.3707L60.5356 29.8995ZM59.432 32.4807L58.4785 32.1791C58.2899 32.7755 58.2659 33.453 58.6444 34.0577C59.0052 34.634 59.6068 34.9394 60.205 35.1044L60.4709 34.1404L60.7369 33.1764C60.3761 33.0769 60.3252 32.9733 60.3396 32.9965C60.3486 33.0107 60.3466 33.0194 60.3455 33.0007C60.344 32.9749 60.3462 32.9061 60.3854 32.7822L59.432 32.4807ZM60.4709 34.1404L60.205 35.1044C61.1848 35.3747 62.171 35.6124 63.1635 35.8175L63.3659 34.8382L63.5683 33.8589C62.6186 33.6626 61.6748 33.4351 60.7369 33.1764L60.4709 34.1404ZM63.3659 34.8382L63.1635 35.8175C64.1268 36.0166 65.0899 36.2277 66.0528 36.4507L66.2784 35.4765L66.5041 34.5023C65.5258 34.2757 64.5472 34.0612 63.5683 33.8589L63.3659 34.8382ZM66.2784 35.4765L66.0528 36.4507C67.0548 36.6828 68.0648 36.8658 69.0827 36.9996L69.213 36.0081L69.3433 35.0166C68.3896 34.8913 67.4433 34.7199 66.5041 34.5023L66.2784 35.4765ZM69.213 36.0081L69.0827 36.9996C70.0499 37.1267 71.0147 37.2811 71.9771 37.4628L72.1626 36.4802L72.3481 35.4975C71.3492 35.3089 70.3476 35.1486 69.3433 35.0166L69.213 36.0081ZM72.1626 36.4802L71.9771 37.4628C73.0106 37.6579 74.0528 37.7686 75.103 37.7948L75.1279 36.7951L75.1528 35.7954C74.2106 35.7719 73.2758 35.6727 72.3481 35.4975L72.1626 36.4802ZM75.1279 36.7951L75.103 37.7948C76.1349 37.8205 77.1706 37.7912 78.21 37.7072L78.1293 36.7104L78.0487 35.7137C77.0787 35.7921 76.1135 35.8193 75.1528 35.7954L75.1279 36.7951ZM78.1293 36.7104L78.21 37.7072C79.1265 37.633 79.8765 37.7006 80.4812 37.8774L80.7618 36.9176L81.0425 35.9578C80.1466 35.6958 79.1416 35.6253 78.0487 35.7137L78.1293 36.7104ZM80.7618 36.9176L80.4812 37.8774C80.8601 37.9882 81.1638 38.0715 81.3806 38.122C81.4825 38.1457 81.5989 38.1703 81.7054 38.1826C81.7471 38.1874 81.857 38.1995 81.9856 38.1851C82.0424 38.1787 82.1955 38.1584 82.3644 38.0669C82.5619 37.9598 82.8512 37.7054 82.8892 37.2676L81.893 37.181L80.8968 37.0944C80.9134 36.9034 80.9845 36.725 81.0965 36.5783C81.202 36.4399 81.3226 36.3567 81.4115 36.3085C81.574 36.2204 81.7179 36.2025 81.7626 36.1975C81.8236 36.1907 81.87 36.1918 81.8901 36.1925C81.9133 36.1934 81.9293 36.1952 81.9349 36.1958C81.9462 36.1971 81.9207 36.1942 81.8342 36.1741C81.6739 36.1368 81.4139 36.0664 81.0425 35.9578L80.7618 36.9176ZM81.893 37.181L82.5159 36.3987L82.422 36.324L81.7991 37.1063L81.1762 37.8886L81.2701 37.9634L81.893 37.181ZM81.7991 37.1063L81.7086 38.1022L81.8082 38.1112L81.8987 37.1153L81.9892 36.1194L81.8896 36.1104L81.7991 37.1063Z" fill="#FFA0B5"/>
<path d="M61.5783 16.7245C61.0315 16.647 60.5253 17.0274 60.4478 17.5742C60.3702 18.121 60.7506 18.6271 61.2974 18.7047L61.4379 17.7146L61.5783 16.7245ZM61.5369 17.7286L61.7448 16.7505C61.7224 16.7457 61.6999 16.7418 61.6773 16.7386L61.5369 17.7286ZM72.5041 19.2518L72.5734 20.2494C73.0463 20.2166 73.4311 19.8562 73.495 19.3865L72.5041 19.2518ZM72.4022 19.2589L72.3329 18.2613C71.8224 18.2968 71.421 18.712 71.4028 19.2234C71.3847 19.7349 71.7556 20.1775 72.2624 20.2491L72.4022 19.2589ZM72.3614 20.2631C72.9083 20.3403 73.4142 19.9596 73.4914 19.4127C73.5686 18.8658 73.1879 18.3599 72.6411 18.2827L72.5012 19.2729L72.3614 20.2631ZM61.4379 17.7146L61.2974 18.7047L61.3965 18.7187L61.5369 17.7286L61.6773 16.7386L61.5783 16.7245L61.4379 17.7146ZM61.5369 17.7286L61.329 18.7068C63.2255 19.1099 64.734 19.3423 65.8218 19.3808L65.8571 18.3814L65.8924 17.382C64.9829 17.3499 63.6113 17.1472 61.7448 16.7505L61.5369 17.7286ZM65.8571 18.3814L65.8218 19.3808C66.7396 19.4132 67.6415 19.5551 68.5292 19.807L68.8022 18.845L69.0752 17.883C68.0332 17.5873 66.9717 17.4201 65.8924 17.382L65.8571 18.3814ZM68.8022 18.845L68.5292 19.807C69.5577 20.0989 70.5149 20.2528 71.3892 20.2432L71.3782 19.2432L71.3671 18.2433C70.7365 18.2502 69.9763 18.1387 69.0752 17.883L68.8022 18.845ZM71.3782 19.2432L71.3892 20.2432C71.7641 20.239 72.0384 20.2378 72.2164 20.2391C72.3075 20.2398 72.3624 20.2411 72.3896 20.2424C72.4074 20.2432 72.3939 20.2431 72.3663 20.2398C72.3605 20.2391 72.3036 20.2327 72.2309 20.2124C72.2047 20.2051 72.0984 20.1757 71.9789 20.1021C71.9185 20.0649 71.7988 19.9829 71.693 19.8364C71.5737 19.6711 71.4722 19.4186 71.5132 19.1172L72.5041 19.2518L73.495 19.3865C73.5819 18.7472 73.0834 18.4334 73.0274 18.399C72.9065 18.3246 72.7982 18.2943 72.7691 18.2862C72.6908 18.2643 72.6253 18.2565 72.6079 18.2544C72.5573 18.2482 72.5088 18.2457 72.48 18.2444C72.4138 18.2414 72.3282 18.2399 72.2317 18.2392C72.0343 18.2377 71.7448 18.2391 71.3671 18.2433L71.3782 19.2432ZM72.5041 19.2518L72.4348 18.2542L72.3329 18.2613L72.4022 19.2589L72.4715 20.2565L72.5734 20.2494L72.5041 19.2518ZM72.4022 19.2589L72.2624 20.2491L72.3614 20.2631L72.5012 19.2729L72.6411 18.2827L72.542 18.2687L72.4022 19.2589Z" fill="#FFA0B5"/>
</svg>
