<svg width="29" height="25" viewBox="0 0 29 25" fill="none" xmlns="http://www.w3.org/2000/svg">
<path d="M6.50089 15.7654C6.91089 15.3953 6.94329 14.763 6.57326 14.353C6.20323 13.943 5.57089 13.9106 5.1609 14.2806L5.8309 15.023L6.50089 15.7654ZM5.75666 15.09L5.81899 16.088C6.04462 16.074 6.25883 15.9838 6.42666 15.8324L5.75666 15.09ZM3.75809 22.8533L3.55354 23.8321L3.75809 22.8533ZM25.758 15.9276L25.4446 16.8773L25.758 15.9276ZM22.9515 15.1148L22.7068 16.0843L22.9515 15.1148ZM20.013 15.0214L19.8297 14.0383L20.013 15.0214ZM17.9487 15.2456L17.8484 16.2407L17.8617 16.2418L17.9487 15.2456ZM17.4616 15.1966L17.5618 14.2016C17.5358 14.199 17.5097 14.1974 17.4835 14.1968L17.4616 15.1966ZM17.3836 14.1946C16.8314 14.1825 16.374 14.6203 16.3619 15.1724C16.3498 15.7246 16.7876 16.182 17.3397 16.1941L17.3616 15.1944L17.3836 14.1946ZM5.8309 15.023L5.1609 14.2806L5.08666 14.3476L5.75666 15.09L6.42666 15.8324L6.50089 15.7654L5.8309 15.023ZM5.75666 15.09L5.69433 14.0919C3.7095 14.2159 2.04325 14.6569 1.1127 15.7163L1.86402 16.3762L2.61533 17.0361C2.97737 16.624 3.90622 16.2075 5.81899 16.088L5.75666 15.09ZM1.86402 16.3762L1.1127 15.7163C0.284543 16.6591 -0.0838267 17.7916 0.0159427 19.0492L1.01281 18.9701L2.00968 18.891C1.95181 18.1616 2.15091 17.5649 2.61533 17.0361L1.86402 16.3762ZM1.01281 18.9701L0.0159427 19.0492C0.103644 20.1546 0.372858 21.1496 0.858309 22.0018L1.72722 21.5069L2.59613 21.0119C2.28668 20.4687 2.07962 19.7725 2.00968 18.891L1.01281 18.9701ZM1.72722 21.5069L0.858309 22.0018C1.42796 23.0019 2.38266 23.5874 3.55354 23.8321L3.75809 22.8533L3.96265 21.8744C3.2206 21.7193 2.82138 21.4073 2.59613 21.0119L1.72722 21.5069ZM3.75809 22.8533L3.55354 23.8321C4.54402 24.0391 5.54946 24.1954 6.56971 24.3012L6.67286 23.3066L6.776 22.3119C5.82282 22.213 4.8851 22.0672 3.96265 21.8744L3.75809 22.8533ZM6.67286 23.3066L6.56971 24.3012C7.58165 24.4062 8.596 24.4725 9.61269 24.5001L9.6399 23.5005L9.66711 22.5009C8.70117 22.4746 7.73748 22.4116 6.776 22.3119L6.67286 23.3066ZM9.6399 23.5005L9.61269 24.5001C10.5629 24.526 11.5157 24.6104 12.4711 24.7535L12.6193 23.7646L12.7674 22.7756C11.733 22.6206 10.6995 22.529 9.66711 22.5009L9.6399 23.5005ZM12.6193 23.7646L12.4711 24.7535C13.552 24.9154 14.6334 24.9352 15.7131 24.8121L15.5999 23.8186L15.4867 22.825C14.5822 22.9281 13.6765 22.9118 12.7674 22.7756L12.6193 23.7646ZM15.5999 23.8186L15.7131 24.8121C16.6949 24.7003 17.676 24.604 18.6563 24.5233L18.5743 23.5267L18.4923 22.5301C17.491 22.6125 16.4892 22.7108 15.4867 22.825L15.5999 23.8186ZM18.5743 23.5267L18.6563 24.5233C19.713 24.4364 20.7425 24.2468 21.7436 23.9541L21.4629 22.9943L21.1822 22.0345C20.3134 22.2885 19.4171 22.454 18.4923 22.5301L18.5743 23.5267ZM21.4629 22.9943L21.7436 23.9541C22.786 23.6492 23.7406 23.1836 24.6012 22.5563L24.0121 21.7482L23.4231 20.9401C22.7546 21.4274 22.0097 21.7924 21.1822 22.0345L21.4629 22.9943ZM24.0121 21.7482L24.6012 22.5563C25.4419 21.9436 26.1845 21.2227 26.8275 20.3961L26.0382 19.7821L25.2488 19.1681C24.7195 19.8485 24.1114 20.4384 23.4231 20.9401L24.0121 21.7482ZM26.0382 19.7821L26.8275 20.3961C27.503 19.5276 27.9257 18.5907 28.007 17.593L27.0103 17.5117L26.0136 17.4305C25.971 17.9529 25.7456 18.5295 25.2488 19.1681L26.0382 19.7821ZM27.0103 17.5117L28.007 17.593C28.0556 16.9968 27.9149 16.4148 27.5281 15.9255C27.1583 15.4576 26.6337 15.1636 26.0714 14.978L25.758 15.9276L25.4446 16.8773C25.7791 16.9877 25.9116 17.1057 25.9592 17.1658C25.9898 17.2046 26.0269 17.2666 26.0136 17.4305L27.0103 17.5117ZM25.758 15.9276L26.0714 14.978C25.1506 14.6741 24.1921 14.3966 23.1963 14.1452L22.9515 15.1148L22.7068 16.0843C23.6593 16.3248 24.5718 16.5892 25.4446 16.8773L25.758 15.9276ZM22.9515 15.1148L23.1963 14.1452C22.0825 13.864 20.9569 13.8281 19.8297 14.0383L20.013 15.0214L20.1964 16.0044C21.0388 15.8473 21.8722 15.8737 22.7068 16.0843L22.9515 15.1148ZM20.013 15.0214L19.8297 14.0383C18.838 14.2233 18.2744 14.2703 18.0357 14.2494L17.9487 15.2456L17.8617 16.2418C18.4058 16.2893 19.2184 16.1868 20.1964 16.0044L20.013 15.0214ZM17.9487 15.2456L18.0489 14.2507L17.5618 14.2016L17.4616 15.1966L17.3614 16.1915L17.8485 16.2406L17.9487 15.2456ZM17.4616 15.1966L17.4835 14.1968L17.3836 14.1946L17.3616 15.1944L17.3397 16.1941L17.4397 16.1963L17.4616 15.1966Z" fill="#1F724B"/>
<path d="M7.88857 15.9552C8.30203 16.3213 8.93403 16.283 9.30018 15.8695C9.66633 15.4561 9.62797 14.8241 9.21451 14.4579L8.55154 15.2065L7.88857 15.9552ZM8.47667 15.1403L9.13964 14.3916C9.06191 14.3228 8.97392 14.2665 8.87885 14.2247L8.47667 15.1403ZM9.35446 8.85729L10.2695 9.26064C10.3207 9.14459 10.3493 9.01987 10.3538 8.89313L9.35446 8.85729ZM9.25846 9.07508L8.34341 8.67173C8.17394 9.0562 8.26287 9.50561 8.56601 9.79655C8.86914 10.0875 9.32182 10.1579 9.69901 9.97281L9.25846 9.07508ZM9.78878 9.92876C10.2846 9.68545 10.4893 9.08628 10.246 8.59048C10.0026 8.09468 9.40348 7.88999 8.90768 8.1333L9.34823 9.03103L9.78878 9.92876ZM8.55154 15.2065L9.21451 14.4579L9.13964 14.3916L8.47667 15.1403L7.8137 15.8889L7.88857 15.9552L8.55154 15.2065ZM8.47667 15.1403L8.87885 14.2247C7.14181 13.4617 5.84049 12.8586 4.96442 12.4128L4.51089 13.3041L4.05736 14.1953C4.9847 14.6672 6.32723 15.2883 8.07449 16.0558L8.47667 15.1403ZM4.51089 13.3041L4.96442 12.4128C4.63713 12.2463 4.54032 12.1047 4.51168 12.0429C4.49058 11.9974 4.45463 11.8885 4.53908 11.635L3.59034 11.3189L2.64159 11.0029C2.43805 11.6139 2.41152 12.2681 2.69728 12.8843C2.97549 13.4843 3.48295 13.903 4.05736 14.1953L4.51089 13.3041ZM3.59034 11.3189L4.53908 11.635C4.72375 11.0806 5.09347 10.6836 5.76166 10.4285L5.40501 9.49428L5.04836 8.56004C3.87298 9.00875 3.03293 9.82815 2.64159 11.0029L3.59034 11.3189ZM5.40501 9.49428L5.76166 10.4285C6.61502 10.1027 7.42156 9.90278 8.18347 9.81901L8.07419 8.825L7.9649 7.83099C7.01148 7.93581 6.03857 8.18203 5.04836 8.56004L5.40501 9.49428ZM8.07419 8.825L8.18347 9.81901C8.60305 9.77288 8.86913 9.75842 9.01229 9.76203C9.09663 9.76416 9.06813 9.77152 8.98983 9.74807C8.95403 9.73734 8.82116 9.69576 8.68174 9.57521C8.60544 9.50924 8.51694 9.41059 8.4501 9.27251C8.38101 9.12979 8.34962 8.97445 8.3551 8.82145L9.35446 8.85729L10.3538 8.89313C10.3672 8.51951 10.1856 8.2316 9.9899 8.06235C9.82458 7.91941 9.65235 7.85872 9.56373 7.83218C9.37978 7.77708 9.19177 7.76592 9.06272 7.76267C8.77912 7.75551 8.40299 7.78282 7.9649 7.83099L8.07419 8.825ZM9.35446 8.85729L8.43942 8.45394L8.34341 8.67173L9.25846 9.07508L10.1735 9.47844L10.2695 9.26064L9.35446 8.85729ZM9.25846 9.07508L9.69901 9.97281L9.78878 9.92876L9.34823 9.03103L8.90768 8.1333L8.8179 8.17736L9.25846 9.07508Z" fill="#1F724B"/>
<path d="M14.6952 13.8586C14.1792 14.0555 13.9204 14.6333 14.1172 15.1494C14.3141 15.6654 14.8919 15.9241 15.408 15.7273L15.0516 14.793L14.6952 13.8586ZM15.145 14.7573L15.3349 13.7755C15.1519 13.7401 14.9627 13.7566 14.7886 13.823L15.145 14.7573ZM19.2792 14.5003L18.7378 13.6595L19.2792 14.5003ZM16.1415 9.4974L15.5777 8.67151C15.1904 8.93591 15.0388 9.4339 15.2132 9.86921L16.1415 9.4974ZM16.2038 9.45485L16.7676 10.2807C17.0755 10.0705 17.2409 9.70654 17.1968 9.33637C17.1526 8.9662 16.9062 8.65133 16.5575 8.51948L16.2038 9.45485ZM16.464 8.48411C15.9474 8.28878 15.3702 8.54922 15.1749 9.06581C14.9796 9.5824 15.24 10.1595 15.7566 10.3549L16.1103 9.41948L16.464 8.48411ZM15.0516 14.793L15.408 15.7273L15.5014 15.6917L15.145 14.7573L14.7886 13.823L14.6952 13.8586L15.0516 14.793ZM15.145 14.7573L14.9551 15.7391C16.9131 16.1178 18.6327 16.1058 19.8205 15.3411L19.2792 14.5003L18.7378 13.6595C18.2428 13.9782 17.2063 14.1375 15.3349 13.7755L15.145 14.7573ZM19.2792 14.5003L19.8205 15.3411C20.7417 14.748 21.5706 14.0313 22.3064 13.1942L21.5553 12.534L20.8041 11.8738C20.1879 12.575 19.4994 13.1691 18.7378 13.6595L19.2792 14.5003ZM21.5553 12.534L22.3064 13.1942C22.7385 12.7025 23.0583 12.1118 23.0776 11.4344C23.0974 10.7418 22.7985 10.143 22.3598 9.65803L21.6182 10.3289L20.8766 10.9997C21.072 11.2157 21.0796 11.3349 21.0784 11.3773C21.0768 11.4349 21.048 11.5963 20.8041 11.8738L21.5553 12.534ZM21.6182 10.3289L22.3598 9.65803C21.5713 8.78633 20.5595 8.23505 19.3696 7.99295L19.1702 8.97288L18.9708 9.9528C19.7768 10.1168 20.397 10.4695 20.8766 10.9997L21.6182 10.3289ZM19.1702 8.97288L19.3696 7.99295C18.293 7.7739 17.2321 7.76649 16.4057 8.266L16.923 9.12181L17.4403 9.97763C17.6143 9.87246 18.0516 9.76576 18.9708 9.9528L19.1702 8.97288ZM16.923 9.12181L16.4057 8.266C16.1613 8.41373 16.0046 8.50014 15.9193 8.54115C15.8672 8.56619 15.8881 8.55153 15.9501 8.53541C15.9706 8.53006 16.091 8.49749 16.255 8.51305C16.3437 8.52146 16.4936 8.54825 16.6545 8.64268C16.8318 8.74678 16.9842 8.91185 17.0698 9.12559L16.1415 9.4974L15.2132 9.86921C15.4137 10.3698 15.8718 10.4857 16.0661 10.5041C16.2502 10.5216 16.3983 10.4854 16.454 10.4709C16.5863 10.4364 16.7075 10.3813 16.7856 10.3438C16.9608 10.2596 17.1845 10.1322 17.4403 9.97763L16.923 9.12181ZM16.1415 9.4974L16.7053 10.3233L16.7676 10.2807L16.2038 9.45485L15.64 8.62896L15.5777 8.67151L16.1415 9.4974ZM16.2038 9.45485L16.5575 8.51948L16.464 8.48411L16.1103 9.41948L15.7566 10.3549L15.8501 10.3902L16.2038 9.45485Z" fill="#1F724B"/>
<path d="M9.21476 9.24278C9.50628 9.71186 10.1229 9.8558 10.5919 9.56429C11.061 9.27278 11.205 8.65619 10.9135 8.18711L10.0641 8.71494L9.21476 9.24278ZM10.0113 8.63001L10.8607 8.10217C10.7122 7.86322 10.4699 7.69787 10.1932 7.64669L10.0113 8.63001ZM6.79841 4.36687L7.49435 5.08497L6.79841 4.36687ZM12.0482 1.57722L11.0933 1.87406L12.0482 1.57722ZM13.7808 3.55893L13.2972 4.43422L13.7808 3.55893ZM16.2686 5.24071L15.6335 6.01316L16.2686 5.24071ZM16.6278 7.12885L15.8547 6.49459L16.6278 7.12885ZM15.9807 8.14196L15.5594 9.04887C15.7779 9.15039 16.0257 9.1696 16.2573 9.10296L15.9807 8.14196ZM16.0616 8.11869L16.9134 7.5948C16.6781 7.21225 16.2166 7.03349 15.785 7.1577L16.0616 8.11869ZM15.2622 8.72776C15.5515 9.19819 16.1674 9.34499 16.6378 9.05566C17.1083 8.76632 17.2551 8.15041 16.9657 7.67998L16.114 8.20387L15.2622 8.72776ZM10.0641 8.71494L10.9135 8.18711L10.8607 8.10217L10.0113 8.63001L9.16198 9.15784L9.21476 9.24278L10.0641 8.71494ZM10.0113 8.63001L10.1932 7.64669C8.29356 7.29524 7.53863 6.73653 7.31333 6.29155L6.42117 6.74327L5.52901 7.19499C6.21433 8.54853 7.85284 9.24764 9.82941 9.61332L10.0113 8.63001ZM6.42117 6.74327L7.31333 6.29155C7.15611 5.98103 7.13937 5.77171 7.16163 5.6315C7.18347 5.49395 7.2603 5.3118 7.49435 5.08497L6.79841 4.36687L6.10246 3.64878C5.62971 4.10695 5.29027 4.66336 5.18636 5.31795C5.08287 5.96987 5.23092 6.60625 5.52901 7.19499L6.42117 6.74327ZM6.79841 4.36687L7.49435 5.08497C8.01869 4.5768 8.64939 4.30341 9.43925 4.26639L9.39244 3.26749L9.34562 2.26858C8.09038 2.32741 6.99173 2.78694 6.10246 3.64878L6.79841 4.36687ZM9.39244 3.26749L9.43925 4.26639C10.1028 4.23529 10.734 4.05193 11.254 3.64206C11.7776 3.22934 12.0978 2.65855 12.2632 2.01806L11.295 1.76798L10.3268 1.51791C10.2464 1.82917 10.1265 1.98416 10.016 2.07128C9.90184 2.16124 9.70461 2.25176 9.34562 2.26858L9.39244 3.26749ZM11.295 1.76798L12.2632 2.01806C12.3182 1.80516 12.3601 1.69803 12.3786 1.66027C12.3879 1.64123 12.374 1.67596 12.3266 1.73021C12.2832 1.77978 12.1505 1.91576 11.9132 1.97587C11.639 2.04532 11.3922 1.9728 11.2303 1.87119C11.0956 1.78663 11.0338 1.6934 11.0249 1.68007C11.0072 1.65349 11.0372 1.69352 11.0933 1.87406L12.0482 1.57722L13.0031 1.28037C12.9311 1.04863 12.8335 0.787395 12.689 0.570567C12.5883 0.419655 12.158 -0.149287 11.4221 0.0370908C11.122 0.113098 10.9267 0.292731 10.821 0.413707C10.7111 0.53937 10.6349 0.673258 10.5821 0.781135C10.4764 0.997211 10.3947 1.25494 10.3268 1.51791L11.295 1.76798ZM12.0482 1.57722L11.0933 1.87406C11.4404 2.99063 12.2182 3.83804 13.2972 4.43422L13.7808 3.55893L14.2644 2.68364C13.546 2.28668 13.1687 1.81294 13.0031 1.28037L12.0482 1.57722ZM13.7808 3.55893L13.2972 4.43422C14.1448 4.90251 14.923 5.42905 15.6335 6.01316L16.2686 5.24071L16.9037 4.46827C16.0947 3.80314 15.2144 3.20849 14.2644 2.68364L13.7808 3.55893ZM16.2686 5.24071L15.6335 6.01316C15.9249 6.25276 15.9477 6.37817 15.9458 6.36811C15.9436 6.35681 15.9465 6.34647 15.9447 6.35199C15.941 6.36375 15.9227 6.41173 15.8547 6.49459L16.6278 7.12885L17.4009 7.7631C17.7922 7.28618 18.0406 6.6781 17.9105 5.99431C17.7889 5.35487 17.3719 4.85328 16.9037 4.46827L16.2686 5.24071ZM16.6278 7.12885L15.8547 6.49459C15.5897 6.81756 15.3744 7.09823 15.2331 7.31944C15.1699 7.41843 15.0794 7.56923 15.0229 7.73799C14.9976 7.81371 14.9427 7.9952 14.9677 8.22201C14.9992 8.50856 15.1677 8.8669 15.5594 9.04887L15.9807 8.14196L16.402 7.23506C16.5583 7.30765 16.7024 7.42585 16.8068 7.58685C16.9065 7.74071 16.9435 7.89241 16.9557 8.00317C16.9775 8.20114 16.9289 8.34452 16.9195 8.37287C16.8947 8.44688 16.874 8.46589 16.9186 8.39602C16.993 8.27952 17.1456 8.07427 17.4009 7.7631L16.6278 7.12885ZM15.9807 8.14196L16.2573 9.10296L16.3381 9.07969L16.0616 8.11869L15.785 7.1577L15.7041 7.18097L15.9807 8.14196ZM16.0616 8.11869L15.2098 8.64258L15.2622 8.72776L16.114 8.20387L16.9657 7.67998L16.9134 7.5948L16.0616 8.11869Z" fill="#1F724B"/>
</svg>
