<svg width="152" height="53" viewBox="0 0 152 53" fill="none" xmlns="http://www.w3.org/2000/svg">
<path d="M1.02278 0.74334C0.470643 0.730757 0.0128428 1.16815 0.000259578 1.7203C-0.0123236 2.27244 0.425075 2.73024 0.977216 2.74282L1 1.74308L1.02278 0.74334ZM1.09997 1.74536L1.07719 2.7451C1.1089 2.74582 1.14062 2.74504 1.17225 2.74274L1.09997 1.74536ZM8.44263 2.02675L8.36262 1.02995L8.44263 2.02675ZM38.2433 2.42076L38.1813 3.41883L38.2433 2.42076ZM44.2003 2.65031L44.1445 1.65187L44.2003 2.65031ZM47.1805 2.67094L47.1107 3.6685L47.1805 2.67094ZM51.9652 2.95723L51.9807 3.95711C51.9866 3.95702 51.9926 3.95687 51.9985 3.95668L51.9652 2.95723ZM52.1855 2.94989L52.2093 1.95017C52.1903 1.94972 52.1712 1.94981 52.1522 1.95044L52.1855 2.94989ZM52.2617 3.95198C52.8139 3.9651 53.2721 3.52815 53.2852 2.97602C53.2983 2.42389 52.8614 1.96567 52.3093 1.95255L52.2855 2.95227L52.2617 3.95198ZM1 1.74308L0.977216 2.74282L1.07719 2.7451L1.09997 1.74536L1.12276 0.745618L1.02278 0.74334L1 1.74308ZM1.09997 1.74536L1.17225 2.74274C3.0715 2.60511 4.41643 2.64587 5.26683 2.82083L5.46836 1.84135L5.66988 0.861868C4.54313 0.630041 2.9758 0.606801 1.0277 0.747974L1.09997 1.74536ZM5.46836 1.84135L5.26683 2.82083C6.34686 3.04305 7.43305 3.11099 8.52263 3.02354L8.44263 2.02675L8.36262 1.02995C7.46367 1.1021 6.56702 1.04645 5.66988 0.861868L5.46836 1.84135ZM8.44263 2.02675L8.52263 3.02354C9.45615 2.94862 10.3876 2.95918 11.3179 3.05519L11.4205 2.06048L11.5232 1.06576C10.4714 0.957201 9.41765 0.945275 8.36262 1.02995L8.44263 2.02675ZM11.4205 2.06048L11.3179 3.05519C12.3245 3.15909 13.332 3.23904 14.3402 3.29503L14.3956 2.29657L14.4511 1.29811C13.4745 1.24388 12.4985 1.16643 11.5232 1.06576L11.4205 2.06048ZM14.3956 2.29657L14.3402 3.29503C15.3829 3.35294 16.4276 3.33208 17.4738 3.23261L17.3792 2.2371L17.2845 1.24159C16.3374 1.33164 15.393 1.35042 14.4511 1.29811L14.3956 2.29657ZM17.3792 2.2371L17.4738 3.23261C18.3922 3.1453 19.3063 3.16653 20.218 3.29624L20.3589 2.30621L20.4998 1.31618C19.4318 1.16424 18.3595 1.13939 17.2845 1.24159L17.3792 2.2371ZM20.3589 2.30621L20.218 3.29624C21.2685 3.44569 22.3226 3.49786 23.3796 3.4526L23.3368 2.45351L23.294 1.45443C22.3601 1.49442 21.429 1.44839 20.4998 1.31618L20.3589 2.30621ZM23.3368 2.45351L23.3796 3.4526C24.3252 3.4121 25.2686 3.4423 26.2103 3.54321L26.3168 2.5489L26.4234 1.55459C25.3826 1.44306 24.3394 1.40967 23.294 1.45443L23.3368 2.45351ZM26.3168 2.5489L26.2103 3.54321C27.3036 3.66037 28.3993 3.61007 29.4941 3.39432L29.3007 2.41319L29.1074 1.43206C28.206 1.6097 27.3125 1.64987 26.4234 1.55459L26.3168 2.5489ZM29.3007 2.41319L29.4941 3.39432C30.3792 3.21988 31.2555 3.2019 32.1282 3.3384L32.2827 2.35041L32.4372 1.36242C31.33 1.18925 30.2183 1.21313 29.1074 1.43206L29.3007 2.41319ZM32.2827 2.35041L32.1282 3.3384C33.1971 3.50558 34.2703 3.54346 35.3461 3.45181L35.2612 2.45542L35.1764 1.45903C34.2607 1.53703 33.3482 1.5049 32.4372 1.36242L32.2827 2.35041ZM35.2612 2.45542L35.3461 3.45181C36.2932 3.37113 37.2382 3.36018 38.1813 3.41883L38.2433 2.42076L38.3054 1.42269C37.2639 1.35791 36.2207 1.37007 35.1764 1.45903L35.2612 2.45542ZM38.2433 2.42076L38.1813 3.41883C39.1697 3.4803 40.1579 3.54763 41.1461 3.62082L41.2199 2.62355L41.2938 1.62628C40.2978 1.55251 39.3017 1.48464 38.3054 1.42269L38.2433 2.42076ZM41.2199 2.62355L41.1461 3.62082C42.1814 3.6975 43.2182 3.7068 44.2562 3.64875L44.2003 2.65031L44.1445 1.65187C43.1928 1.7051 42.2426 1.69656 41.2938 1.62628L41.2199 2.62355ZM44.2003 2.65031L44.2562 3.64875C45.2093 3.59545 46.1607 3.60204 47.1107 3.6685L47.1805 2.67094L47.2503 1.67338C46.2165 1.60106 45.1811 1.5939 44.1445 1.65187L44.2003 2.65031ZM47.1805 2.67094L47.1107 3.6685C48.1049 3.73806 49.0993 3.8041 50.0938 3.86664L50.1566 2.86861L50.2194 1.87058C49.2295 1.80834 48.2398 1.74261 47.2503 1.67338L47.1805 2.67094ZM50.1566 2.86861L50.0938 3.86664C51.0675 3.92787 51.7182 3.96118 51.9807 3.95711L51.9652 2.95723L51.9497 1.95735C51.7851 1.9599 51.2301 1.93414 50.2194 1.87058L50.1566 2.86861ZM51.9652 2.95723L51.9985 3.95668L52.2188 3.94934L52.1855 2.94989L52.1522 1.95044L51.9319 1.95779L51.9652 2.95723ZM52.1855 2.94989L52.1618 3.94961L52.2617 3.95198L52.2855 2.95227L52.3093 1.95255L52.2093 1.95017L52.1855 2.94989Z" fill="#1F724B"/>
<path d="M38.5289 1.651C38.5766 1.10078 38.1693 0.616067 37.6191 0.568366C37.0688 0.520664 36.5841 0.928037 36.5364 1.47826L37.5327 1.56463L38.5289 1.651ZM37.524 1.66425L36.5278 1.57788C36.5248 1.61268 36.5236 1.6476 36.5242 1.68252L37.524 1.66425ZM36.9086 8.98678L35.9087 8.96959L36.9086 8.98678ZM35.2598 26.7913L34.2652 26.6882L35.2598 26.7913ZM34.9299 29.7538L33.9369 29.6356L34.9299 29.7538ZM34.8207 31.353L33.9494 31.8437C34.0834 32.0817 34.3089 32.2544 34.5735 32.322L34.8207 31.353ZM34.8968 31.3724L35.8927 31.4632C35.9373 30.974 35.62 30.5249 35.144 30.4034L34.8968 31.3724ZM33.8919 31.3812C33.8418 31.9312 34.247 32.4177 34.797 32.4679C35.347 32.518 35.8335 32.1128 35.8836 31.5628L34.8878 31.472L33.8919 31.3812ZM37.5327 1.56463L36.5364 1.47826L36.5278 1.57788L37.524 1.66425L38.5203 1.75063L38.5289 1.651L37.5327 1.56463ZM37.524 1.66425L36.5242 1.68252C36.5591 3.59202 36.4673 4.95138 36.2787 5.8125L37.2556 6.02638L38.2325 6.24027C38.4723 5.14465 38.5595 3.59593 38.5239 1.64599L37.524 1.66425ZM37.2556 6.02638L36.2787 5.8125C36.0505 6.8551 35.927 7.90778 35.9087 8.96959L36.9086 8.98678L37.9085 9.00398C37.9244 8.07532 38.0323 7.1544 38.2325 6.24027L37.2556 6.02638ZM36.9086 8.98678L35.9087 8.96959C35.8917 9.96041 35.8681 10.9508 35.838 11.9408L36.8375 11.9712L37.8371 12.0016C37.8675 11.0028 37.8913 10.0036 37.9085 9.00398L36.9086 8.98678ZM36.8375 11.9712L35.838 11.9408C35.8088 12.901 35.7305 13.8569 35.603 14.8087L36.5942 14.9414L37.5854 15.0741C37.7219 14.0544 37.8058 13.0302 37.8371 12.0016L36.8375 11.9712ZM36.5942 14.9414L35.603 14.8087C35.4686 15.8133 35.3629 16.8208 35.286 17.831L36.2831 17.9069L37.2803 17.9828C37.3542 17.0105 37.4559 16.041 37.5854 15.0741L36.5942 14.9414ZM36.2831 17.9069L35.286 17.831C35.2156 18.757 35.0549 19.6754 34.8034 20.5871L35.7673 20.8531L36.7313 21.1191C37.0167 20.085 37.1999 19.0393 37.2803 17.9828L36.2831 17.9069ZM35.7673 20.8531L34.8034 20.5871C34.5098 21.651 34.3714 22.7319 34.3893 23.827L35.3891 23.8107L36.389 23.7944C36.3743 22.8919 36.488 22.0011 36.7313 21.1191L35.7673 20.8531ZM35.3891 23.8107L34.3893 23.827C34.4049 24.7862 34.3635 25.7398 34.2652 26.6882L35.2598 26.7913L36.2545 26.8945C36.3611 25.8663 36.4059 24.8329 36.389 23.7944L35.3891 23.8107ZM35.2598 26.7913L34.2652 26.6882C34.1632 27.6714 34.0538 28.6539 33.9369 29.6356L34.9299 29.7538L35.9229 29.872C36.041 28.8802 36.1515 27.8877 36.2545 26.8945L35.2598 26.7913ZM34.9299 29.7538L33.9369 29.6356C33.8776 30.1341 33.8368 30.5338 33.8168 30.8256C33.807 30.9693 33.8009 31.1054 33.8025 31.222C33.8033 31.279 33.8061 31.3515 33.8157 31.4276C33.8208 31.4675 33.8417 31.6525 33.9494 31.8437L34.8207 31.353L35.692 30.8622C35.7492 30.9638 35.7734 31.0505 35.7825 31.0867C35.7934 31.1296 35.798 31.162 35.7999 31.1763C35.8034 31.2042 35.8026 31.2143 35.8023 31.1949C35.8018 31.1584 35.8038 31.0847 35.8122 30.9618C35.8287 30.7206 35.8648 30.3603 35.9229 29.872L34.9299 29.7538ZM34.8207 31.353L34.5735 32.322L34.6496 32.3414L34.8968 31.3724L35.144 30.4034L35.0679 30.384L34.8207 31.353ZM34.8968 31.3724L33.901 31.2816L33.8919 31.3812L34.8878 31.472L35.8836 31.5628L35.8927 31.4632L34.8968 31.3724Z" fill="#1F724B"/>
<path d="M58.8766 13.1908C59.2666 12.7997 59.2657 12.1665 58.8747 11.7765C58.4836 11.3865 57.8505 11.3874 57.4605 11.7784L58.1685 12.4846L58.8766 13.1908ZM58.0979 12.5554L58.6899 13.3613C58.7311 13.3311 58.7699 13.2977 58.806 13.2616L58.0979 12.5554ZM52.9888 17.5346L52.0563 17.1733L52.9888 17.5346ZM68.6871 26.5874L69.1995 27.4462L68.6871 26.5874ZM71.9635 21.8948L71.014 21.5808L71.9635 21.8948ZM59.2737 15.0629L59.2173 16.0613L59.2737 15.0629ZM56.2963 14.9126L56.2519 15.9116L56.2963 14.9126ZM52.8864 14.7046L51.8864 14.7136C51.8882 14.9121 51.9491 15.1056 52.0612 15.2694L52.8864 14.7046ZM52.9877 14.8526L52.9853 15.8526C53.3567 15.8535 53.6981 15.6485 53.8717 15.3202C54.0454 14.9918 54.0227 14.5943 53.8129 14.2877L52.9877 14.8526ZM52.8902 13.8524C52.338 13.851 51.8891 14.2976 51.8877 14.8499C51.8864 15.4022 52.333 15.851 52.8853 15.8524L52.8877 14.8524L52.8902 13.8524ZM58.1685 12.4846L57.4605 11.7784L57.3898 11.8492L58.0979 12.5554L58.806 13.2616L58.8766 13.1908L58.1685 12.4846ZM58.0979 12.5554L57.5059 11.7495C55.9559 12.8881 54.7857 13.7875 54.0079 14.4415L54.6514 15.2069L55.2949 15.9723C56.0212 15.3617 57.1487 14.4934 58.6899 13.3613L58.0979 12.5554ZM54.6514 15.2069L54.0079 14.4415C53.1266 15.1825 52.4732 16.0975 52.0563 17.1733L52.9888 17.5346L53.9212 17.896C54.217 17.1328 54.6721 16.496 55.2949 15.9723L54.6514 15.2069ZM52.9888 17.5346L52.0563 17.1733C51.6699 18.1702 51.4104 19.2048 51.2776 20.2749L52.27 20.3981L53.2624 20.5213C53.3752 19.6124 53.5948 18.738 53.9212 17.896L52.9888 17.5346ZM52.27 20.3981L51.2776 20.2749C51.1396 21.3872 51.2074 22.4907 51.4805 23.5792L52.4505 23.3358L53.4204 23.0925C53.2073 22.243 53.1548 21.388 53.2624 20.5213L52.27 20.3981ZM52.4505 23.3358L51.4805 23.5792C51.714 24.5096 51.8934 25.4595 52.0187 26.429L53.0105 26.3008L54.0022 26.1727C53.8671 25.1269 53.6732 24.1001 53.4204 23.0925L52.4505 23.3358ZM53.0105 26.3008L52.0187 26.429C52.1028 27.0798 52.3256 27.6793 52.722 28.184C53.1189 28.6895 53.6479 29.0464 54.2605 29.2763L54.6118 28.3401L54.9632 27.4038C54.6384 27.2819 54.4318 27.123 54.2949 26.9488C54.1575 26.7738 54.0483 26.5296 54.0022 26.1727L53.0105 26.3008ZM54.6118 28.3401L54.2605 29.2763C55.2361 29.6424 56.2217 29.9443 57.217 30.1814L57.4488 29.2087L57.6806 28.2359C56.7681 28.0185 55.8624 27.7413 54.9632 27.4038L54.6118 28.3401ZM57.4488 29.2087L57.217 30.1814C58.2165 30.4196 59.2429 30.59 60.2958 30.6931L60.3933 29.6979L60.4908 28.7027C59.5253 28.6081 58.5888 28.4523 57.6806 28.2359L57.4488 29.2087ZM60.3933 29.6979L60.2958 30.6931C61.4498 30.8062 62.5794 30.6701 63.6744 30.2864L63.3437 29.3427L63.013 28.399C62.1923 28.6866 61.355 28.7873 60.4908 28.7027L60.3933 29.6979ZM63.3437 29.3427L63.6744 30.2864C64.6878 29.9313 65.6578 29.4915 66.5837 28.9671L66.0908 28.0969L65.598 27.2268C64.7767 27.692 63.9153 28.0827 63.013 28.399L63.3437 29.3427ZM66.0908 28.0969L66.5837 28.9671C67.4638 28.4685 68.3358 27.9616 69.1995 27.4462L68.6871 26.5874L68.1746 25.7287C67.3239 26.2363 66.4651 26.7357 65.598 27.2268L66.0908 28.0969ZM68.6871 26.5874L69.1995 27.4462C70.1953 26.852 70.9973 26.0588 71.5926 25.0744L70.7369 24.5569L69.8812 24.0394C69.4579 24.7393 68.8933 25.2998 68.1746 25.7287L68.6871 26.5874ZM70.7369 24.5569L71.5926 25.0744C72.1406 24.1683 72.5809 23.2126 72.9129 22.2087L71.9635 21.8948L71.014 21.5808C70.7292 22.4421 70.3518 23.2612 69.8812 24.0394L70.7369 24.5569ZM71.9635 21.8948L72.9129 22.2087C73.274 21.1166 73.3537 19.9882 73.157 18.8387L72.1713 19.0074L71.1857 19.1761C71.3286 20.0111 71.2697 20.8076 71.014 21.5808L71.9635 21.8948ZM72.1713 19.0074L73.157 18.8387C72.9498 17.6283 72.3861 16.5936 71.481 15.7675L70.8068 16.5061L70.1327 17.2447C70.7073 17.7692 71.0532 18.402 71.1857 19.1761L72.1713 19.0074ZM70.8068 16.5061L71.481 15.7675C70.5956 14.9594 69.5493 14.4586 68.3647 14.2763L68.2126 15.2647L68.0605 16.253C68.8552 16.3754 69.5384 16.7022 70.1327 17.2447L70.8068 16.5061ZM68.2126 15.2647L68.3647 14.2763C67.3029 14.1129 66.2359 14.0668 65.165 14.1382L65.2316 15.136L65.2981 16.1338C66.2227 16.0721 67.1431 16.1118 68.0605 16.253L68.2126 15.2647ZM65.2316 15.136L65.165 14.1382C64.1991 14.2026 63.2368 14.2204 62.278 14.1918L62.2481 15.1914L62.2183 16.1909C63.2419 16.2215 64.2685 16.2024 65.2981 16.1338L65.2316 15.136ZM62.2481 15.1914L62.278 14.1918C61.2957 14.1625 60.3131 14.12 59.3302 14.0645L59.2737 15.0629L59.2173 16.0613C60.2179 16.1178 61.2182 16.161 62.2183 16.1909L62.2481 15.1914ZM59.2737 15.0629L59.3302 14.0645C58.3344 14.0082 57.3379 13.9579 56.3406 13.9136L56.2963 14.9126L56.2519 15.9116C57.2411 15.9556 58.2296 16.0054 59.2173 16.0613L59.2737 15.0629ZM56.2963 14.9126L56.3406 13.9136C55.3661 13.8703 54.5874 13.8022 53.9948 13.7128L53.8457 14.7016L53.6966 15.6905C54.3849 15.7942 55.24 15.8667 56.2519 15.9116L56.2963 14.9126ZM53.8457 14.7016L53.9948 13.7128C53.6643 13.663 53.3621 13.6292 53.1225 13.63C53.0163 13.6303 52.8346 13.6361 52.648 13.6944C52.5544 13.7236 52.3811 13.7893 52.2181 13.9418C52.0268 14.1207 51.8835 14.3912 51.8864 14.7136L52.8864 14.7046L53.8864 14.6955C53.8891 14.9934 53.7556 15.2422 53.5842 15.4026C53.4409 15.5365 53.2975 15.5868 53.2437 15.6036C53.1368 15.6369 53.0749 15.6301 53.1286 15.6299C53.2088 15.6297 53.3867 15.6437 53.6966 15.6905L53.8457 14.7016ZM52.8864 14.7046L52.0612 15.2694L52.1626 15.4175L52.9877 14.8526L53.8129 14.2877L53.7116 14.1397L52.8864 14.7046ZM52.9877 14.8526L52.9902 13.8526L52.8902 13.8524L52.8877 14.8524L52.8853 15.8524L52.9853 15.8526L52.9877 14.8526Z" fill="#1F724B"/>
<path d="M100.818 0.999183C100.818 0.446899 100.37 -0.000450611 99.8177 3.57628e-07C99.2654 0.000451267 98.818 0.448532 98.8185 1.00082L99.8185 1L100.818 0.999183ZM99.8186 1.1L100.813 1.20268C100.817 1.1683 100.819 1.13375 100.819 1.09918L99.8186 1.1ZM99.8137 5.46849L98.8325 5.66112L99.8137 5.46849ZM100.146 8.44765L99.1468 8.47469L100.146 8.44765ZM99.7895 20.3692L98.7976 20.2422L99.7895 20.3692ZM99.937 30.6116L99.2098 31.2982C99.3989 31.4985 99.6623 31.6119 99.9378 31.6116L99.937 30.6116ZM99.8426 30.5117L100.57 29.8252C100.288 29.5272 99.8537 29.4311 99.4729 29.5826C99.0921 29.7341 98.8423 30.1027 98.8426 30.5125L99.8426 30.5117ZM98.8427 30.6125C98.8431 31.1648 99.2912 31.6122 99.8435 31.6117C100.396 31.6113 100.843 31.1632 100.843 30.6109L99.8427 30.6117L98.8427 30.6125ZM99.8185 1L98.8185 1.00082L98.8186 1.10082L99.8186 1.1L100.819 1.09918L100.818 0.999183L99.8185 1ZM99.8186 1.1L98.8238 0.997317C98.623 2.94309 98.6082 4.51896 98.8325 5.66112L99.8137 5.46849L100.795 5.27586C100.629 4.43218 100.618 3.09573 100.813 1.20268L99.8186 1.1ZM99.8137 5.46849L98.8325 5.66112C99.0169 6.60046 99.1214 7.53813 99.1468 8.47469L100.146 8.44765L101.146 8.4206C101.118 7.37078 101 6.32235 100.795 5.27586L99.8137 5.46849ZM100.146 8.44765L99.1468 8.47469C99.1719 9.40306 99.1073 10.3324 98.9525 11.2636L99.939 11.4276L100.925 11.5916C101.101 10.5359 101.175 9.47861 101.146 8.4206L100.146 8.44765ZM99.939 11.4276L98.9525 11.2636C98.7759 12.326 98.7125 13.3902 98.7628 14.4552L99.7617 14.4079L100.761 14.3607C100.717 13.4389 100.772 12.5162 100.925 11.5916L99.939 11.4276ZM99.7617 14.4079L98.7628 14.4552C98.8098 15.4493 98.858 16.4437 98.9074 17.4383L99.9061 17.3887L100.905 17.3391C100.856 16.3461 100.807 15.3533 100.761 14.3607L99.7617 14.4079ZM99.9061 17.3887L98.9074 17.4383C98.9538 18.3728 98.9172 19.3072 98.7976 20.2422L99.7895 20.3692L100.781 20.4961C100.916 19.4447 100.957 18.3922 100.905 17.3391L99.9061 17.3887ZM99.7895 20.3692L98.7976 20.2422C98.6643 21.2835 98.6076 22.3257 98.6276 23.3684L99.6274 23.3493L100.627 23.3301C100.609 22.3858 100.66 21.4412 100.781 20.4961L99.7895 20.3692ZM99.6274 23.3493L98.6276 23.3684C98.6463 24.3474 98.6437 25.3265 98.6198 26.3055L99.6195 26.3299L100.619 26.3543C100.644 25.3463 100.647 24.3382 100.627 23.3301L99.6274 23.3493ZM99.6195 26.3299L98.6198 26.3055C98.5941 27.3569 98.6602 28.3802 98.8198 29.3744L99.8072 29.2159L100.795 29.0574C100.655 28.1905 100.596 27.2899 100.619 26.3543L99.6195 26.3299ZM99.8072 29.2159L98.8198 29.3744C98.8937 29.835 98.9375 30.157 98.9559 30.3553C98.9658 30.4619 98.9646 30.4942 98.9651 30.4824C98.9653 30.476 98.9663 30.4579 98.9697 30.4316C98.9728 30.4085 98.9806 30.3572 99.001 30.2919C99.0177 30.2382 99.0654 30.0996 99.1862 29.9578C99.3279 29.7914 99.5844 29.6119 99.9361 29.6116L99.937 30.6116L99.9378 31.6116C100.297 31.6114 100.561 31.4283 100.709 31.2546C100.836 31.1055 100.889 30.956 100.91 30.8877C100.954 30.7459 100.961 30.6188 100.963 30.5664C100.969 30.4382 100.959 30.296 100.947 30.1701C100.923 29.903 100.87 29.5272 100.795 29.0574L99.8072 29.2159ZM99.937 30.6116L100.664 29.9251L100.57 29.8252L99.8426 30.5117L99.1155 31.1982L99.2098 31.2982L99.937 30.6116ZM99.8426 30.5117L98.8426 30.5125L98.8427 30.6125L99.8427 30.6117L100.843 30.6109L100.843 30.5109L99.8426 30.5117Z" fill="#1F724B"/>
<path d="M99.8792 20.5089C100.347 20.803 100.964 20.6624 101.258 20.195C101.552 19.7275 101.412 19.1101 100.944 18.816L100.412 19.6625L99.8792 20.5089ZM100.327 19.6092L99.6586 20.3529C99.7009 20.391 99.7464 20.4253 99.7946 20.4556L100.327 19.6092ZM94.1651 15.6107L93.6708 16.48L94.1651 15.6107ZM88.6176 15.5478L88.2816 14.6059L88.6176 15.5478ZM84.2258 19.4879L83.3895 18.9396H83.3895L84.2258 19.4879ZM87.7976 28.0678L87.8234 29.0675L87.7976 28.0678ZM96.6817 27.4628L96.9534 28.4252L96.6817 27.4628ZM98.583 27.1503L98.8687 26.192C98.8414 26.1838 98.8138 26.1769 98.7859 26.1711L98.583 27.1503ZM98.9416 27.2572L98.6558 28.2155C98.7874 28.2547 98.9256 28.2664 99.0619 28.2499L98.9416 27.2572ZM99.1611 28.2379C99.7094 28.1715 100.1 27.6731 100.034 27.1249C99.9671 26.5766 99.4688 26.186 98.9205 26.2524L99.0408 27.2452L99.1611 28.2379ZM100.412 19.6625L100.944 18.816L100.86 18.7628L100.327 19.6092L99.7946 20.4556L99.8792 20.5089L100.412 19.6625ZM100.327 19.6092L100.996 18.8655C99.5373 17.5546 98.283 16.611 97.2541 16.1095L96.8159 17.0084L96.3778 17.9073C97.1485 18.283 98.235 19.0733 99.6586 20.3529L100.327 19.6092ZM96.8159 17.0084L97.2541 16.1095C96.3732 15.6801 95.5083 15.2241 94.6593 14.7414L94.1651 15.6107L93.6708 16.48C94.5566 16.9837 95.459 17.4594 96.3778 17.9073L96.8159 17.0084ZM94.1651 15.6107L94.6593 14.7414C93.6335 14.1582 92.5372 13.8888 91.3901 13.9581L91.4504 14.9562L91.5106 15.9544C92.2483 15.9099 92.9618 16.0769 93.6708 16.48L94.1651 15.6107ZM91.4504 14.9562L91.3901 13.9581C90.3478 14.021 89.3109 14.2388 88.2816 14.6059L88.6176 15.5478L88.9535 16.4897C89.8166 16.1818 90.6682 16.0053 91.5106 15.9544L91.4504 14.9562ZM88.6176 15.5478L88.2816 14.6059C87.1931 14.9942 86.2361 15.6046 85.4194 16.4298L86.1301 17.1333L86.8408 17.8367C87.4483 17.2229 88.1497 16.7764 88.9535 16.4897L88.6176 15.5478ZM86.1301 17.1333L85.4194 16.4298C84.6601 17.1969 83.9833 18.0338 83.3895 18.9396L84.2258 19.4879L85.0621 20.0362C85.5831 19.2415 86.1758 18.5086 86.8408 17.8367L86.1301 17.1333ZM84.2258 19.4879L83.3895 18.9396C82.7307 19.9445 82.3839 21.0523 82.361 22.2435L83.3608 22.2627L84.3606 22.2819C84.3762 21.4739 84.606 20.7318 85.0621 20.0362L84.2258 19.4879ZM83.3608 22.2627L82.361 22.2435C82.3399 23.3354 82.4699 24.3777 82.7581 25.3648L83.718 25.0846L84.678 24.8043C84.4513 24.0281 84.3431 23.1892 84.3606 22.2819L83.3608 22.2627ZM83.718 25.0846L82.7581 25.3648C83.0748 26.4497 83.69 27.3517 84.5844 28.0466L85.1979 27.2569L85.8115 26.4672C85.2475 26.0291 84.876 25.4828 84.678 24.8043L83.718 25.0846ZM85.1979 27.2569L84.5844 28.0466C85.5125 28.7676 86.6102 29.0988 87.8234 29.0675L87.7976 28.0678L87.7718 27.0682C86.9772 27.0887 86.3418 26.8793 85.8115 26.4672L85.1979 27.2569ZM87.7976 28.0678L87.8234 29.0675C88.8406 29.0413 89.8491 28.995 90.849 28.9287L90.7829 27.9309L90.7167 26.9331C89.7442 26.9976 88.7625 27.0426 87.7718 27.0682L87.7976 28.0678ZM90.7829 27.9309L90.849 28.9287C91.8089 28.8651 92.7718 28.8394 93.7377 28.8515L93.7502 27.8516L93.7628 26.8517C92.7446 26.8389 91.7293 26.866 90.7167 26.9331L90.7829 27.9309ZM93.7502 27.8516L93.7377 28.8515C94.8265 28.8652 95.8994 28.7228 96.9534 28.4252L96.6817 27.4628L96.4101 26.5005C95.5395 26.7462 94.658 26.8629 93.7628 26.8517L93.7502 27.8516ZM96.6817 27.4628L96.9534 28.4252C97.416 28.2947 97.7754 28.2114 98.041 28.1677C98.3375 28.119 98.4182 28.1374 98.3801 28.1295L98.583 27.1503L98.7859 26.1711C98.4426 26.0999 98.0537 26.1388 97.7165 26.1942C97.3484 26.2547 96.9098 26.3594 96.4101 26.5005L96.6817 27.4628ZM98.583 27.1503L98.2973 28.1086L98.6558 28.2155L98.9416 27.2572L99.2273 26.2989L98.8687 26.192L98.583 27.1503ZM98.9416 27.2572L99.0619 28.2499L99.1611 28.2379L99.0408 27.2452L98.9205 26.2524L98.8213 26.2645L98.9416 27.2572Z" fill="#1F724B"/>
<path d="M126.746 24.1456C127.166 24.5047 127.797 24.4557 128.156 24.0361C128.515 23.6165 128.466 22.9853 128.047 22.6262L127.397 23.3859L126.746 24.1456ZM127.321 23.3209L126.526 23.9282C126.569 23.9839 126.617 24.035 126.67 24.0806L127.321 23.3209ZM124.267 20.2379L123.752 21.0948L124.267 20.2379ZM121.794 18.5297L122.413 17.7444L121.794 18.5297ZM119.107 17.5609L119.083 18.5607L119.107 17.5609ZM114.87 28.1923L114.898 27.1927L114.87 28.1923ZM125.606 26.5081L125.993 27.4301C125.999 27.4274 126.006 27.4246 126.012 27.4218L125.606 26.5081ZM126.114 26.2821L125.837 25.3211C125.793 25.3338 125.75 25.3496 125.708 25.3683L126.114 26.2821ZM126.487 27.2153C127.018 27.0625 127.324 26.5084 127.171 25.9777C127.018 25.447 126.464 25.1406 125.934 25.2934L126.21 26.2544L126.487 27.2153ZM127.397 23.3859L128.047 22.6262L127.971 22.5611L127.321 23.3209L126.67 24.0806L126.746 24.1456L127.397 23.3859ZM127.321 23.3209L128.115 22.7136C126.92 21.1507 125.809 19.9985 124.782 19.3809L124.267 20.2379L123.752 21.0948C124.445 21.5115 125.369 22.4146 126.526 23.9282L127.321 23.3209ZM124.267 20.2379L124.782 19.3809C123.959 18.8855 123.169 18.34 122.413 17.7444L121.794 18.5297L121.175 19.3151C121.997 19.9627 122.856 20.556 123.752 21.0948L124.267 20.2379ZM121.794 18.5297L122.413 17.7444C121.455 16.989 120.351 16.5907 119.131 16.5612L119.107 17.5609L119.083 18.5607C119.869 18.5797 120.556 18.8272 121.175 19.3151L121.794 18.5297ZM119.107 17.5609L119.131 16.5612C118.099 16.5363 117.075 16.5577 116.059 16.6255L116.126 17.6233L116.193 18.621C117.147 18.5573 118.11 18.5371 119.083 18.5607L119.107 17.5609ZM116.126 17.6233L116.059 16.6255C114.849 16.7064 113.768 17.1638 112.842 17.9719L113.5 18.7252L114.158 19.4786C114.764 18.9489 115.434 18.6718 116.193 18.621L116.126 17.6233ZM113.5 18.7252L112.842 17.9719C111.9 18.7942 111.321 19.8393 111.129 21.0716L112.117 21.226L113.105 21.3804C113.224 20.616 113.567 19.9939 114.158 19.4786L113.5 18.7252ZM112.117 21.226L111.129 21.0716C110.966 22.1128 110.876 23.1328 110.86 24.1312L111.859 24.1475L112.859 24.1638C112.874 23.2636 112.955 22.3359 113.105 21.3804L112.117 21.226ZM111.859 24.1475L110.86 24.1312C110.841 25.2696 111.132 26.3512 111.713 27.36L112.579 26.8606L113.446 26.3612C113.036 25.6511 112.847 24.924 112.859 24.1638L111.859 24.1475ZM112.579 26.8606L111.713 27.36C112.39 28.5352 113.48 29.1545 114.843 29.192L114.87 28.1923L114.898 27.1927C114.196 27.1734 113.759 26.9049 113.446 26.3612L112.579 26.8606ZM114.87 28.1923L114.843 29.192C115.845 29.2195 116.827 29.2899 117.789 29.4026L117.905 28.4095L118.022 27.4163C116.999 27.2963 115.958 27.2219 114.898 27.1927L114.87 28.1923ZM117.905 28.4095L117.789 29.4026C118.874 29.53 119.957 29.5034 121.035 29.3231L120.87 28.3368L120.705 27.3505C119.813 27.4997 118.92 27.5216 118.022 27.4163L117.905 28.4095ZM120.87 28.3368L121.035 29.3231C122.118 29.142 123.148 28.8076 124.122 28.32L123.675 27.4257L123.227 26.5314C122.433 26.929 121.593 27.202 120.705 27.3505L120.87 28.3368ZM123.675 27.4257L124.122 28.32C125.005 27.8782 125.623 27.5853 125.993 27.4301L125.606 26.5081L125.219 25.586C124.783 25.7691 124.113 26.088 123.227 26.5314L123.675 27.4257ZM125.606 26.5081L126.012 27.4218L126.521 27.1958L126.114 26.2821L125.708 25.3683L125.2 25.5944L125.606 26.5081ZM126.114 26.2821L126.391 27.243L126.487 27.2153L126.21 26.2544L125.934 25.2934L125.837 25.3211L126.114 26.2821Z" fill="#1F724B"/>
<path d="M128.057 22.1789C128.105 21.6287 127.698 21.1436 127.148 21.0953C126.598 21.047 126.113 21.4539 126.064 22.0041L127.061 22.0915L128.057 22.1789ZM127.052 22.1911L126.056 22.1037C126.053 22.1366 126.052 22.1697 126.052 22.2027L127.052 22.1911ZM127.516 32.038L128.312 31.4336L127.516 32.038ZM128.447 33.0009L129.309 33.507C129.357 33.4249 129.394 33.3365 129.417 33.2442L128.447 33.0009ZM128.508 32.7551L129.474 32.4962C129.356 32.0562 128.956 31.7514 128.5 31.7551C128.045 31.7587 127.649 32.0698 127.539 32.5117L128.508 32.7551ZM127.568 33.1105C127.711 33.644 128.26 33.9605 128.793 33.8176C129.327 33.6746 129.643 33.1263 129.5 32.5928L128.534 32.8516L127.568 33.1105ZM127.061 22.0915L126.064 22.0041L126.056 22.1037L127.052 22.1911L128.048 22.2785L128.057 22.1789L127.061 22.0915ZM127.052 22.1911L126.052 22.2027C126.074 24.1059 125.922 25.4195 125.655 26.2228L126.604 26.5381L127.553 26.8535C127.928 25.7267 128.075 24.1423 128.052 22.1795L127.052 22.1911ZM126.604 26.5381L125.655 26.2228C125.283 27.3451 125.2 28.4892 125.415 29.6392L126.398 29.4557L127.381 29.2723C127.23 28.4621 127.285 27.6611 127.553 26.8535L126.604 26.5381ZM126.398 29.4557L125.415 29.6392C125.624 30.761 126.056 31.7682 126.719 32.6423L127.516 32.038L128.312 31.4336C127.851 30.8249 127.537 30.1106 127.381 29.2723L126.398 29.4557ZM127.516 32.038L126.719 32.6423C127.004 33.0185 127.252 33.3241 127.451 33.5299C127.539 33.6207 127.676 33.7551 127.841 33.8539C127.912 33.8966 128.103 34.0052 128.367 34.0174C128.516 34.0243 128.705 34.0007 128.896 33.901C129.09 33.7998 129.224 33.6521 129.309 33.507L128.447 33.0009L127.584 32.4948C127.662 32.3621 127.787 32.2235 127.97 32.1281C128.15 32.0343 128.325 32.0133 128.459 32.0195C128.693 32.0304 128.846 32.1244 128.871 32.1394C128.943 32.1828 128.957 32.2093 128.889 32.1396C128.778 32.0245 128.589 31.7989 128.312 31.4336L127.516 32.038ZM128.447 33.0009L129.417 33.2442L129.478 32.9984L128.508 32.7551L127.539 32.5117L127.477 32.7575L128.447 33.0009ZM128.508 32.7551L127.543 33.0139L127.568 33.1105L128.534 32.8516L129.5 32.5928L129.474 32.4962L128.508 32.7551Z" fill="#1F724B"/>
<path d="M136.987 19.9538C136.697 19.4842 136.08 19.3392 135.611 19.6299C135.141 19.9206 134.996 20.5369 135.287 21.0065L136.137 20.4801L136.987 19.9538ZM136.19 20.5652L137.054 20.0624C137.05 20.0545 137.045 20.0466 137.04 20.0388L136.19 20.5652ZM142.685 30.7417L142.426 31.7076C142.507 31.7292 142.59 31.7407 142.674 31.7416L142.685 30.7417ZM142.941 30.7447L143.754 30.1624C143.569 29.9035 143.271 29.7484 142.953 29.7447L142.941 30.7447ZM142.186 31.4082C142.508 31.8572 143.133 31.9605 143.582 31.639C144.031 31.3174 144.134 30.6927 143.812 30.2437L142.999 30.826L142.186 31.4082ZM136.137 20.4801L135.287 21.0065L135.34 21.0915L136.19 20.5652L137.04 20.0388L136.987 19.9538L136.137 20.4801ZM136.19 20.5652L135.325 21.0679C136.29 22.7267 137.059 23.9878 137.628 24.8393L138.459 24.284L139.291 23.7287C138.757 22.9299 138.013 21.7117 137.054 20.0624L136.19 20.5652ZM138.459 24.284L137.628 24.8393C138.188 25.678 138.768 26.5024 139.368 27.3127L140.171 26.7175L140.975 26.1224C140.394 25.3382 139.833 24.5404 139.291 23.7287L138.459 24.284ZM140.171 26.7175L139.368 27.3127C139.919 28.0575 140.401 28.8587 140.812 29.7172L141.714 29.2854L142.616 28.8535C142.151 27.8826 141.604 26.9718 140.975 26.1224L140.171 26.7175ZM141.714 29.2854L140.812 29.7172C141.039 30.191 141.253 30.5899 141.453 30.8903C141.553 31.0396 141.666 31.1908 141.794 31.3207C141.904 31.4324 142.116 31.6245 142.426 31.7076L142.685 30.7417L142.944 29.7758C143.057 29.8061 143.133 29.8523 143.167 29.8762C143.186 29.8893 143.2 29.9002 143.207 29.9068C143.215 29.9135 143.219 29.9175 143.219 29.9175C143.219 29.9176 143.217 29.9149 143.211 29.9088C143.206 29.9026 143.199 29.8939 143.189 29.8821C143.171 29.8581 143.147 29.8249 143.117 29.7807C142.994 29.5956 142.827 29.2944 142.616 28.8535L141.714 29.2854ZM142.685 30.7417L142.674 31.7416L142.93 31.7446L142.941 30.7447L142.953 29.7447L142.697 29.7418L142.685 30.7417ZM142.941 30.7447L142.128 31.3269L142.186 31.4082L142.999 30.826L143.812 30.2437L143.754 30.1624L142.941 30.7447Z" fill="#1F724B"/>
<path d="M150.856 23.5681C151.219 23.1525 151.177 22.5207 150.761 22.1571C150.346 21.7934 149.714 21.8355 149.35 22.2512L150.103 22.9097L150.856 23.5681ZM150.037 22.9849L149.285 22.3264C149.263 22.3511 149.243 22.3769 149.223 22.4036L150.037 22.9849ZM145.123 28.4499L145.951 29.0101L145.123 28.4499ZM143.32 30.8284L142.557 30.1823L143.32 30.8284ZM141.435 33.1369L140.65 32.5183L141.435 33.1369ZM136.255 40.4209L135.409 39.8864L136.255 40.4209ZM134.525 42.8466L133.744 42.2215L134.525 42.8466ZM129.124 49.9763L128.317 49.3853L129.124 49.9763ZM128.035 51.5893L127.143 51.1373C127.137 51.1491 127.131 51.1609 127.126 51.1728L128.035 51.5893ZM127.884 51.9181L128.703 52.4926C128.738 52.4428 128.768 52.3899 128.793 52.3346L127.884 51.9181ZM127.008 51.4255C126.691 51.8776 126.8 52.5013 127.252 52.8185C127.704 53.1358 128.328 53.0265 128.645 52.5745L127.827 52L127.008 51.4255ZM150.103 22.9097L149.35 22.2512L149.285 22.3264L150.037 22.9849L150.79 23.6434L150.856 23.5681L150.103 22.9097ZM150.037 22.9849L149.223 22.4036C148.116 23.953 147.224 24.9543 146.543 25.4864L147.158 26.2745L147.774 27.0626C148.687 26.3493 149.714 25.1575 150.851 23.5663L150.037 22.9849ZM147.158 26.2745L146.543 25.4864C145.664 26.1727 144.913 26.9744 144.294 27.8897L145.123 28.4499L145.951 29.0101C146.451 28.2703 147.058 27.6218 147.774 27.0626L147.158 26.2745ZM145.123 28.4499L144.294 27.8897C143.755 28.6876 143.175 29.4517 142.557 30.1823L143.32 30.8284L144.083 31.4745C144.749 30.6888 145.371 29.8673 145.951 29.0101L145.123 28.4499ZM143.32 30.8284L142.557 30.1823C141.908 30.9494 141.272 31.7281 140.65 32.5183L141.435 33.1369L142.221 33.7554C142.828 32.9839 143.449 32.2236 144.083 31.4745L143.32 30.8284ZM141.435 33.1369L140.65 32.5183C140.053 33.2758 139.422 34.008 138.757 34.7148L139.485 35.4003L140.213 36.0859C140.919 35.3364 141.588 34.5596 142.221 33.7554L141.435 33.1369ZM139.485 35.4003L138.757 34.7148C138.009 35.509 137.379 36.3916 136.869 37.3602L137.754 37.8261L138.639 38.2919C139.065 37.4825 139.59 36.7479 140.213 36.0859L139.485 35.4003ZM137.754 37.8261L136.869 37.3602C136.414 38.2261 135.927 39.0681 135.409 39.8864L136.255 40.4209L137.1 40.9553C137.646 40.0919 138.159 39.2041 138.639 38.2919L137.754 37.8261ZM136.255 40.4209L135.409 39.8864C134.898 40.6959 134.342 41.4742 133.744 42.2215L134.525 42.8466L135.305 43.4716C135.95 42.6663 136.548 41.8275 137.1 40.9553L136.255 40.4209ZM134.525 42.8466L133.744 42.2215C133.137 42.9801 132.502 43.7201 131.84 44.4415L132.576 45.1178L133.313 45.794C134.005 45.0397 134.67 44.2656 135.305 43.4716L134.525 42.8466ZM132.576 45.1178L131.84 44.4415C131.119 45.2269 130.482 46.0727 129.929 46.9783L130.782 47.4993L131.636 48.0202C132.121 47.2262 132.679 46.4843 133.313 45.794L132.576 45.1178ZM130.782 47.4993L129.929 46.9783C129.425 47.8042 128.888 48.6065 128.317 49.3853L129.124 49.9763L129.93 50.5672C130.534 49.743 131.103 48.8939 131.636 48.0202L130.782 47.4993ZM129.124 49.9763L128.317 49.3853C127.741 50.1719 127.325 50.7771 127.143 51.1373L128.035 51.5893L128.927 52.0413C129.022 51.854 129.332 51.3837 129.93 50.5672L129.124 49.9763ZM128.035 51.5893L127.126 51.1728L126.975 51.5017L127.884 51.9181L128.793 52.3346L128.944 52.0058L128.035 51.5893ZM127.884 51.9181L127.066 51.3437L127.008 51.4255L127.827 52L128.645 52.5745L128.703 52.4926L127.884 51.9181Z" fill="#1F724B"/>
</svg>
